<?xml version="1.0" encoding="utf-8"?>
<!-- Generator: Adobe Illustrator 24.0.1, SVG Export Plug-In . SVG Version: 6.00 Build 0)  -->
<svg version="1.1" id="Lager_1" xmlns="http://www.w3.org/2000/svg" xmlns:xlink="http://www.w3.org/1999/xlink" x="0px" y="0px"
	 viewBox="0 0 3000.3 1500" style="enable-background:new 0 0 3000.3 1500;" xml:space="preserve">
<style type="text/css">
	.st0{fill:#00050C;}
	.st1{fill:#F9AD26;}
</style>
<rect class="st0" width="3000" height="1500"/>
<g>
	<path class="st1" d="M333.8,385c0.4,11.9,1.9,23.7,3.8,35.5c4,24.2,9.6,48,18.8,70.9c3.2,7.8,2.9,7.9,9.7,3.3c4-2.7,8-5.4,9.5-10.4
		c0.3-1,0.9-1.7,2.1-1.9c11.9-2.2,14.5-5,14.3-16.5c-0.4-25.2-0.1-50.5,5.2-75.2c4.4-20.6,10.3-40.7,23.5-57.9
		c3.5-4.6,8-8.4,10.9-14.5c-3.6-0.2-6.4-0.3-9.4,0.4c-22.1,5-35,20.9-46.6,38.4c-7.5,11.3-4.9,24.4-6.1,36.6
		c-1.1,10.8,0,21.8,0.7,32.8c0.9,13.8,2.3,27.5,4.1,41.2c0.3,2.7,2.9,5.5,0.5,8.4c-1.3-0.5-1.5-1.5-1.7-2.6
		c-4.2-21.2-6.1-42.6-6.5-64.2c-0.2-14.2,0.7-28.3,1.9-42.3c1.2-14.8,6.9-28.6,14.6-41.4c1.2-2,4-5,2.2-6.7
		c-1.9-1.8-5.3,0.2-7.8,1.3c-0.6,0.2-1.2,0.4-1.8,0.7c-10.4,4.9-19.1,11.7-26.1,20.9C339.7,354.7,333.2,368.7,333.8,385z"/>
	<path class="st1" d="M678.4,1090.6c-0.7-31.5-2-62.9-2-94.4c0-9.1,1-19.5-7.3-27.1c-2.9,4.2-6,8.8-6.3,14.3
		c-0.6,11.1-0.4,22.3-1.1,33.4c-1.4,22.3-0.3,44.7-1.1,67.1c-0.9,23-2.2,46-1.7,69c0.1,2.5,0.4,5.1-2.2,6.7
		c-1.7-38.3,1.6-76.5,1-114.7c0-0.2,0-0.4,0-0.6c2.3-19.3,0.8-38.7,2.5-58c0.3-3.3-1.5-4.3-4.2-3.6c-2.5,0.7-6.6-2.6-7.3,3
		c-0.9,6.8-2,13.6-2.7,20.5c-1.8,18.5-4.8,36.9-5.9,55.4c-0.9,14.7-3.5,29.1-4.4,43.7c-1.2,19.4-4.9,38.6-4.9,58.1
		c0,4.4,1.7,7.8,3.6,11c3.5,6.2,13.5,6,17.6,0.1c4-5.9,4-5.9,7.1,0.4c2.5,5,6.5,7.9,12,6.7c5.8-1.3,9.3-5,9.5-11.5
		c0.1-3.5-1.4-6.5-1.4-9.9C678.8,1137.1,679,1113.9,678.4,1090.6z"/>
	<path class="st1" d="M971.6,395.4c-0.2,13.7,0.4,27.3-1,41.1c-1.4,13.5-2.8,27-5.5,40.2c-2.2,10.5-2.5,10.5,6,16.9
		c1,0.8,2.1,1.4,3,2.2c3.9,3.8,6,2,7.5-2.2c4.3-12.3,8.8-24.5,12.3-37.1c6.7-24.3,8.2-49.2,10.9-74.4c-0.6-8.7-2.6-17.2-6.5-25.4
		c-8.3-17.7-20.5-31.1-39.7-37.1c-1.6-0.5-3.7-2.2-5.1-0.6c-1.3,1.6,0.5,3.4,1.4,4.9C968.9,345.9,971.9,370.3,971.6,395.4z"/>
	<path class="st1" d="M1007.1,353.7c1.6,26.9-0.3,53.7-5.2,80.2c-3.9,20.8-9.5,41.2-17.4,60.9c-0.9,2.3-1.9,4.7-1.3,7.3
		c0.9,4.3,4.2,7.2,7.6,8.5c3.4,1.3,3.7-3.3,4.7-5.4c10-19.9,20.2-39.7,28.3-60.5c6.8-17.5,12.2-35.3,12.8-54.3
		c-0.1-4.9-0.2-9.6-1.3-14.4c-4.5-20.1-11.3-38.9-29.3-51.2c-1.1-0.8-1.8-2.6-3.7-1.4c-1.9,1.2-0.4,2.7-0.2,3.9
		C1003.8,336.2,1006.5,344.9,1007.1,353.7z"/>
	<path class="st1" d="M311.9,437.3c9.2,25.1,22.1,48.5,33.8,72.5c0.3,0.7,0.1,2.5,2.4,1.7c4.1-1.5,8.7-10,7.2-14
		c-5.6-14.8-10.6-29.7-14-45.1c-4.3-19.5-8.4-39-9.3-59.2c-0.8-18.2-2.6-36.3,2.4-54.3c1.4-5,3.1-10.2,2.6-17.1
		c-3.8,3.9-7.8,5.4-11,8.4c-9.8,9.3-15.1,20.9-19.2,33.4c-2.9,9-5.4,18.3-4.7,27.5C303.3,406.9,306.4,422.3,311.9,437.3z"/>
	<path class="st1" d="M242.9,486.8c5.7,8,12.1,15.5,18.8,22.7c16.5,17.5,34.2,33.8,52.8,49.1c3.5,2.9,7,5,8-2.3
		c0.3-2.4,1.7-4.7,2.8-6.9c1.9-3.7,2.2-6.7-1.7-9.7c-4-3.1-6.7-7.5-10.2-11.1c-25.6-26.6-45.5-57.2-62.4-89.9
		c-5.5-10.7-10.5-21.7-15.9-33.1c-0.8,1.8-1.5,3-1.9,4.3c-4.4,16.1-3.3,32.4-0.8,48.6C233.9,468.6,236.9,478.5,242.9,486.8z"/>
	<path class="st1" d="M1013.3,541.3c-0.8,0.8-2.1,1.3-1.5,3c2.3,6.2,4.4,12.4,6.8,19c2.9-2.4,5.2-4.5,7.6-6.4
		c13-10.1,24.9-21.6,36.9-32.8c8.6-8,16.2-17.1,23.8-26.2c5.2-6.2,10.9-12,13.7-19.9c6-16.5,9-33.4,8.2-50.9
		c-0.3-7-2.1-13.6-5.7-21.3c-6.4,17.9-14.8,33.1-23.5,48.3C1061.3,486,1039.8,515.6,1013.3,541.3z"/>
	<path class="st1" d="M633.5,1101.4c1-10.2,1.7-20.4,2.9-30.6c1.8-14.9,3-29.9,4.8-44.8c1.1-9.3,2.9-18.5,3.5-27.9
		c0.7-9.4,4.1-19.4-4.3-28.5c-0.7,5.2-3.7,8.4-7.2,11.2c-1.2,0.9-2.1,1.5-2.3,3.3c-1.6,12.2-3,24.4-5.1,36.5
		c-3.8,22.3-8.2,44.5-12.2,66.7c-2,11-3.8,22.1-5.5,33.2c-1.8,11.7-3.4,23.5-5,35.2c-0.9,6.4,1.1,12.3,5.1,16.9
		c2.7,3.1,6.8,4.5,11.3,2.2c4.4-2.3,8.5-4.7,8.8-10.2c0.3-5.1-0.3-10.2,0.2-15.2C630.1,1133.3,632,1117.3,633.5,1101.4z"/>
	<path class="st1" d="M944.9,412.1c2.4,18.3,3.5,36.9,2.6,55.4c-0.3,6.5,1.1,10.6,7.5,14c4.9,2.6,5.2,1.3,6.6-2.6
		c6-16.1,5.9-33.2,7.2-49.9c1.6-20.1,0.9-40.5-1.1-60.7c-0.3-2.9-1.3-5.8-2.8-8.7c-6.6-12.5-16.3-22.2-26.7-31.2
		c-8.6-7.4-19.2-11-32.2-10.4c5.1,6.2,9.7,11.2,13.7,16.7C936.3,357.8,941.2,384.9,944.9,412.1z"/>
	<path class="st1" d="M875.2,332c3,4.5,6.4,8.7,9.8,13c13.8,17.2,23.6,36.7,30.3,57.6c5.7,17.8,5.5,36.7,6.7,55.2
		c0.8,12.4,0.3,12.4,12.3,15.3c11.1,2.7,11.9,2.1,11.9-9.7c0-1.1,0-2.1,0-3.9c0.8-3.5-0.9-7.6-1.2-11.7c-1.5-18.1-3.3-36.1-6.2-54.1
		c-3.4-21.8-13.4-39.7-29.3-54.5c-9.1-8.5-20.1-12.5-32.8-11.1c-1.3,0.1-2.7-0.1-3.4,1.2C872.6,330.8,874.6,331.1,875.2,332z"/>
	<path class="st1" d="M401,389c-2.7,12.4-4.5,25-5.4,37.6c-1.1,14.6-2.6,29.3-2.1,44c0.1,3.3,1.2,5.6,6.1,4c4.4-1.5,9.1-3.2,14-2.9
		c2.4,0.1,2.7-1.3,2.7-3.2c-0.1-8.6,1.4-17.1,1.5-25.8c0.2-13.1,2.6-26.1,5.9-38.8c5.6-21.4,16.3-40.2,29.6-57.8
		c4.2-5.6,9.5-10.4,13-17.5c-20.2-2.4-27,1.4-40.8,14.2C412,355.1,404.9,371.3,401,389z"/>
	<path class="st1" d="M282.7,432c8.9,20.1,17.5,40.3,29.3,59c6.5,10.4,13.3,20.6,21.1,30.1c1.3,1.5,2.8,5.7,5.7,2.8
		c3-2.9,6.2-6.2,3.8-11.4c-3-6.6-6.5-12.9-9.7-19.4c-6.6-13.7-12.4-27.7-18.9-41.4c-9.6-20.3-13.7-41.8-14.7-64
		c-0.5-12.3-3.6-24.6-0.1-37c0-0.4,0.1-0.9,0-1.3c-0.4-1.9,1.2-4.9-1.1-5.7c-2.1-0.7-3,2.2-4.3,3.8c-8,9.9-13,21.2-16.6,33.3
		c-2.1,7-3.2,14.3-3,21.4C274.5,412.8,278.4,422.5,282.7,432z"/>
	<path class="st1" d="M1028.9,441.2c-4,9.8-8.1,19.5-12.5,29.1c-5.8,12.9-12.4,25.4-18.7,38c-2.8,5.7-3.6,10,1.4,14.9
		c2.6,2.5,3.7,1.9,5.3-0.2c12.6-16.6,23.9-34,33.7-52.4c7.5-14,13.7-28.5,19.4-43.2c3.1-8.1,8.7-15.9,7.4-22.1
		c-1.6-25.1-9-44.4-22.3-61.5c-0.6-0.8-1.7-1.7-2.4-1.6c-1.7,0.2-1.2,2-1.2,3.1c0.3,3.9,1.1,7.9,1.2,11.8
		c0.1,16.4,0.4,32.8-2.3,49.1C1035.9,418.3,1033.4,430,1028.9,441.2z"/>
	<path class="st1" d="M273.3,470.8c15,24.6,33.9,46,52.7,67.5c0.8,0.9,1.6,2.2,3.1,1.7c2.7-0.9,5.8-11.1,4.1-13.5
		c-5.3-7.4-10.8-14.7-16.1-22.2c-13.8-19.2-24.1-40.2-33.4-61.8c-6.8-15.8-14-31.5-18-48.4c-1.6-6.6-2-13.6-4.4-20
		c-0.4-1.1,0.2-2.7-2.1-2.6c-0.5,0.6-1.4,1.4-1.7,2.3c-0.8,2.1-1.4,4.3-2,6.5c-4.1,13.8-5.7,27.8-3.6,42.1
		C254.3,440.6,263.9,455.5,273.3,470.8z"/>
	<path class="st1" d="M1008.6,521.7c-4.4,5.2-5.9,9.7-1.2,15.7c2.3,3,3.1,3,5.4,0.5c3.4-3.7,6.7-7.6,10.1-11.2
		c16.9-18,31.5-37.6,44.3-58.6c5.9-9.7,12.3-19.3,16.1-30.1c4.6-13,5.1-26.8,3.8-40.4c-1-9.8-2.8-19.7-8.1-28.8
		c-2.7,11.1-4.9,21.9-8.1,32.3c-8.8,28.5-21,55.5-35.5,81.5C1027.6,496.5,1018.8,509.6,1008.6,521.7z"/>
	<path class="st1" d="M1046.6,568.3c-7.1,4.3-13.9,9.1-21.5,12.6c-5.2,2.4-4.1,7-3.6,11c0.4,3.1,3.6,2.1,5.1,1.5
		c12.4-4.9,25.1-9.1,36.8-15.2c19.9-10.5,39.1-22.2,56-37.4c12.4-11.2,23.3-23,21.4-41.5c-0.5-5.2,0.9-10.5-1.2-15.6
		c-0.6-1.5-1.1-2.7-2.8-3c-1.6-0.3-2.1,0.8-2.7,2c-6.6,12.6-16.3,23.1-25.8,33.4C1089.8,535.9,1070,554.2,1046.6,568.3z"/>
	<path class="st1" d="M285.4,582.7c10,4.6,20.2,9.5,31.3,11.6c0.8-11,0.8-11-8.9-16c-1.5-0.8-2.8-1.7-4.3-2.6
		c-20.5-12.4-39.6-26.7-57-43.1c-9.6-9.1-19-18.5-26.9-29.2c-5-6.9-11.4-12.8-14.7-20.8c-0.5-1.3-1.6-2.6-3.2-2.7
		c-0.5,0-1.2,1.1-1.5,1.9c-5.7,19-3.5,36.5,10.8,51C232.5,554.4,258,570.2,285.4,582.7z"/>
	<path class="st1" d="M1023.6,563.7c-4.5,3.5-3.8,7.5-3.2,11.7c0.3,2.1,1.5,2.9,4.5,2c6.3-1.8,11-6,16.1-9.4
		c18.5-12.4,35.9-26.1,52.2-41.4c16.4-15.3,31.6-31.3,34.4-54.7c1.4-11.8,2.2-24.2-4.4-36.3c-0.9,1.9-1.3,2.6-1.5,3.4
		c-7.3,26.1-20.1,49.2-38.5,69.1C1064.7,528.1,1045,546.9,1023.6,563.7z"/>
	<path class="st1" d="M278.1,554.1c10.9,8.3,22.3,16,34.3,22.6c1.6,0.9,3.6,2.9,5.4,0.1c2.9-4.3,1.8-10.2-2.6-13.4
		c-12.1-8.7-23-18.8-33.8-29c-10.2-9.7-20.4-19.5-29.4-30.5c-9.1-11.1-17.6-22.6-23.9-35.6c-5.1-10.4-8-21.6-13-32.1
		c-1.9,7.5-4.6,14.5-4.9,22.1c-0.8,22.1,7.3,40.4,22.8,55.9C247.3,528.5,262.1,541.9,278.1,554.1z"/>
	<path class="st1" d="M1110.1,552.4c-24.7,18.5-51.2,33.9-80.6,43.6c-6.8,2.2-9,5.4-8.4,12.2c0.3,3.9,0.9,5.2,5.2,4.1
		c31.2-8.2,61.4-18.8,89.6-34.8c14.8-8.4,30.2-27.5,22.5-47.7C1129.1,538.1,1119.6,545.3,1110.1,552.4z"/>
	<path class="st1" d="M231.7,582.1c26,13.1,53.2,23.3,81.6,30.2c4.2,1,5.6,0.1,5.2-2.5c-0.5-6.8-1.1-11.3-7.8-13.1
		c-7.4-1.9-14.5-4.9-21.5-8.1c-30.7-14.1-58.6-32.5-83.8-55c-1.3-1.1-2.5-2.8-4.3-1.8c-1.4,0.8-2,2.6-2.2,4.2c-1.3,9.6,2.1,18,7,26
		C211.9,571.9,221.8,577.1,231.7,582.1z"/>
	<path class="st1" d="M648.1,600.4c1.6-0.9,3.7-1,5.3-1.9c6-3.6,15.5,2.3,18,7.6c3.9,8.1,0.5,16.5-5.6,19.5
		c-7,3.5-14.9,5.3-21.7,10.3c2.4,2.9,5.2,2.7,7.8,2.3c11.4-1.6,21.4-5.6,27.6-16.1c9.2-15.7,5.5-38.4-13-46.2
		c-6.1-2.6-12.6-2.6-19.1-2.5c-9,0.1-9.4,0.6-7.4,9.3c1.7,7.7-1.8,12-9.7,12.4c-4.8,0.2-9.1-1.1-13.2-3.3c-1.6-0.8-3.8-1.3-4.6,0.2
		c-1.1,1.9,0.2,3.4,2.3,4.4c3.2,1.5,4.9,4.5,5.7,7.8c0.8,3.1,2,5.9,4.3,8.2c2,2,2.9,4.6,2.5,7.5c-0.6,3.7,0.8,7,1.4,10.5
		c0.4,2.5,1.8,4.9,4.8,4.6c3.3-0.3,5.2-2.3,5.2-5.8c0-4.9,0.3-9.8,0-14.6C638.1,607.3,642.4,603.4,648.1,600.4z"/>
	<path class="st1" d="M1073.1,601.1c-16,6.3-32.3,12.1-49.2,15.6c-4,0.8-8.1,8.7-6.2,12.9c1.9,4.3,5.8,2.2,9.1,1.4
		c6.3-1.4,12.6-2.7,18.8-4.3c24.6-6.3,48.6-14.4,71.5-25.5c14.5-7.1,19.8-20.1,22.5-35.5c-1.4,0.4-2.1,0.4-2.6,0.8
		C1117.9,582.1,1095.8,592.2,1073.1,601.1z"/>
	<path class="st1" d="M221.4,601.1c13.6,6.2,27.4,11.8,41.6,16.6c18.8,6.3,37.8,11.8,57.7,14.7c-0.1-6.1,1.5-12.5-5.6-15.4
		c-3.2-1.4-6.8-2-10.2-2.9c-32.1-8.6-62.7-20.5-91-38.5c-4.6-2.9-8-7.4-13.4-9.4c-1.5,3.6,0.2,6.4,1,9.1
		C204.8,586.3,210.4,596.1,221.4,601.1z"/>
	<path class="st1" d="M1130.3,598.1c-1.5-1-2.2,0.2-3.2,0.9c-7.6,5.2-15.9,9-24.4,12.5c-24.9,10.1-50.1,18.7-76.7,23
		c-4.3,0.7-8.5,2.2-11.4,6c-1.4,1.8-1.2,3.7-0.7,5.4c0.5,1.9,2.5,1,3.8,1.2c9.6-1.4,19.3-1.3,28.8-2.9c19.2-3.2,38.4-6.9,57.5-10.7
		c20-4,25.5-18.2,27.8-32.2C1131.9,600,1131.5,598.9,1130.3,598.1z"/>
	<path class="st1" d="M237.4,634.1c18.9,4.1,37.9,7.8,57.1,10.1c10.1,1.2,20.3,2.7,30.7,2.9c-0.8-6.8-2.8-10.7-10.7-11.9
		c-14.5-2.2-28.7-6.4-42.8-10.8c-22.2-6.9-43.7-15.5-64.2-26.9C209.7,618.7,213.7,628.9,237.4,634.1z"/>
	<path class="st1" d="M665.5,640.8c-5.8,1.8-11.8,2.5-17.9,2.6c-3.4,0.1-6.8,1.2-6.5,5.9c0.2,3.8,3.2,4.3,5.8,4.1
		c8.3-0.7,16.3,1.9,24.5,1.3c11.5-0.8,23.1-1.4,34.7-1.3c5.6,0.1,9.8-6,8.5-11.9c-1.5-7.1-2.8-14.2-5-21.1
		c-4.2-13.7-11.7-25.3-24.7-34.7c1.5,6,2.9,10.8,3.8,15.6C691.9,619,687.4,634,665.5,640.8z"/>
	<path class="st1" d="M597.9,836.5C598,836.5,598,836.5,597.9,836.5C598,836.5,597.9,836.5,597.9,836.5
		C597.9,836.5,597.9,836.5,597.9,836.5z"/>
	<path class="st1" d="M596.6,849.2c1.6,14.4,3.7,28.8,4.6,43.3c1,15,7,28.5,11.3,42.5c0.4,1.2,1,2.3,2.1,3.1c0.4,0,0.7,0.1,1.1,0.1
		c1-5,3.5-0.7,4.1-0.2c5.3,5,9.5,1.5,12.7-2.2c3.1-3.6,4-8.5,5.3-13.2c0.8-2.7,0.1-4-1.6-5.3c-5.6-4.3-8.9-10-10.7-16.8
		c-9.6,16.2-9.6,16.2-14.9,14.6c1.8-1.3,3.5-2.4,5.2-3.6c6.3-4.6,8.9-16,4.1-21.7c-3.6-4.2-6.5-8.4-8.2-13.7
		c-3.4,2.2-2.9,6.8-7.5,9.3c1.9-5.2,3.5-9.3,4.7-13.5c1-3.7,1.7-7-3-9.5c-4.6-2.4-5-4.6-4.5-8.7c8.3,10.1,11.8,10.4,18.3,1.2
		c2.7-3.8,4.6-14.8,2.2-16.3c-6-3.6-7-10.5-10.9-15.7c-1.4,2.9-2.1,6.1-4,8c-2.4,2.4-3.3,8-8.9,5.7
		C595,840.5,596.1,844.9,596.6,849.2z"/>
	<path class="st1" d="M1122.2,630.9c-9.1,4.9-19.4,6.1-29.2,8.3c-24.8,5.4-49.9,8.9-75.3,10.5c-4,0.2-10,8.7-9.1,12.4
		c0.6,2.2,2.3,1.5,3.6,1.5c5.3,0.1,10.6,0,15.9,0c22.2,0,44.2-2.7,66.2-5.3c14.3-1.7,25.8-9.1,31.9-22.9c0.7-1.5,2.2-3.6,0.6-5
		C1125.9,629.7,1123.5,630.2,1122.2,630.9z"/>
	<path class="st1" d="M275.9,661.3c16.7,1.5,33.5,2.5,50.3,2.3c1.3,0,3,0.5,3.5-1.7c0.9-3.6-3.2-10.4-6.9-11
		c-11.9-2-23.9-3.2-35.8-4.8c-24.9-3.4-49.4-8.2-73.5-15.3c-1,1.7-0.5,3.2-0.2,4.9c2.3,12.2,21.6,22.2,32,22.9
		C255.6,659.3,265.7,660.4,275.9,661.3z"/>
	<path class="st1" d="M415.3,774.5c-2.2-2-3.9-3.3-5.4-4.7c-6.3-6.2-7.9-6.4-15.4-1.9c-3.2,1.9-6.3,4.1-9.3,6.2
		c-16.8,11.5-33.3,23.4-51.9,32c-4.8,2.2-8.8,9.4-7.2,13.6c2,5.2,7.1,5.9,11.6,5.2c8.1-1.2,15.7-4.2,22.3-9.1
		C378.2,802.2,396.4,788.6,415.3,774.5z"/>
	<path class="st1" d="M1006.7,807c-4.9-2.3-9.7-4.8-14.3-7.7c-17.6-11-35-22.2-52.5-33.5c-1.6-1-3.1-2.9-4.8-1
		c-2,2.3-4.5,3.5-6.9,5.2c-3.8,2.6-4.3,5.2-0.2,8.2c18.7,13.5,37.2,27.4,56.1,40.6c5.2,3.6,11.4,6,17.1,6.3
		c5.2-0.3,9.9-0.1,10.9-5.4C1013.1,814.6,1012.4,809.7,1006.7,807z"/>
	<path class="st1" d="M1065.3,728.6c-23.2-3.3-45.9-8.9-68.8-13.9c-13-2.8-13.9-2.4-19.5,5c-3.3,4.4-2,5.6,2.5,7
		c19.5,5.7,38.8,11.9,58.3,17.5c6.5,1.9,13,4.4,19.9,4.6c3.5,0.4,6.7-0.7,9.6-2.2c5.1-2.6,9.5-6.4,8.4-12.6
		C1074.8,728.6,1069,729.1,1065.3,728.6z"/>
	<path class="st1" d="M364.5,724.6c-4.1-4.8-4.8-13.3-13.8-11.3c-27.8,6.1-55.6,11.8-83.7,16.5c-4.1,0.7-5.5,3.5-3.9,7.5
		c2,5.2,5.6,8.4,10.9,10.3c9.3,3.4,17.7-0.7,26.1-3.2C321.3,738.2,342.4,731.4,364.5,724.6z"/>
	<path class="st1" d="M1083.3,708.6c-5.8-1.8-11.7-2.5-17.8-3.2c-9.5-1.1-19.1-1.6-28.5-3.4c-12.9-2.4-26.1-3.6-39.2-4.1
		c-4.3-0.2-11.6,6.3-12,10.3c-0.2,2.2,1.2,2.1,2.7,2.4c12.8,2.7,25.5,5.6,38.3,8.4c14.4,3.2,29,5.3,46.1,7.3c2.6,1,6.8-1.6,10.9-3.3
		c3.6-1.5,6-4.7,6.1-8.8C1089.8,710,1086.2,709.5,1083.3,708.6z"/>
	<path class="st1" d="M270.4,725.9c8.4-0.1,16.5-1.9,24.6-3.8c18-4,36.3-6.7,54.1-11.4c1.9-0.5,3.8-0.2,3.5-3.1
		c-0.3-2.7-7.3-9.8-10-9.7c-7.7,0.3-15.5,0.5-23.2,1.5c-12.2,1.5-24.2,3.9-36.4,5c-9.7,0.9-19.4,1.9-28.8,4.6
		c-2.9,0.8-5.4,1.7-5.6,4.9c-0.2,2.8,1.2,5,3.6,6.8C257.6,724.9,263.8,726.1,270.4,725.9z"/>
	<path class="st1" d="M1108.2,658.1c-14.8,3.3-29.9,5.1-45,6.7c-16.4,1.7-32.8,1.8-49.2,1.2c-6.7-0.3-8.7,3.4-10.2,8.4
		c-0.8,2.5-0.6,3.9,2.8,4.7c8.7,2.1,17.6,1.6,26.2,2c19.1,0.8,38.4,1.6,57.5-1c9.4-1.3,24.4-8.6,27.2-22.5
		C1114.3,657.2,1111.4,657.4,1108.2,658.1z"/>
	<path class="st1" d="M1022.8,789.2c-3.1-1.7-6.4-3-9.6-4.5c-17.7-8.3-33.3-20.3-50.7-29.1c-11.2-5.6-10.3-5.9-19.1,1.4
		c-4.2,3.5-3.1,5.5,0.8,8c18.6,11.7,37,23.8,55.8,35.2c5.2,3.2,10.5,6.9,17.2,7c5.6,0,9.8-1.9,11.6-7.6
		C1030.7,794.1,1027,791.4,1022.8,789.2z"/>
	<path class="st1" d="M391.3,767.2c9.3-5.6,9.8-3.2,1-12.4c-2.9-3-5.4-4.6-9.8-2.3c-22.7,11.9-43.9,26.4-67.3,37.2
		c-3.7,1.7-7,4.5-5.5,9.3c1.6,5.1,5.5,8.1,11,9.7c5.6-2.5,11.6-5,17.3-7.9C356.7,791.1,373.3,778,391.3,767.2z"/>
	<path class="st1" d="M926.2,862.9c-16.4-13.9-30.6-30-46.1-44.9c-7.1-6.9-7.6-7.1-15.8-1.7c-3.5,2.3-4.7,5-1.4,8.8
		c9.2,10.8,18.4,21.6,27.2,32.7c6.9,8.7,13.6,17.2,23.9,22.6c4,2.1,7.9,2.6,11.3,1.2c3.6-1.5,4.8-5.6,4.3-9.8
		C930.2,868.3,929,865.2,926.2,862.9z"/>
	<path class="st1" d="M437.7,870.5c13.9-15,26.5-31.2,39.3-47.2c1.1-1.4,2.1-2.7,0.7-4.4c-5.1-6.6-13.6-7.1-19.4-1
		c-10.3,10.7-20.1,21.9-31.4,31.6c-5.4,4.6-10.2,9.9-15.2,15c-4.3,4.4-3.1,9.6-1.4,14.6c1,3,3.9,3.6,7,3.2
		C426.1,882,432.3,876.4,437.7,870.5z"/>
	<path class="st1" d="M261.1,681.3c19.4,0.2,38.8,0.3,58.2-1c5.6-0.4,11-1.4,17-1.9c-1.6-3.4-2.9-6.2-4.2-9c-1-2.3-2.4-3.3-5.3-3.3
		c-16.2,0.1-32.5,0.6-48.7-1.2c-12.2-1.4-24.4-3-36.6-4.6c-6.9-0.9-13.8-2-21.9-3.2c8.8,14.3,9.9,15.4,20.6,20.5
		C247,680.6,254.1,681.2,261.1,681.3z"/>
	<path class="st1" d="M972.3,838.6c-3-0.7-5.9-2.3-8.3-4.2c-16.2-13-32.4-26.1-48.4-39.4c-8.2-6.8-7.7-6.6-17.1-0.8
		c-5.5,3.4-4.3,5.4-0.5,8.7c16.2,14,32.2,28.1,48.5,41.9c6.4,5.5,14,8.9,24.6,9.8c3.5,0.7,5.9-2.7,6.8-7.1
		C978.8,843.1,977.6,839.7,972.3,838.6z"/>
	<path class="st1" d="M415.8,824.2c9.2-7.5,17.4-16.1,27.2-22.8c1.1-0.8,2.6-1.8,2.2-3.5c-1.2-5.2-13.3-9.6-17.8-6
		c-9.7,7.6-19,15.7-28.7,23.4c-10.4,8.3-20.1,17.5-32.5,23c-3.7,1.6-7.2,5-5.7,10.1c1.3,4.4,4.5,6.3,9.1,6.1
		c6.5-0.8,12.6-3,17.9-6.6C397.8,840.9,406.3,831.9,415.8,824.2z"/>
	<path class="st1" d="M460.6,811.7c0.6-0.5,1.1-1.4,1.1-2.1c-0.1-3.3-11.8-9-14.7-7.1c-8.3,5.4-15.1,12.5-22.6,18.9
		c-12.1,10.2-23.5,21.2-36.4,30.4c-4.1,2.9-4.4,6.6-3.6,10.8c1,4.8,4.7,4.7,7.8,4.5c5.3,0,11-1.6,15.3-4.7
		C427.4,847.7,442.8,828.4,460.6,811.7z"/>
	<path class="st1" d="M950.9,851.4c-7.6-5.4-14.8-11.3-21.9-17.3c-10.2-8.5-19.1-18.6-30.4-25.8c-3.5-2.2-5-8.5-10.1-6.9
		c-4.2,1.3-7.7,4.7-11.5,7.2c-0.1,0.1-0.2,0.3-0.4,0.6c4.9,5.6,10.3,10.8,15.7,16.1c11,10.7,21.4,22,32.7,32.3
		c5.7,5.2,12.3,9.8,21.1,9.6c4.4-0.1,7.8-1.5,8.8-5.5C955.9,857.8,954.9,854.2,950.9,851.4z"/>
	<path class="st1" d="M1096,683.9c-5.7-0.1-11.3,0.8-16.9,1.1c-23.2,1.3-46.3-0.2-69.3-2.9c-8.8-1-10.3,2.7-13.2,8.5
		c-1.7,3.5-0.5,4.6,2.1,4.5c4.7-0.2,9.1,1.2,13.7,1.5c9.1,0.7,18.3,1.8,27.4,2.9c12.4,1.5,24.8,3.1,38.3,4.8
		c7-1.3,14.8-3.7,21.7-7.9c3.4-2.1,5.1-5.8,3.7-9.8C1102.4,683.4,1098.9,684,1096,683.9z"/>
	<path class="st1" d="M264.7,703.9c12.8-1.8,25.6-2.9,38.4-4.6c12.2-1.6,24.5-2.6,36.7-3.9c1.3-0.1,2.3-0.3,2.6-2
		c1-5.5-5.8-12.7-11.1-11.9c-14.7,2.1-29.5,3.6-44.3,3.7c-13.5,0.1-27,0.9-40.4-1.2c-1.5,0-3-0.1-4.4,0c-2.8,0.2-6.3,0-7.5,3
		c-1.4,3.4,0.2,6.5,3.2,8.8C245.9,701.6,255.2,705.2,264.7,703.9z"/>
	<path class="st1" d="M485.2,823.8c-2.3-1.3-4.1-1.5-5.9,0.9c-3.5,4.6-7.2,9-10.9,13.4c-11.3,13.2-20.8,28-33.9,39.7
		c-2.4,2.1-4.4,5.9-2,10.3c1.9,3.5,3.9,5.8,10.1,5.3c6.3-1.2,13.7-4.7,18.7-11.5c9.7-13.2,18.8-26.9,28-40.4
		C497,830.3,496.9,830.3,485.2,823.8z"/>
	<path class="st1" d="M721.2,638.8c-0.6-26-12.6-46.1-33-61.6c-18.5-14.1-39.7-10.5-60.5-8.5c-13.8,1.3-25.7,7.7-37.3,14.8
		c-7,4.3-11.2,13.1-9.3,21.3c2.2-2.9,5-3.9,8.4-3.5c9.2,1.2,16,5.5,20.7,14c6.7,12.1,13.3,23.7,8.4,38.7c-2.5,7.6-2.2,16,1,23.9
		c1.8,4.5,5.6,5.2,8.9,3.2c3.5-2.1,7.3-4.5,8.9-9.1c2.7-8.2,2.9-8-5.2-9.8c-2-0.5-4-1-6.1-1.1c-4.7-0.2-6-2.7-4.9-7.1
		c1.2-5.4,2.4-10.5,1.5-16.5c-1.6-10.1-6.4-18.6-11.5-26.8c-4.9-8-13.3-12.2-23-13c-1.4-0.1-2.6,2.2-3.9,0.4c-1-1.4,0.3-2.8,0.9-4.1
		c1.1-2.5,2.7-4.3,5-6c12.2-9.3,26-14.7,41.1-16.8c11.2-1.6,22.7-2.9,33.9-0.7c17.4,3.4,30,14.3,39.4,28.7
		c10.7,16.4,15.5,34.5,14.1,54.2c-0.6,7.6-1.3,8.9-9.2,9.1c-3.6,0.1-7.3,0-11.2,0c6.6,20.3,13.9,24.4,22.9,15.3
		C721.2,664.7,721.5,651.7,721.2,638.8z"/>
	<path class="st1" d="M721,677.5C721,677.5,721,677.6,721,677.5C721,677.6,721,677.6,721,677.5C721,677.6,721,677.6,721,677.5
		L721,677.5C721,677.6,721,677.6,721,677.5z"/>
	<path class="st1" d="M906.4,886c-1.1-4.1-1-7.6-4.3-10.6c-15.1-13.5-25.8-30.8-39.2-45.8c-7.5-8.4-4.5-7.3-14.3-2.8
		c-0.9,0.4-1.6,1.6-2.5,1.9c-3.9,1.3-2.8,3.8-1.3,5.9c11,15.4,20.8,31.5,32.5,46.3c5,6.3,11,10,18.3,12.3
		C901.5,894.9,906.3,891.4,906.4,886z"/>
	<path class="st1" d="M1052,751.2c-24.6-7.4-49.4-13.9-73.5-22.7c-6.3-2.3-9.1,0.8-12,5.3c-1.4,2.2-1,3.1,1.3,4.2
		c18.8,8.5,37.5,17.3,56.5,25.6c6.6,2.9,13.2,6.2,21,6.9c3.1-0.5,6.6-1.4,9.4-3.6c2.8-2.2,3.9-5.7,3.3-9
		C1057.3,754.9,1055.7,752.3,1052,751.2z"/>
	<path class="st1" d="M991.4,826.1c-6.9-3.1-13.3-7.1-19.3-11.5c-14.3-10.5-28.2-21.4-42.4-32c-8-6-11-5.8-16.9,0.2
		c-2.5,2.6-3,4.1,0.5,6.9c16.6,13,32.9,26.4,49.2,39.7c7,5.7,14.6,9.3,23.7,9.6c0.6,0,1.3,0,1.9,0c4.2,0,7.7-1.2,8.7-6
		C998,828.3,994.5,827.4,991.4,826.1z"/>
	<path class="st1" d="M422.4,791.6c7.8-6.3,8-6.4-0.6-11.9c-1.5-1-2.9-4.4-6.3-1.7c-13,10-26.2,19.8-39.5,29.4
		c-10,7.3-18.8,16.5-31.6,19.4c-3.9,0.9-3.9,6.5-0.5,9.7c2.5,2.4,5.4,3,8.8,2.6c9.8-0.4,18-5.2,25.3-10.9
		C393,816.3,407.5,803.7,422.4,791.6z"/>
	<path class="st1" d="M298.7,769.3c10.4-2.9,20-7.8,29.8-12.3c13.2-6.1,26.3-12.3,39.5-18.4c2.2-1,6.5-0.7,4.4-4.8
		c-1.6-3.2-3.9-7.2-8.7-5.8c-25.2,7.6-50.3,15.3-75.4,23.1c-8.3,2.6-9.6,8.5-4,15.1c3,3.5,7.1,2.9,10.8,4.3
		C296.3,770.2,297.5,769.6,298.7,769.3z"/>
	<path class="st1" d="M1039.2,772c-17.4-5.1-32.9-14-49.1-21.5c-8.3-3.8-16.4-8.1-25.4-10.3c-5.4-1.3-7.6,2.9-9.5,6.4
		c-2.1,4,2.6,3.3,4.2,4.2c15.2,9.1,30.2,18.4,45.9,26.7c8.5,4.5,16.5,11,27,10.7c1.3,0,2.5,0,3.8,0c4.8-0.2,8.2-3.1,9-7.4
		C1045.9,776.7,1042.8,773,1039.2,772z"/>
	<path class="st1" d="M350.6,767.6c10.3-5.9,20.6-11.8,30.8-17.9c1.1-0.6,4.2-0.7,2.1-3.9c-4-5.9-7.4-7.2-13.9-4.4
		c-2.3,1-4.6,1.9-6.9,2.9c-21,9.1-41,20.5-62.8,27.6c-3.2,1-6,2.8-5.8,7.2c0.1,4.2,2,6.3,5.7,8c2.5,1.2,4.9,0.7,7.4,1
		c4.4,0.6,8.3-1,12-3C329.7,779.5,340.2,773.6,350.6,767.6z"/>
	<path class="st1" d="M504.7,835.7c-3-1.9-5.9-3.3-8.8,1.4c-5.4,8.9-11.6,17.3-17.6,25.7c-6.3,8.8-12.1,18-20.2,25.5
		c-3.2,3-2.7,6.7-1.1,10.4c1.4,3.1,4.2,3.8,7.9,4c8.1-1.6,14-7.4,18.7-14.3c9.5-13.9,16-29.6,24.8-43.9
		C511.9,838.7,507.6,837.5,504.7,835.7z"/>
	<path class="st1" d="M878.3,902.1c3.2-1.4,4.5-4.8,4.4-8.8c0.6-2.3-1.1-3.9-2.8-5.6c-2.9-3-6.2-5.8-8.6-9.2
		c-10-14.1-19.5-28.5-29.6-42.4c-3.9-5.4-7.3,0.7-10.8,1.7c-4.4,1.2-1.7,3.7-0.7,5.7c5.7,10.7,11.2,21.4,17.1,31.9
		c4.8,8.6,8.9,17.9,17.6,23.5C868.9,901.3,873.4,904.1,878.3,902.1z"/>
	<path class="st1" d="M832.2,920.4c4.2,0.5,6-3,7.9-5.5c1.5-1.9,1-4.6-0.8-7c-11-13.9-16.2-30.6-22.6-46.7
		c-5.1-12.8-4.6-12.7-17.2-7.5c-3.5,1.4-3.2,2.4-2.1,5.3c4.3,11.4,8,23.1,12.3,34.5c2.6,7,5.8,13.8,10.9,19.3
		C823.7,916.3,827.1,919.8,832.2,920.4z"/>
	<path class="st1" d="M533.6,850.5c-4-2-6.1-1.1-7.7,2.8c-2.5,6.3-5.3,12.6-7.9,18.9c-5.3,12.6-9.5,25.7-18.3,36.5
		c-0.7,0.9-2.2,1.5-1.1,3.1c0.3,6.9,6.4,10.5,12.2,7c5-3.1,9.4-6.8,12.3-12.2c7.1-13.4,11.2-28,16.5-42.1
		C543,855,542.6,855,533.6,850.5z"/>
	<path class="st1" d="M515.6,842.4c-4-1.7-4.6,1.7-5.7,3.9c-8.8,17-16.4,34.7-29.1,49.3c-4,4.6-3.9,7.5-0.8,12.3
		c3.7,5.8,8.3,3.9,11.9,1.7c3.3-2.1,6.6-4.8,9.2-8.2c9.4-12.6,12.9-27.8,19.4-41.6c1.5-3.1,3.8-6,3.9-10.8
		C523.7,844.6,519.3,843.9,515.6,842.4z"/>
	<path class="st1" d="M853.2,911.6c3.1-0.6,5.1-2.6,6.6-5.6c3.1-6.1-1.8-8.9-4.7-12.9c-10.3-14.2-17.3-30.3-25.7-45.5
		c-2.9-5.2-4.8-7-10.6-3.7c-4.9,2.8-5.9,5.3-3.1,9.9c0.9,1.6,1.5,3.4,2.2,5.1c6,13.9,10.5,28.5,19.1,41.1
		C840.9,905.7,845.7,910.4,853.2,911.6z"/>
	<path class="st1" d="M796.1,863c-0.9-2.4-1.7-5.5-5.3-5c-6.2-0.1-10.1,4.7-8.6,10.5c2.5,10,4.8,20.1,7.8,30
		c3,9.7,7.4,18.9,16.3,24.8c2.8,1.9,5.9,3.6,8.9,0.1c2.7-3,5.3-5.5,1.7-10.2c-5-6.4-7.9-14.1-10.6-21.7
		C803,882.1,799.7,872.5,796.1,863z"/>
	<path class="st1" d="M547.2,857.6c-4.2-1.5-3.2,2.5-4,4.4c-7.3,17.3-11.1,36.1-21.9,51.9c-2.1,3.1-1,6.3,1.7,8.9
		c2.9,2.9,5.9,3.1,8.8,0.6c3.2-2.9,6.9-5.2,9.4-9c4.4-6.7,7.2-13.9,9-21.7c2.2-9.3,4.9-18.4,7.3-27.3
		C556.8,858.7,551.3,859,547.2,857.6z"/>
	<path class="st1" d="M546,930c3.4,3.7,6.5,1.3,9.4-0.8c1.7-1.3,3.1-2.9,4.3-4.6c5.6-7.1,7.3-15.5,8.3-24.3c1.2-9.9,2.8-19.7,4.5-31
		c-0.1-3.5-4.4-3.6-7.5-4.7c-2.7-0.9-4.8,0.1-5.3,3.5c-0.4,2.8-1.6,5.5-2.4,8.3c-4,14.1-6.4,28.8-14.8,41.3
		C538.5,923.7,542.9,926.6,546,930z"/>
	<path class="st1" d="M754.9,758.6c6.4,4,19.8,0.4,23.2-6.4c3.1-6-1.1-19.4-7.2-21.7c-5.2-1.9-9.9-4.3-14.6-8.5c0,3-2.1,4.5-3,6.5
		c-1.6,3.3-5.9,5.8-3.2,10.6c2.5,4.4,3.2,9.4,3,14.5C753,755.4,752.9,757.3,754.9,758.6z"/>
	<path class="st1" d="M809.2,738c4.3,4,11.7,4.3,18.2,0.7c4.9-2.6,6.3-7.3,5.6-12.2c-1-6.4-3.2-13.2-9.8-15.4
		c-4.7-1.6-9.6-2.5-14-4.8c-1.3-0.7-2.5-1-2.7,0.9c-0.6,6.7-7.6,12.5-2.6,19.9C807.4,729.9,806.1,735.1,809.2,738z"/>
	<path class="st1" d="M803.9,727.2C803.9,727.2,803.9,727.2,803.9,727.2L803.9,727.2C803.9,727.2,803.9,727.2,803.9,727.2
		C803.9,727.2,803.9,727.2,803.9,727.2C803.9,727.2,803.9,727.2,803.9,727.2z"/>
	<path class="st1" d="M784.4,715c-1.9-1.6-2.7,0.1-3.5,2.4c-2.6,7.4-5.7,14.4-1.4,22.5c1,1.9,1.3,5.2,1.5,7.8
		c0.1,1.1,0.5,1.7,1.5,2.4c6.5,4.5,18.6,0.3,21.7-7c2.3-5.6-0.5-10.7-0.4-16c0,0,0,0,0,0C799.2,720.3,790.3,720.1,784.4,715z"/>
	<path class="st1" d="M803.9,727.2L803.9,727.2C803.9,727.1,803.9,727.2,803.9,727.2z"/>
	<path class="st1" d="M828.4,711.2c4.5,6.3,8.9,12.9,17.2,14.6c7.2,1.4,15.6-4.7,15.4-11c-0.3-9-6.4-15.4-16.5-16.7
		c-3.8-0.5-7.2-2-10.7-3.3c-1.1,3.7-2.2,7.4-3.4,11C829.9,707.6,826.8,708.9,828.4,711.2z"/>
	<path class="st1" d="M868.7,680.2c-7.9-2-11,0.7-11.9,9.7c-1.1,10.8,1.4,17.4,11.9,18.7c8,1,17.3-4.4,16.6-11.1
		c-0.6-6.3-3.2-11.5-7.5-16.4C874.4,677.1,871.7,681,868.7,680.2z"/>
	<path class="st1" d="M613.6,810.1c-1.9,1-2,3.2-1.4,5.1c1.1,4,2,8.1,3.8,11.8c1.9,4,4.1,8.7,9.2,9.3c5.9,0.7,8.1-4.5,10.1-8.6
		c2.3-4.7,7.5-10.6,2.5-15.1c-5.7-5.1-9.5-10.7-12.6-19C622.4,801.1,619.7,806.9,613.6,810.1z"/>
	<path class="st1" d="M722.9,808.4c-4.4-3.6-7.9-7.7-9.2-13.8c-3.1,6.9-5.7,13.7-12.8,17.3c-2,1-1.6,3.5-1.1,5.2
		c1.1,4.2,2.2,8.5,4.1,12.4c3.8,7.8,11.5,7.9,16.7,1c2.9-3.9,3.7-8.3,5.4-12.5C727.4,814.3,725.9,810.8,722.9,808.4z"/>
	<path class="st1" d="M613.1,864.4c-1.1,0.8-1.3,1.7-1.1,2.6c1.7,7.8,4.2,15.3,9.7,21.2c2,2.1,5,2.6,7.9,0c5.4-4.9,7.7-11.2,9.3-18
		c0.5-2-0.1-3.8-1.1-4.4c-6.6-3.5-9.3-9.8-12.4-16.4C622.7,855.9,618.6,860.7,613.1,864.4z"/>
	<path class="st1" d="M629,838.7c-1.5,1.1-1.9,2.1-1.8,3.5c0.6,7,2.4,13.5,8.1,18.2c2.8,2.3,5.6,2.7,8.9,0.4
		c6.4-4.7,9.4-11.3,10.9-18.7c0.2-1,0.3-2.5-0.8-2.8c-7.6-2.2-9.6-9.3-13.6-15.8C637.6,829.8,634.2,835,629,838.7z"/>
	<path class="st1" d="M887.1,689.9c0.9,0.4,2.1,0.4,3.1,0.4c8.2-0.3,15.3-7.6,15.4-15.7c0.1-7.5-7.5-14.1-14.9-13.6
		c-4.5,0.3-9.1,0.7-14.3-1c2.9,4.2,2.7,8.3,2.4,12.4C878.6,674.7,885,689,887.1,689.9z"/>
	<path class="st1" d="M704.6,859.2c2.7-2.6,4.9-6.2,6.1-9.8c1.1-3,1.9-8.1-0.3-9.6c-6.2-4.3-8.7-10.8-12.4-17.1
		c-3.2,6.6-5.2,13.5-12.4,16.5c-2.1,0.9-1.4,3-1.1,4.4c0.5,3,1.4,6,2.5,8.9C690.4,861.5,698.8,864.9,704.6,859.2z"/>
	<path class="st1" d="M718.9,885.6c4-5.1,5.3-11.1,7.2-17c0.5-1.5,0.8-3.7-1-4.6c-6.1-3-8.4-8.9-12.1-15.6
		c-2.3,7.9-5.7,13.7-12,17.2c-2.1,1.2-1.6,3-1.3,4.4c1.5,5.8,3.3,11.6,7.2,16.3C711.1,891.2,714.9,890.7,718.9,885.6z"/>
	<path class="st1" d="M688.9,833.7c5.5-5.3,7.3-12.4,8.2-19.7c0.2-1.6-0.4-2.6-2-3.4c-6.2-2.8-8.9-8.4-11.6-15.5
		c-3.3,6.8-5.8,12.8-10.9,17.2c-1.7,1.5-1.1,4.1-0.6,6c1.3,5.2,3,10.1,6.7,14.5C682.3,837.4,685.4,837.1,688.9,833.7z"/>
	<path class="st1" d="M632.4,782.2c-6,3.7-6.2,8.8-3.8,14.4c2.3,5.4,5,11.5,11.4,12.2c5.7,0.7,8.3-5.2,10.5-9.3
		c2.1-4,5.7-10.3,2.5-13.2c-5.1-4.6-8.3-10.3-12.3-15.9C638.3,774.9,636.5,779.6,632.4,782.2z"/>
	<path class="st1" d="M712.3,788.6c0.3-1.1,0.2-2.4-1.4-3.1c-6.4-3-9.5-9-13-15.4c-3.2,6.3-5.9,11.7-10.6,15.7c-2.4,2-2,4.7-1.5,7
		c1.1,5.1,3.6,9.7,7.3,13.5c3.2,3.2,6.5,3.9,10.2,0.4C708.7,801.8,710.7,795.3,712.3,788.6z"/>
	<path class="st1" d="M696.9,872c1-3.2,0.4-6.1-3.4-8.4c-4.9-3-9-7.3-9.9-13.9c-2.7,5.9-5.8,11.2-10.6,15.4c-1.3,1.1-1.5,2.6-1.2,4
		c1.2,6.8,3.2,13.3,7.6,18.8c2.5,3.1,5.1,4.2,8.7,0.4C692.6,883.6,695.1,877.9,696.9,872z"/>
	<path class="st1" d="M647.6,885.1c5.4,7,10.3,7,14.5-0.6c2-3.5,3.4-7.5,4.2-11.5c0.5-2.5,1.4-5.6-1-7.8c-4.3-4.1-6.8-9.3-9.6-14.6
		c-2.7,2.5-3.3,6-5.1,8.7c-2,2.9-5.2,4.1-8.1,5.8c-1.5,0.8-1.7,2.5-1.3,4C642.8,874.6,643.9,880.3,647.6,885.1z"/>
	<path class="st1" d="M620.9,752.5c-1.4,3.3-5,3.7-6.9,6.2c-0.5,0.7-1.4,1.2-1.6,1.9c-1.9,5.1,6.6,20.3,12.1,21.7
		c4.9,1.2,7-2.9,9.5-5.5c4.4-4.5,6.5-14.8,3.2-17.1c-5.5-3.7-8.6-8.8-11.5-15.2C623.8,747.7,622,750,620.9,752.5z"/>
	<path class="st1" d="M736,856.3c3.5-4.3,6.2-16.3,3.5-18c-5.9-3.8-8.4-10.1-12.6-15.9c-1.2,5.3-3.4,9.8-6.7,12.9
		c-6.7,6.1-4.5,12.5-1.5,18.7C722.8,862.6,730.2,863.4,736,856.3z"/>
	<path class="st1" d="M707.1,907.7c2.8-4.4,6.9-10.9,3.2-14.3c-5.5-5-8.2-11.3-12.5-17.8c-1.8,5.2-3.4,9.5-6.5,13
		c-7.2,8.1-6.7,7.8-2.4,18.4c2,5,5.6,7.2,9.5,7.8C702.6,915.5,705.1,910.9,707.1,907.7z"/>
	<path class="st1" d="M644.8,811.7c-2.4,2.3-3,4.8-2.2,7.4c1.8,6,4.3,11.7,9.3,15.9c1.7,1.5,3.1,1.4,5.1,0.4
		c8.8-4.2,12.3-18.7,6.2-26.1c-3.2-3.9-5.9-8.1-7.3-13.8C653,802.5,649.3,807.5,644.8,811.7z"/>
	<path class="st1" d="M721.1,727.3c3-4.3,4.3-9.6,4.9-14.6c0.4-3.7-4.1-5.5-6.4-8.1c-2.7-3-3.9-6.8-5.9-11.3
		c-1.7,3.7-2.7,6.7-4.4,9.2c-1.9,2.7-4.3,4.9-6.8,7.1c-1.9,1.7-2,3.8-1.5,5.8c1,3.6,2.1,7.2,3.7,10.5
		C709.5,735.4,715.3,735.8,721.1,727.3z"/>
	<path class="st1" d="M667.7,862.3c0.7,0.6,1.3,0.7,2.3,0.5c5.5-1.1,14.6-18.4,11-22.4c-5.2-5.7-7.7-12.7-11.8-20.4
		c-1.6,4.3-2.7,7.4-3.9,10.4c-1.3,3.2-3.8,5.5-6.2,7.8c-1,0.9-1.2,2.1-1.3,3.4C656.6,849.8,662.6,858.2,667.7,862.3z"/>
	<path class="st1" d="M614.1,709.1c-1,0.9-2.4,1.8-1.8,3.6c1.6,4.9,2.4,10.2,5.5,14.3c2.1,2.8,4.7,6.3,8.4,6c3.7-0.4,7.1-3.5,8.3-7
		c1.7-5.1,5.8-10.8,1.5-15.9c-4.1-4.9-7.7-10.1-11.5-17.2C623.3,700.9,618.8,705.1,614.1,709.1z"/>
	<path class="st1" d="M726.3,760.8c-0.2-0.9-0.4-1.4-1.3-1.9c-5.8-3.3-9.2-8.5-11.8-16.3c-1.4,5.9-3.3,10.2-6.4,12.9
		c-3.4,3.1-7,5.5-5.7,10.7c1.1,4.2,1.9,8.5,4.7,12c3.2,4,6.7,6,11.6,2.3C720.9,778,727.1,765,726.3,760.8z"/>
	<path class="st1" d="M645.2,913c4.6-3.9,7.4-8.9,7.6-16.3c0.1-1-0.6-2.7-2-4.5c-2.7-3.4-5.7-6.6-7.3-10.7c-1.6-3.8-3.1-3.8-5,0.1
		c-1.2,2.4-3,4.5-4.9,6.4c-6,6.4-6.7,11.6-2.5,19.5C635,915,640.2,917.2,645.2,913z"/>
	<path class="st1" d="M680.5,901.8c0.6-3.2,3.2-6.6-0.8-9.7c-5.5-4.3-7.5-10.8-10.4-18.5c-2.7,7.6-5.1,13.7-9.4,18.4
		c-2.4,2.6-2.3,5.3-2,8.2c0.6,6.4,6.7,14.7,10.9,15.1C673.5,915.7,678.8,909.9,680.5,901.8z"/>
	<path class="st1" d="M677.8,801.2c1.6-3.5,2.6-7.4,3.8-11.1c0.4-1.2,0.4-2.6-0.7-3.5c-5.9-4.8-8.1-11.8-11.2-19
		c-3.1,5.1-4.3,10.4-7.9,14.6c-5.7,6.5-5.2,15,0.8,21.5C669.3,811.1,673.6,810.5,677.8,801.2z"/>
	<path class="st1" d="M642.8,710.4c-2,1.3-1.9,2.9-1.4,4.3c1.6,4.3,3.1,8.7,5.8,12.4c1.9,2.6,4,7,8.1,6.2c6.2-1.3,8.5-7,10.5-12.3
		c1.4-3.7,2.5-8.2-0.8-11.2c-4.6-4.2-7.4-9.5-11-16.9C653,701.9,648.4,706.6,642.8,710.4z"/>
	<path class="st1" d="M695.7,710c-6.2-2.8-8.1-9.3-11.8-14c-4.1,5-5.4,12.3-12.1,15.3c-0.6,0.3-0.8,1.1-0.6,2.1
		c1.5,6.1,3.1,12.2,7.4,16.9c2.1,2.3,5.1,4.7,8.7,1.8c6.2-4.8,8.5-11.6,9.8-18.9C697.3,711.9,696.9,710.5,695.7,710z"/>
	<path class="st1" d="M678.2,937.3c2.4,2.8,4.7,4.5,9,1.7c6.9-4.6,7.7-11.9,9.8-18.7c0.6-1.8-0.9-3-2.6-3.8
		c-6.7-3.1-9.8-8.7-10.3-16.1c-3.8,6.1-4.4,13.9-11.4,17.6c-1.9,1-1.3,3.2-0.9,4.6C673.4,927.7,674.7,933,678.2,937.3z"/>
	<path class="st1" d="M691.6,777c2.1-3,3.1-6.8,4.1-10.4c1.1-3.7,0.4-6.9-3.2-9.3c-4.5-3.1-7.8-7.2-8.5-13.7
		c-3.1,6.1-5.8,11.8-10.8,15.8c-1.6,1.2-1.7,3-1.2,4.6c1.1,4,2.1,8,3.7,11.8c1.5,3.4,3.9,6.5,7.9,7
		C687.5,783.4,689.7,779.7,691.6,777z"/>
	<path class="st1" d="M708.1,748.7c2.6-3.8,5.1-9.3,2.2-12c-5.1-5-8.5-10.9-12.3-17.2c-2.4,5.7-3.7,11.3-8.5,14.7
		c-4.4,3.2-4.2,7-2.5,11.6c2.1,5.8,6.2,10.2,11.8,11C703.1,757.4,705.6,752.4,708.1,748.7z"/>
	<path class="st1" d="M662.9,682c-7.7,6.9-7.9,7.9-3.9,17.2c3.4,8,10.5,11.2,15.3,6.6c4.3-4,7.1-9.2,7.5-15.4c0.1-1.9,0.1-3.9-1.8-5
		c-5-2.7-7.5-7.5-10.5-13.4C667.4,676,665.8,679.4,662.9,682z"/>
	<path class="st1" d="M644,917.4c-4.5,3.2-1.3,9.1,0.5,12.7c2.1,4.3,4.9,10.4,10.8,10.2c5.1-0.2,8.3-5.2,9.3-10
		c0.9-4.3,5-8.7-0.5-13.6c-3.8-3.4-7-8.1-8-13.7C651.6,907.6,649.4,913.6,644,917.4z"/>
	<path class="st1" d="M639,722.8c-2.5,5.9-6.5,10.5-11.6,14.3c-0.3,0.3-0.4,1.3-0.2,1.8c1.7,4.8,2.2,10.2,6.1,14.1
		c4.2,4.3,8.8,4.7,13.1,0.7c3.9-3.7,6-8.3,6.2-14c0-0.6,0.3-1.7-0.2-2.2c-4-4.7-8-9.4-11.3-14.7C640.7,722.2,639.5,721.7,639,722.8z
		"/>
	<path class="st1" d="M644.6,758.8c-1.5,0.8-2.6,2.4-2.1,4.3c2,6.5,3.4,13.4,8.9,18.2c1.6,1.4,3.2,2.2,5.1,1.6
		c6.7-1.9,13.2-19.4,8.5-24.1c-3.8-3.8-6.6-8.2-10.2-13.2C652.8,751.5,649.7,756,644.6,758.8z"/>
	<path class="st1" d="M669.6,718.3c-3.8,5.2-4.4,11.6-9.1,15.9c-5.2,4.6-3.3,14.1,3.4,20.2c5.3,4.8,7.2,4.7,13-3.2
		c3-4.1,7.8-10.4,3.9-14.4C675.5,731.4,672.3,725.5,669.6,718.3z"/>
	<path class="st1" d="M707,682.9c-4.5-1.9-4.2-8.5-9.3-10c-0.8,5-4.5,8.5-7.7,11.7c-2.3,2.2-3.3,4-3,6.4c0,9.4,6.9,17.7,13.3,15.7
		c6.2-1.9,8.9-7.5,10.4-13.3C711.7,689.4,712.2,685.1,707,682.9z"/>
	<path class="st1" d="M632.6,681.8c-5.3,3.1-6.2,7.3-4.2,13c2.3,6.5,7.9,13.3,12.1,12.9c6.6-0.6,7.9-6.7,10.3-11.3
		c1.1-2.2,0.2-4.9,1.6-7.3c0.8-1.4-0.3-3-1.7-3.7c-5.2-2.7-7-8-10.4-12.6C637.6,676,636.1,679.8,632.6,681.8z"/>
	<path class="st1" d="M704.4,960.7c6-4.8,9.4-15.2,5.2-18c-5.6-3.7-7.5-9.7-11.4-15.7c-2.1,6.8-5,11.7-9.6,15
		c-3.7,2.6-3.3,5.5-2.2,8.7c1.1,2.9,2.8,5.5,5,7.9C695.1,962.6,700.6,963.8,704.4,960.7z"/>
	<path class="st1" d="M629.3,942.8c-1.2,1-2,1.6-2.2,3.3c-0.7,6.7,6.3,16.7,12.1,17.1c6.1,0.4,13.5-8.2,13.4-16.6
		c0-0.3,0.3-2-0.4-2.7c-4.2-4-8-8.2-10.7-13.4c-0.8-1.6-2.1-1.5-2.9,0.8C636.9,936.1,633.2,939.5,629.3,942.8z"/>
	<path class="st1" d="M675.5,960.1c2.5-3.9,4.6-7.9,6-12.3c0.5-1.4,0.9-3.5-0.3-4.1c-6.8-3.5-7.9-10.8-11.6-16.9
		c-2.6,4.4-4.5,8.9-7.5,12.5c-5.8,7.2-5.1,17.6,2.5,22.7C668.5,964.5,672.4,964.8,675.5,960.1z"/>
	<path class="st1" d="M836.8,673c-1.8-0.6-2.8-0.9-3.8,1.5c-5.2,13.1-1.6,19.3,12.9,20.8c6,0.7,8.2-0.9,10-9.5
		c0.9-4.5-0.9-8.6-5.3-9.2C845.8,676,841.3,674.5,836.8,673z"/>
	<path class="st1" d="M696.8,664.5c-1.7-4.9-7-1.2-10.5-2.2c-0.8-0.2-1.7,0-2.5,0c-14.6,0.2-17.1-3.5-9.5,13.6c2.1,4.7,5.8,8,11,7.4
		C690.9,682.6,698.8,670,696.8,664.5z"/>
	<path class="st1" d="M664.9,662.3c-7,0-14,0-21,0c-1.3,0-2.3,0.2-2.7,1.9c-1.7,6.4,7.7,18.6,14.3,18.4c6.3-0.2,14.5-12.7,12.4-18.7
		C667.2,662.3,666.1,662.3,664.9,662.3z"/>
	<path class="st1" d="M821.3,708.1c5.5,0.7,8.5-2.6,9.2-11.4c0.4-4.4-10.8-12.3-17.3-12.6c-0.7,0-7.4,12.7-7.3,13.9
		C806.1,702.8,814.3,708.2,821.3,708.1z"/>
	<path class="st1" d="M762.9,723.9c2.8,2.4,5.4,5.2,9.6,3.6c4.8-1.9,8.7-15.7,5.6-19.7c-0.3-0.4-1-0.8-1.6-0.8
		c-5.6-0.4-9.8-4-14.4-7.4c-0.7,3.8,0.3,7.4-1.8,10.6C755.7,717.3,755.9,718,762.9,723.9z"/>
	<path class="st1" d="M796.4,718.1c3.9-0.6,8.8-8.1,8.7-13.2c0.2-3-1.5-4.6-4-5.7c-1.9-0.8-4-1.3-5.7-2.5c-5-3.5-9.4-6.2-10.7,3.1
		c-0.2,1.5-1.9,2.7-2.5,4.2c-0.5,1.2-1.6,2.1-0.9,4C783.1,712,792.6,718.8,796.4,718.1z"/>
	<path class="st1" d="M902.8,616.7c-3.9,0.9-9.8,2.4-10.8,5.2c-1.8,4.8-2.7,12.4,0,15.7c3.9,4.9,10.8,0.6,16.2-1
		c3.4-1,3.9-4.5,3.8-7.8C912,621.4,907.9,615.5,902.8,616.7z"/>
	<path class="st1" d="M683.6,980.9c4.2-0.5,6.8-4.1,9.2-7.4c3.2-4.3,3.3-8-1.6-11.5c-3.5-2.6-6-6.3-7.8-11.8
		c-2.5,6.9-5.5,12-10,16.1c-0.6,0.5-1.2,1.3-1.1,2C672.4,971.5,680.6,981.3,683.6,980.9z"/>
	<path class="st1" d="M652.5,979.9c4.6,1,7.9-1.5,10.4-5.2c1.8-2.6,5.2-6,2.6-8.6c-4.2-4.1-7.1-9-10.4-14.9c-2.7,5.6-5.5,9.7-9.1,13
		c-0.9,0.8-2.1,1.1-2.2,2.7C643.5,970,649.3,979.2,652.5,979.9z"/>
	<path class="st1" d="M853.3,674.7c1.7,2.6,6.1,1.8,8.9,3.1c2.9,1.4,5.2,0,7.7-0.2c7.3-0.4,6.5-5.7,6.4-10.5
		c-0.1-4.8-2.7-7.2-7.4-7.4c-4.3-0.2-8.7,0.7-13.7-1.2c1,2.9,0.9,5,0.5,7.3C855,669,851.3,671.9,853.3,674.7z"/>
	<path class="st1" d="M845.8,1116c0.2,0,4.2,10,4.2,10s1.5,4.6,2.4,6.8c1.1,2.8,2.6,5.7,6.8,3.9c4.1-1.7,3.5-4.2,2.1-7.6l-9-28.2
		c-2.1-3.4-5.1-3.5-8.2-2.3c-3.3,1.3-3,4-1.9,6.8L845.8,1116z M855.9,1112.6"/>
	<path class="st1" d="M849.7,1126.3C849.7,1126.3,849.7,1126.3,849.7,1126.3c0-0.1-0.1-0.1-0.1-0.1L849.7,1126.3z"/>
	<path class="st1" d="M915.8,648.8c-0.1-8.7-3-10.8-11.4-8.2c-1.6,0.5-3.2,1.3-4.8,1.3c-2.8,0-3.4,1.6-2.9,3.7
		c0.8,3.5,1.3,6.7,0.1,10.3c-0.8,2.3,1.3,3.9,3.2,4.9c2.6,1.5,5.3,2.5,8.3,0.7C913.1,658.7,915.8,654.5,915.8,648.8z"/>
	<path class="st1" d="M893.4,595c-2.1-0.3-3,0.8-3.7,2.5c-2.9,7.1-5.8,14.1-8.8,21.3c6.1,1.1,11.5-0.1,17-2.7c4.4-2,6.3-5.6,6.2-9.9
		C904,602.1,897,595.4,893.4,595z"/>
	<path class="st1" d="M882,659.6c7,1.1,13.5-3.9,13.4-10.3c-0.2-7-3.5-9.6-11.1-8.6c-3.3,0.4-7.8-1.5-9.6,0.9
		c-1.5,1.9,0.8,6.4,0.2,9.4C873.7,657.2,877.1,658.8,882,659.6z"/>
	<path class="st1" d="M775.2,685.5c-2.9,1-5.7,2.6-8.7,3.3c-2.1,0.5-5,0.7-5.3,2.4c-0.5,2.3,1.4,4.7,3.1,6.5
		c1.2,1.4,2.8,2.6,4.4,3.5c3.3,1.6,6.7,4.7,10.5,2.6c4-2.3,5.3-6.8,5.7-9.7C784.9,685.2,782.1,683.1,775.2,685.5z"/>
	<path class="st1" d="M819.9,667.8c-2.5,1.4-5.1,1.6-7.4,3c-2,1.3-5.5,1.3-5.7,4.2c-0.2,2.5,2.7,3.3,4.7,4.6c1.9,1.2,3.6,2.9,5.6,4
		c8.1,4.2,13.5,0.8,13.5-8.4C830.6,666.4,827.1,663.8,819.9,667.8z"/>
	<path class="st1" d="M798.9,676.8c-5,2.1-9.9,4.2-15,6.4c2.8,4.5,6.7,7.8,11.3,10.4c3.6,2.1,7.4,3.4,10.6-0.9
		c3-4,2.5-11.4-0.6-14.5C803.3,676.3,801.3,675.8,798.9,676.8z"/>
	<path class="st1" d="M862.9,639.8c-4.3,3.5-8.4,7.3-12.6,11c-1.6,1.4-2.2,2.8,0.3,3.6c4.5,1.4,8.9,3.2,13.8,3.2
		c5.7,0.9,8.5-3.3,8.8-7.5c0.3-4.3-1.5-8.9-6.4-11.1C865,638.3,863.8,639.1,862.9,639.8z"/>
	<path class="st1" d="M867.7,636c6.7,3.2,13,5.4,19.3,0c4.6-3.9,2.7-7.6,0.3-11.7c-2.5-4.3-7.2-3.6-9.1-1.8
		C874,626.2,871.1,631.4,867.7,636z"/>
	<path class="st1" d="M602.1,586.3c-5.7-0.1-10.5,2.9-14.1,7.9c6.8,0,12.8,2.7,19.1,3.5c1.1,0.1,2.2,1.9,3.2,0.2
		c0.7-1.1-0.1-2.3-0.7-3.5C607.9,590.9,606.6,586.3,602.1,586.3z"/>
	<path class="st1" d="M631,585.5c-0.1-4.3-2.4-5.9-6.3-5.8c-4.4-0.1-7.4,2.3-7.5,6c-0.1,4.3,4.3,5.2,7.6,5.2
		C627.9,591,631.1,589.8,631,585.5z"/>
	<path class="st1" d="M620.2,955.5c0.4-0.9,1-1.7,2-2.2c2.3-8.1,0.5-12.3-6.4-15C614,943.4,616.1,951.3,620.2,955.5z"/>
	<path class="st1" d="M615.8,938.1C615.8,938.1,615.7,938.2,615.8,938.1c-0.1,0.1-0.1,0.1,0,0.1
		C615.8,938.2,615.8,938.2,615.8,938.1z"/>
	<path class="st1" d="M864,1093l3.6,13.1c2.6,6.6,3.3,13.8,6.7,20c1.3,2.3,3,5.6,6.1,2.9c6.9-5.9,15.7-7.4,23.6-10.9
		c2.4-1.1,5.8-2.7,6.2-4.6c0.8-3.4,2-7.7-1-10.8c-3.2-3.3-7.1-4.1-11.5-2.2c-3.4,1.5-6.9,2.9-10.4,4.3c-3,1.3-6.1,2.5-9.4,0.6
		c10.6-11.4,15.9-24.4,12.5-40c-0.5-2.4,0.2-4.1,3.1-5.3c7.4-3.2,11.1-15.4,6.3-21.3c-3.8-4.6-7.9-9.5-13-12.5
		c-7.1-4.3-11.7-8.1-9.5-17.8c2.2-9.4,3.2-19.2,4.9-28.8c0.8-4.4,2.9-4.5,6-3.3c4.8,1.9,9.5,4.3,14.4,6.1
		c11.7,4.1,11.3,3.9,13.4-8.7c0.8-5-0.8-5.6-4.9-6.5c-7.1-1.6-14.3-0.9-21.4-1.1c-4.6-0.1-4.5-2.3-2.4-5.1c3.3-4.5,7-8.8,10.5-13.2
		c6.5-8.1,10-17.1,7.1-27.4c-2.3-8.4-14.9-18.3-28.5-14.1c-11.4,3.5-18.9,15.8-16.2,27.3c1.6,6.9,3.3,13.7,5.2,20.5
		c0.6,2.1,1.6,4.5,0.2,6c-1.5,1.7-3.9-0.3-5.7-0.7c-4.2-1.1-8.1-3.3-12.2-4.8c-13.1-4.6-13-4.5-14.8,9.1c-0.5,3.6,0.2,4.1,3.7,5
		c7.6,2.1,15.4,0.1,23.1,2c4,0.9,4.6,2.7,3.7,5.5c-3.6,11.1-6,22.4-9.1,33.6c-0.7,2.5-1.9,4-5.7,4.1c-7,0.2-14.2-0.2-21,2.7
		c-1.8,0.8-4.3,0.5-6.6-0.9c-7.5-4.5-13.5-10.5-17.6-18c-9.6-17.5-17.8-35.8-25.9-54c-1.6-3.7-2.4-7.5,0.6-11.2
		c1.4-1.7,1.4-3.8-0.1-5.7c-4.4-5.5-6.3-12.2-8-18.8c-2.8-10.7-3.8-21.6-3.7-32.6c1.2,9.3,2.5,18.6,4.7,27.7
		c2.3,9.4,4.2,19.1,12.6,25.6c3.9,3.1,6.7,3,10.3-0.4c3.7-3.5,5.1-6.9,2.2-11.6c-6.6-10.8-10.1-22.7-12.7-34.9c-1.3-6-2-13.4-6.5-17
		c-3.6-3-9.1,2.4-13.8,3.9c-0.2,0.1-0.4,0.2-0.6,0.3c-1.6,0.2-3.6,1.2-4.3-1c-0.8-2.7,1.7-2.3,3.1-2.8c14.2-4.9,27.9-10.7,41.5-17
		c34.9-16.2,66.8-37.4,97.8-60c25.3-18.4,48.9-38.6,68.8-63.2c16.6-20.5,29.9-42.4,37.8-67.6c5.1-16.1,8.5-32.5,10.4-49.3
		c2.6-22.7-0.5-44-10.1-64.6c-8.6-18.4-21.6-33.3-36.6-46.3c-12.5-10.8-26.3-19.6-42.9-23.3c-4.9-1.1-6.1,0.6-5.9,4.6
		c0.2,7.7-2,15-4.5,21.9c-8.9,24.4-19,48.4-30.3,71.9c-12.4,25.9-31.8,45.3-53.5,62.5c-22,17.4-47.2,29.8-74.5,36.6
		c-12.2,3-26.3,8.2-36.6-5.4c-1.2,3.7,1.4,7.9-1.5,11.4c0,0,0,0,0,0c-0.5,1.4-0.7,2.9-1.4,4.1c-4.5,7.7-3.8,15.2,2.3,21.7
		c1.7,1.8,3.2,4.3,6.3,3.4c2.8-0.8,2.9-3.9,3.9-6c0.7-1.6,0.3-3.6-0.3-5.5c-0.9-2.8-1.4-5.8,1-9.6c0.3,6,1.7,7.8,7.6,6.7
		c16.2-2.8,31.7-7.9,47-13.6c14.8-5.6,29.4-11.9,44.2-18.8c-3.5,4.3-0.7,6.6,2,8.7c2.5,1.9,5.2,3.3,8.4,4c3.8,0.9,6.8,1.4,9-3.2
		c1.8-4,4.2-8.7,1.2-11.6c-2.3-2.3-7.3-5.3-11.7-0.8c-1.2,1.3-3.5,3-7.7,1.6c14.7-8.7,27.3-18.5,37.5-30.8
		c10.3-12.4,17.4-26.6,18.8-43.4c16.5,10.6,27.8,36.6,28.9,56.2c1.5,26.5-11.1,47.8-29.8,64.2c-19.5,17.1-42.5,29.7-66.5,40.2
		c-22.2,9.6-45.6,15.5-68.6,22.4c-3.8,1.1-8,4.5-13.1,1.9c13.1-9.3,14.8-20.5,2.4-35.5c4,0.2,5.9-2.4,7.8-4.8
		c2.7-3.2,3.1-7.3,2.6-11.3c-0.4-3.6-4.1-2.9-6.3-4c-4.5-2.2-8.7-4.6-10.2-11c2,1.5,3.2,2,4.4,3.4c3.1,3.6,6.9,7,12.4,4.9
		c5.4-2.1,6.4-6.6,6.2-11.8c-0.3-6.6-2-7.9-8.4-6.5c-2.6,0.6-5.6,0.4-7.9,1.5c-2.2,1.1-4.9,0.1-6.7,2.5c-6.6,8.8-6.7,22.4,0.2,31
		c1.2,1.6,2.6,3.1,1.9,5.6c-7.1-2.5-6.4-10.2-10.1-14.5c-2.9,4.6-5.5,9-8.4,13.4c-5,7.5-3.4,17,3.9,22.1c3.6,2.5,6.4,2.4,9.5-1.5
		c2.1-2.7,1.5-7.1,5.2-8.7c1.9,5-1.4,8.3-3.7,11.5c-6.1,8.4-5.6,16.3,2.2,23.5c1,0.9,2.7,1.7,1.1,3.8c-5.4-2.4-7.3-7.6-10.1-13
		c-4.1,5.5-6.3,11.9-11.5,16.1c-0.6,0.5-0.3,2-0.4,3.1c-0.4,5.9,2.4,10.5,6.1,14.5c4.5,4.9,6.8,4.9,11.6,0.4
		c2.5-2.3,4.1-5.1,6.1-8.2c-0.1,5.9-0.1,5.9-4.4,10.2c-6.6,6.7-7.4,16.3-1.5,23.8c1.8,2.2,4.4,6.4,8-0.1c2.2,13.2,7.8,24.1,11,35.9
		c3.4,12.5,5.1,25.2,6.6,38.1c1.6,13.8,6.2,26.8,12.7,39.4c8.4,16.2,14.6,33.5,23.2,49.7c4.2,7.9,9.3,14.8,15.9,20.6
		c5.9,5.2,11.9,8.5,21.1,6.3c19.3-4.7,38-1.4,53.9,11.2c12.4,9.7,14.2,13,8.4,22.5c-5.9-5-11.2-11-17.8-14.8
		c-19.5-11.2-40.2-8.4-60.8-3.7c-0.7,0.2-1.6,0.9-1.9,1.6c-3.4,10.4-12.7,17-17.2,26.9c-2.6,5.8-5.5,11-4.9,17.6
		c0.2,2.6,0,5.3,0,7.9c-3.1,0.3-4.1-1.7-5.2-3c-5.9-7.1-3.6-33.3,3.8-38.8c3.9-2.9,7.2-6.4,10.7-9.7c4-3.9,5.1-10.5,1.8-14.8
		c-8.4-10.9-14.8-23.3-24.7-33c-4-4-8.3-4.5-12.4-0.7c-4.2,4-6.7,9-8.3,14.5c-1.7,5.8-3.6,11.6-6.7,16.8c-3.3,5.6-8.1,6.1-10.8,1.2
		c-8.7-15.3-17.1-30.8-25.7-46.2c-1-1.9-2.1-3.9-0.9-5.9c2.9-4.9,3.6-10.6,5.3-15.9c4.6-13.9,9.6-27.8,13.2-42
		c4.5-18,4.8-36.6,6.6-55.4c-2.3,1.7-3.6,4.6-5.9,5.8c-5,2.6-4.6,5.9-3.2,10.4c1.3,4.3,3.9,8.4,3.8,13.7c-3.3-2.9-4.5-6.4-6.4-11
		c-2.6,7.5-5.8,13.2-10.5,17.9c-1.3,1.3-0.9,2.8-0.8,4.1c0.6,8.3,4.2,14.7,12.4,18.2c-6.3,2.1-10.2-1.6-14.6-13.9
		c-3.4,6.5-5.5,13.3-11.9,17c-0.5,0.3-0.9,0.8-1.1,1.3c-1.7,4.3,3.3,14.9,8.7,19.6c5.5,4.7,8.4-0.7,12.9-2.4
		c-3.9,4.4-8.2,8.6-6.5,15.2c0,0.2-0.5,0.7-0.5,0.7c-5.1-3.6-3.5,2.4-4.2,3.5c-2.3,3.9-4.6,7.6-8.9,9.3c-3.1,1.3-2.4,2.9-1.4,5.2
		c1.5,3.7,5.9,5.8,5.9,10.9c-4.1-3.8-8.2-6.9-9.1-13.4c-3.1,9.3-7,16-17.5,14.8c-3.4-0.4-2.4,3.1-2.1,4.8
		c2.6,15.9,0.7,31.9,2.2,47.9c1.6,17.6,0.8,35.4,1.2,53.1c0.6,25.5,1.3,51.1,1.7,76.7c0.1,10.3,7.2,15.8,16.1,13.1
		c5.9-1.8,10-14.5,9.2-20c-2.6-17-3.1-34.1-5-51.2c-1-9.4-1.7-18.7-2.7-28.1c-1.6-15.4-3.1-30.7-5-46.1c-1.3-10.3-1.1-20.8-3.4-31.1
		c-1.3-5.6-1-11.5-1.4-17.3c0.6-0.1,1.1-0.1,1.7-0.2c1.1,8.8,2.4,17.5,3.2,26.3c0.9,9.4,2.3,18.7,3,28.1c1,14.3,3.2,28.6,4.7,42.9
		c1.1,10.8,1.4,21.8,2.8,32.6c2.1,16.4,3.6,32.8,4.9,49.3c0.5,6.4,4.1,11.2,10.6,12c5.9,0.8,9.5-2.8,11.7-7.7
		c2.9-6.2,2.6-12.9,1.5-19.2c-2.2-12.7-3.6-25.5-5.8-38.3c-3.5-20.7-7.5-41.3-11.1-62c-3.5-19.9-7.2-39.7-10.7-59.5
		c-0.4-2,0-4.1,1-6.1c0.7-1.5,0.5-3.7,2.6-3.8c2-0.1,2.4,2.2,3.1,3.5c3.3,5.5,6,11.4,9.4,16.8c5.5,8.8,8.6,19,15.4,27
		c3.9,4.6,10.2,5,13.7,0.3c1.8-2.4,3.5-5.1,4.5-8.1c2.6-7.4,5.4-14.9,8.9-21.9c3.2-6.5,6.6-6.8,11.6-1.7c8.6,8.9,14.6,19.7,22,29.6
		c3.9,5.3,1.6,9.9-3.2,12.6c-10.2,5.6-15.1,14.6-16,25.3c-0.9,10.4-4.2,23.2,7.9,28.9c10.2,4.9,17.7,12.3,25.3,19.9
		c5.9,5.8,14.1,7.2,21.5,11.4c-6.5,3.8-13.2,4.4-19.4,6.8c-5,1.9-6.7,7.3-4.3,12.5c2.7,6,5.5,6.9,11.5,4.8c6.8-2.4,13.3-5.8,21-5.4
		c7.2,0.4,8.2-1.7,6.5-8.9c-0.5-2-2.2-6.4-2.2-6.4l-3-8c0,0.2-1-3.2-1-3c-1-3-1.4-2.6-1.8-5.4c-1-6.1-4.3-8.7-10-9.7
		c-10.2-1.7-15.5-9.2-17.5-18.1c-4.4-19.5,9.1-36.9,26.8-37.5c2.7-0.2,5.5,0.1,8.2,0.9c14.8,3.6,24.1,17.6,22.6,32.3
		C871.4,1085.6,864,1093,864,1093 M863.2,1129.7c1.3,4.1,3.1,3.7,6.1,3.1c5.8-1.1,3.2-5.2,2.4-7.8L863,1097c0,0-1-3-5-2s-3,5-3,5
		L863.2,1129.7z M762.2,850.2c-6-7.3-8.1-16.6-10.9-25.5c-3.5-11-7.5-21.8-10.8-32.9c4.7,3.9,5.5,9.6,7.3,14.8
		c3.3,9.6,6,19.4,9.2,29.1c1.8,5.6,4.6,10.7,8.9,14.8c2.1,2,4.6,3.1,7.3,3.3c3,0.2,6.3,0.2,8.3-2.8c1.9-2.9,1.1-6-0.8-8.2
		c-9.2-10.8-11.7-24.6-17.4-37c-3.9-8.5-5.2-17.9-9.6-26.3c-1.6-3.1-2.6-4.2-5.9-2.8c-2.3,1-4.8,1-8.5-0.7c9-2.7,16.9-5.2,24.9-7.6
		c26.3-7.7,52.8-15.1,77.1-28.3c17.2-9.3,34.5-18.9,49.2-31.8c15-13.2,26.5-29.9,29.9-49.9c2.9-16.8,0.2-33.9-8.6-49.3
		c-3.1-5.4-6-11-10.9-15.1c-2.7-2.3-1.5-4.6-0.3-6.7c4.6-7.7,9-15.5,13.1-23.4c8.5-16.1,15.3-32.3,17.6-50.8
		c1.2-9.7-2.4-17.5-4.5-26c-1.4-5.8-0.4-7.3,5.5-5.9c11.4,2.7,21.1,9,30.2,15.9c18.1,13.7,32.8,30.6,42.7,51.3
		c6.6,13.9,9.4,28.6,9.8,44.2c0.9,34.5-8.5,66.4-23.3,96.9c-4.6,9.5-10.9,18.2-17.2,26.7c-7.7,10.3-15.8,20.2-25.1,29.2
		c-17.9,17.2-37.5,32.4-57.6,46.9c-23.4,16.9-47.7,32.6-73.5,45.4c-19.4,9.6-38.9,19.8-61,24.7c0.7-2.9,3.3-2.7,4.4-4.2
		C763.5,855.6,765.2,853.8,762.2,850.2z M878.2,1103.8c-2.6-7-4.9-11.9-3.1-18.1c3.9-13.4,1.6-26.2-8.4-36
		c-9.3-9.2-21.5-12.3-34.2-8c-15.9,5.4-30.2,24.6-20.3,47c2.9,6.5,6.6,12,13.3,15.2c5.1,2.4,5.8,8,7.3,12.6c1,2.9-1.4,3-3.5,2
		c-15-7-25.5-17.9-29.3-34.4c-3-12.9,3.5-22.7,10.7-32.3c0.8-1,2.2-1.6,2.6-2.7c2.8-7.6,8.9-9.1,16.2-10.6c7.1-1.5,13.8-2.8,20.9-1
		c3.4,0.9,7.1,0.8,10.5,1.1c13.3,1.3,19.3,9.8,23.1,21.2C889.1,1074.8,886.6,1088.7,878.2,1103.8z M890.1,1056.7
		c-0.1,0.3-0.9,0.5-1.4,0.7c-0.5-1.5-1-3-1.7-4.9C889.8,1053.2,890.6,1054.6,890.1,1056.7z M879.7,955.5c-0.7,1.1-1.5,2.9-3.3,2.1
		c-1.3-0.5-1.4-2-1.3-3.3c0.7-5.5-2.4-10.7-1.1-16.2c-0.9-4.5,0.3-8.8,1.3-13.1c1.2-5.3,5.6-7.8,11-5.9c4.6,1.7,6.3,5.8,5.1,10.3
		C888.8,938.7,884.9,947.5,879.7,955.5z M862,1094.5"/>
	<path class="st1" d="M721.3,677.5C721.3,677.5,721.3,677.5,721.3,677.5L721.3,677.5z"/>
	<path class="st1" d="M634.5,975.5c6.3-2.8,5.4-7.5-0.3-11.9c-3.1-2.4-6.1-4.8-7-8.9c-0.7-3.2-2.6-3.5-5-1.3
		c-0.1,1.1-0.3,2.2-1.5,2.7c-0.2-0.2-0.3-0.3-0.5-0.5c-0.1,0.3-0.2,0.6-0.3,0.9c-0.4,1.9-0.2,3.9,0.5,5.6c3.8,8.1,1,15-3.1,22.1
		c-5.5,9.5-11.2,18.9-16.1,28.9c-1.8,3.7-3.3,8.8-8.2,8.8c-5.1-0.1-5.7-5.7-7.4-9.3c-3-6.5-4.7-13.6-8.3-19.9
		c-5.2-9.1-13-10.1-19.8-2.3c-8.1,9.3-15.1,19.4-21.9,29.6c-6.1,9.2-5.8,15.6,3.2,21.9c13.5,9.5,15,22.7,14.1,37.1
		c-0.2,2.5-0.8,4.8-3.9,6.3c-0.5-4.9,0.3-9.4-1.5-13.6c-1.7-4.2-5.1-7.5-6.6-11.5c-2.9-7.8-9.2-13.1-13.3-20
		c-2.7-4.4-5.8-7-10.9-7.6c-2.3-0.3-4.6-0.7-6.9-1.2c-21.1-4.3-40.8-2.4-57.5,13c-2.5,2.3-5.3,4.4-8,7c-1.5-4.3-1.5-7.8,1.2-10.8
		c3.8-4.3,7.6-8.6,12.6-11.5c16-9.3,33-11.3,50.8-6.9c3.2,0.8,6.1,1.4,9.2-0.4c9.3-5.4,17.2-12.1,22.7-21.6
		c9.8-16.7,16.7-34.7,25.2-52c8.9-18.1,14.5-36.8,16.3-57c1.1-12,3.1-24,8.3-35.1c3-6.4,5.5-12.8,5.3-20c0-0.3,0.1-0.2,0.5,0.3
		c0.1,0.2,0.3,0.3,0.5,0.4c0.3-0.1,0.5-0.1,0.8-0.1l0.1-0.1c0,0,0,0,0,0c3.4-2.1,5.5-5.5,7.8-8.6c4-5.5,3-15-1.5-20.1
		c-2.9-3.2-5.9-6.5-5.5-11.5c1,3.2,4,4.8,5.9,7.3c1.4,1.9,3.7,4.1,6.8,3.6c7.4-1.1,14.4-17.1,9.2-22.5c-4-4.2-6.3-9.2-9.6-14.2
		c-3.5,5.1-4.6,11.7-11.6,13c0.2-2.1,1.9-2.8,3-4.1c7.4-8.4,7.5-16.3,0.7-25c-3.4-4.3-4.5-9.4-3.4-15.8c0.9,3,1.6,5.2,2.3,7.3
		c1.4,4.5,3.1,9.9,9,9.8c4.7-0.1,7.7-4.2,9.5-8.1c1.9-4.1,3.7-9.4,0.3-13.1c-4.3-4.5-7.3-9.6-10.3-15.7c-2.9,4.8-3.1,10.5-8.3,12.8
		c-0.5-1-0.7-2,0-3c5.9-7.8,7.4-15.5,2.8-25c-2.2-4.7-1.9-11.2,1.5-17.7c0.9,6.2-2,11.2,0.3,16.2c1.2,2.7,2.4,5.2,5.8,4.2
		c5.9-1.8,12.2-15.6,9-20.8c-3.4-5.5-6.3-10.9-6-18.6c-5.1,5.7-10.4,8.6-16.9,7.9c-10.8-1.1-21.3-3.4-31.5-7.2
		c-18.1-6.8-35.7-14.5-51.8-25.7c-19.6-13.6-37.4-29.1-50.9-48.8c-12.5-18.3-21.6-38.4-30.6-58.6c-7-15.8-12.2-32.2-16.4-48.9
		c-1-4,0.2-9.4-2.9-11.6c-3.3-2.4-7.5,1.3-11.3,2.4c-1.6,0.4-3.2,0.7-4.8,1.4c-24.5,11.2-43.6,28.6-58.6,50.9
		c-12.9,19-19.5,40-20,62.7c-0.2,11.4,1.2,22.9,3.4,34.3c6.6,34.5,19.5,65.9,41.3,93.8c11.6,14.9,24.2,28.6,38.5,40.8
		c8.5,7.3,17,14.7,26,21.3c21.1,15.5,42.7,30.4,65.2,43.8c18.9,11.3,38.2,21.7,58.5,30.2c8.4,3.6,17,6.7,25.6,9.9
		c1.3,0.5,2.4,1,2.7,2.3c0.2,1-0.6,1.5-1.5,1.5c-6.5-0.6-5.3,5-5.7,8.1c-2,17.2-4.3,34.3-13,49.6c-1.3,2.2-1.9,4.3,0.1,6.3
		c3,3.1,2.3,6.3,0.7,9.7c-7.9,17-15.3,34.3-24.2,50.8c-3.5,6.5-7.7,12.6-13.5,17.2c-3.7,3-7.4,7.1-12.7,5.5
		c-6.6-2-13.1-2.6-19.9-2.3c-2.8,0.1-5.5-0.6-6.3-3.2c-3.3-11.1-7.3-22-9.3-33.5c-1-5.6,1.4-8.4,7.2-7.8c6.8,0.7,13.4-1.2,20.1-1.3
		c2.6,0,3.9-1.2,3-3.4c-1.4-3-0.9-6.2-1.5-9.3c-0.9-4.3-2.8-5.2-6.8-3.6c-6.9,2.7-14.1,4.9-21.1,7.5c-4.1,1.5-4.6,0.5-3.8-3.5
		c2-9.8,5-19.3,4.3-29.6c-0.7-10.5-3.2-15.1-12.8-19.2c-8.5-3.6-21-0.9-26.6,5.6c-6.6,7.7-6.4,17.7-1.2,27.4
		c3.9,7.3,9.8,12.9,14.2,19.8c3.3,5.2,1.3,5.9-3.2,5.7c-7.2-0.4-14.3,0.7-21.4,1.3c-2.1,0.2-5.2,0.7-4.7,2.8c1,4.4,1.2,9,3.2,13.2
		c1.1,2.2,2.3,1.4,4.1,1.1c8.1-1.5,15.2-5.6,22.8-8.4c3.1-1.2,4.6-1,5.1,2.6c1.6,11.3,3.3,22.6,5.1,34c0.8,5.1-0.7,8.6-5.7,11
		c-5.5,2.6-10.1,6.7-14.2,11.3c-7.5,8.4-5.6,20,4.3,25.7c1.7,1,3.1,1.6,2.6,4.2c-2.3,11.4-1.1,22.3,5.3,32.4
		c1.7,2.7,2.9,5.6,4.6,8.8c-6.8,0.3-11.5-3.9-17-5.6c-6.6-2.1-10.8-0.8-13.3,5.1c-2.3,5.4-0.7,8.7,5.2,12c6.2,3.5,13.5,3.9,19.4,8.2
		c8.1,5.9,8.4,5.6,13.3-2.4c1.5,1.7-0.6,3-0.7,4.6c-0.2,2.3,0.1,4.4,2.9,4.7c4,0.4,7.5,2.3,11.2,3.8c3,1.2,5.1,1.2,6.3-2.7
		c1.3-4.2,2.5-8.5,5-12.2c0.5,4.3-1.5,8.1-3,11.8c-2.3,5.7,0.8,8.1,5.1,8.1c8-0.1,15.1,2.2,22.3,5.2c6.6,2.7,11,0.2,13.3-6.7
		c1.5-4.4-1.2-8.8-7.1-10.8c-4.5-1.5-9.2-2.6-13.7-4c-1.6-0.5-3.7-0.6-4.1-3.2c12.4-4,23.8-9.3,31.1-20.8c1.8-2.9,4.7-4.8,8.7-5.6
		c5.3-1.1,9.3-4.6,12.8-9.2c4.4-5.8,1.9-11.5,2-17.3c0.2-13.2-3.5-23.9-15.4-31.2c-4.5-2.8-7-7.6-3.7-13
		c6.7-10.8,14.4-20.9,22.5-30.7c2.5-3,4.9-2.9,8.1-0.5c3.8,2.9,4.5,7.2,6.2,11c3,6.6,5.1,13.7,8.3,20.1c4.1,8.2,14.1,6.9,18-0.6
		c4.1-8.2,8.1-16.4,13-24.1C621.1,991.1,623.4,980.5,634.5,975.5z M448.1,586c2.7,4.4,2.5,8.9,3.7,12.9
		c7.1,23.6,22.6,40.9,42.3,54.1c20.9,14.1,44.5,23,68.3,31.3c12.9,4.5,25.9,7.9,40.5,10.9c-6.3,3.7-10.6-0.5-15.2-1.1
		c-6.7-0.9-8.9,0.4-8.8,7c0.1,5.3,2.5,9.7,7,11.9c4.3,2.2,8-0.8,11-4.1c1.3-1.4,2.4-2.9,4.2-3.9c0.2,6.1-5,7.8-8.6,10.5
		c-2.6,1.9-8.1,0.5-7.1,6.4c1,5.7,2.4,11.3,9,13.3c0.7,0.2,1.3,0.9,2.5,1.8c-6.1,4.4-9.6,10.6-10.1,17.5
		c-0.5,7.7,6.8,11.2,12.4,16.9c-8.3,0.4-14.4-2.7-20.6-4.4c-15.2-4.2-30.2-9-45.1-14.1c-27.6-9.4-52.5-24-76-40.9
		c-20.3-14.6-33.4-34.5-37-59.2c-1.9-12.8,1.5-25.6,6.7-37.7C432,604.1,438.5,594.3,448.1,586z M576.8,849.9
		c-4.6,5.9,1.6,8.1,3.7,12.6c-6.2-2.1-12.5-4.1-18.7-6.4c-38.6-14.5-73.8-35.6-107.6-58.8c-22.3-15.2-44-31.3-63.1-50.4
		c-18-17.9-34.4-37.4-45.6-60.5c-10-20.6-17.3-42.4-20.6-65c-3.7-25.8-3-51.6,9.3-75.4c7.9-15.4,18.3-29.2,32-40.2
		c5.4-4.3,10.2-9.3,15.9-13.2c9.4-6.5,19.5-10.8,31.6-12c-2.5,9.3-6.1,17.3-6.5,26.2c-0.7,14,3.6,26.9,8.8,39.4
		c5.9,14.2,13.6,27.6,22.4,40.4c1.7,2.4,1.9,4.2-0.4,7c-14.7,17.3-22.4,37.3-20.3,60c1.4,15.6,9.1,29.2,18.7,41.6
		c13.2,17.2,31.9,27.1,49.7,38.3c27.3,17.2,57.9,25.5,88.2,34.8c7.8,2.4,15.7,4.8,24,7.3c-1.9,2.3-4.2,2.1-5.5,1.5
		c-6.6-3-7.6,1.3-9.3,6.1c-6,17-12.4,33.9-18.6,50.9c-1.4,3.7-5,5.5-7,8.8c-1.7,2.9-2.9,5.4-0.6,7.9c2.3,2.5,5,4.7,9.2,3.3
		c4.9-1.7,8.7-4.6,11-9.2c5.8-12,9.2-24.9,13.1-37.6c1.4-4.7,3.6-9.2,5.7-14.7c1.3,7.4-2.2,12.8-3.9,18.5
		c-2.4,7.9-5.9,15.5-8.2,23.5C582.5,840,580.4,845.3,576.8,849.9z M460.3,957.3c-4.7-9.3-12.2-17.5-12.4-29.6
		c0.5-3.5,0.4-8.1,6.6-8.7c5.7-0.6,7.8,1.8,9.4,7.3c2.9,10.3,0.3,20.2-0.7,30.2C462.9,959,461.1,958.8,460.3,957.3z M449.6,1057.2
		c-0.4-1.7-0.8-3.2,0.4-4.4c0.2-0.2,1,0,1.1,0.2C452.3,1054.9,450.4,1055.7,449.6,1057.2z M494.6,1102.7
		c-11.7,1.9-27.9-17.4-28.7-27.6c-1-13.1,13.8-29.8,27.2-31.1c14.2-1.4,32.1,11.7,31.3,27.4C525.1,1093.4,515.7,1099.4,494.6,1102.7
		z M539.2,1083c-3.6,15.9-12.4,28.1-28.1,34.3c-1.4,0.6-3.6,2.4-5,0.4c-0.6-1,0.2-3.1,0.7-4.6c1.7-4.2,4.1-7.9,7.9-10.4
		c14.6-9.3,17.7-26.5,12.9-39.8c-5.9-16.7-19.9-24.5-36.5-22.4c-21.7,2.7-33.6,23.7-27.9,43.4c1.6,5.4,2.2,10.6-0.4,15.9
		c-1.3,2.6-2.8,4-4.6,0.5c-8.9-18.1-9.6-38.7,4.8-55.5c4.6-5.3,11.2-5.7,17.1-6.6c5.5-0.9,11.1-2.6,16.9-1.5
		c7.8-1.8,14.3,4.1,22,3.9c2.3-0.1,2.2,3.7,3.8,5.3c6.4,6.3,10.7,14,15.1,21.7C540.7,1072.5,540.3,1078.1,539.2,1083z"/>
	<path class="st1" d="M915,594.9c12-14.2,23-29,30.2-46.4c4-9.7,5.9-19.8,7.5-29.5c-0.5-5.2-0.4-9.9-1.7-14.3
		c-1.6-5.5-2.9-11.3-6.4-16.1c-1.2-1.6-3-2.7-4.7-2.6c-1.6,0.1-2.1,2.3-2.5,3.9c-1.1,4.2-1.8,8.5-2.8,12.7
		c-1.7,7.1-0.2,14.3-1.7,21.3c-3.8,18-12.8,33.7-21.7,49.5c-2.5,4.5-5.1,9-7.3,13.7c-2.5,5.5,2.3,8,5.3,10.7
		C912.3,600.4,913.7,596.4,915,594.9z"/>
	<path class="st1" d="M954.8,573c9.3-13.6,17.4-27.9,16.9-46.9c0.2-5.8-0.8-12.9-4.1-19.7c-1.7-3.5-3.3-3.5-5.2-0.6
		c-3.7,5.5-6.6,11.3-7.3,18.1c-1.9,16.6-8.1,31.7-17.1,45.5c-7.2,11-15.2,21.4-24.4,30.9c-3.5,3.6,0.4,6.2,1.8,8.6
		c1.7,2.8,3.8,0.7,5.7-0.9C933.9,597.8,945.5,586.5,954.8,573z"/>
	<path class="st1" d="M933.9,612.7c19.3-12.7,38.1-25.9,51.2-45.6c5.2-7.8,7.8-16.4,9.6-25.4c0.4-4-1.5-7.4-2.8-10.9
		c-1.8-5.2-4.3-5.8-8.1-1.9c-7.6,7.8-11.6,17.7-16,27.4c-6.7,14.6-15.9,27.4-27.5,38.4c-6.3,5.9-12.5,12.2-20,16.8
		c-2.8,1.7-2.7,4.3-1,7.2c2.2,3.8,4,0.3,5.5-0.4C928,616.7,930.9,614.6,933.9,612.7z"/>
	<path class="st1" d="M987.3,567.7c-10.2,19.2-27.2,31.1-44.7,42.4c-6.1,4-12.3,7.8-18.4,11.6c-1.9,1.2-2.4,2.9-1.9,4.9
		c0.6,2.1,2.5,1.5,3.7,1.2c11.6-3.1,23-6.9,33.7-12.6c18.3-9.7,34.1-22.2,45.7-39.9c2.3-3.5,2.5-7.1,4-10.4
		c-1.4-10.1-3.9-11.4-12.5-6.8C992.6,560.4,989.4,563.8,987.3,567.7z"/>
	<path class="st1" d="M785.7,842c3,2.5,5.7,3.2,8.9,1.5c3.3-1.7,5.5-4.3,5.4-8.8c0.2-1.5-0.5-3-1.8-4.7c-3.5-4.6-6.4-9.7-8.5-15.1
		c-4.6-11.8-9-23.7-13.9-35.3c-4.7-11.2-4.9-10.9-16.4-8.1c-3.6,0.9-4.2,2.1-3.1,5.7c3.9,12.7,9.4,24.8,13.6,37.4
		C773.4,824.9,777.1,834.7,785.7,842z"/>
	<path class="st1" d="M1002.2,585.4c-1,1-2.1,2.1-3.1,3.2c-4.1,4.1-8,8.4-12.4,12.3c-16.8,14.9-37.2,23.1-58.3,29.6
		c-2.1,0.7-5.8-0.8-4.8,3.6c0.8,3.6,3.1,2.3,5.8,2.1c7.1-0.6,13.8-3.2,20.7-4.4c17.4-3,34-8.2,48.2-19c7.6-5.7,14.6-12.1,14.1-23.3
		c-0.9-2,1.7-5.8-1.7-6.8C1007.8,581.6,1004.6,583,1002.2,585.4z"/>
	<path class="st1" d="M794.1,819.1c2.7,6,6.8,11.5,13,14.9c2.9,1.6,5.7,1.9,8.3,0.4c2.2-1.4,4.5-3.3,3.8-6.7
		c0.4-2.4-0.9-3.8-2.2-5.6c-4.7-6.3-9.1-12.8-12.1-20.2c-4.7-11.8-10.6-23.1-15.9-34.6c-3-6.5-7.2-1.3-10.6-1
		c-3.6,0.4-4.4,3.3-3,6.7C781.5,788.3,787.4,803.9,794.1,819.1z"/>
	<path class="st1" d="M827.9,800.2c2.9,5.9,7.2,10.2,12.6,13.6c2.3,1.4,5.3,3.8,7.9,1.5c3-2.7,7-4.9,7.7-9.5c0.1-2.1-1.5-3-2.6-4.2
		c-3-3.5-6.8-6.1-9.3-10.2c-6.3-10.5-12.8-20.9-19.4-31.1c-4.7-7.4-7-7.8-14.9-4.2c-2.7,1.2-3.5,2.3-2.1,5
		C814.6,774,821.4,787,827.9,800.2z"/>
	<path class="st1" d="M814.5,815.4c3.1,5,7.4,10.4,16.5,11.2c2,0.4,4.2-2.2,5.5-5c1.2-2.6,1.3-5.4-1.1-8.3
		c-2.9-3.5-6.1-6.7-8.7-10.6c-7.6-11.3-11.9-24.2-18.9-35.8c-5.1-8.5-4.6-8.7-13.9-5.5c-3,1-4,2.4-2.7,5.2
		C799.3,782.8,805,800.1,814.5,815.4z"/>
	<path class="st1" d="M837.7,775.7c5.7,9.3,10.6,19.1,19.8,25.7c2.9,2.1,6.3,3.5,9.8,1.9c3.8-1.7,6.2-4.9,7.7-8.7
		c0.4-2.9-1.9-4.4-3.7-5.5c-5.1-3.2-8.8-7.7-12.2-12.5c-6.4-8.9-12.8-17.9-19.4-26.8c-3.1-4.2-13.4-3-16.2,1.6
		c-0.9,1.5,0.1,2.2,0.8,3.2C828.9,761.6,833.4,768.6,837.7,775.7z"/>
	<path class="st1" d="M901.4,757.6c4.4,4.1,9.6,8.2,16.5,7.7c4.3-0.3,7.7-2.6,9.1-6.5c0.8-2.3,1.3-5.5-1.9-7.3
		c-14.8-8.1-25.5-21.2-38.3-31.7c-2.8-2.3-4.2-3.1-7.1-0.6c-3.2,2.8-6.9,5-10.5,7.4C878.9,738,890.5,747.4,901.4,757.6z"/>
	<path class="st1" d="M997.1,616.9c-9.8,6.4-20.3,11.1-31.8,13.9c-12.5,3.1-25.1,5.6-37.7,8.4c-2.5,0.6-3,1.4-3,3.7
		c0,2.9,1.8,2.8,3.8,2.8c4.7,0,9.3,0,15.9,0c9.1,1.1,19.9-0.9,30.6-2.8c11.4-2.1,21.8-7.2,30.3-15.1c3.4-3.2,8.6-8.4,5-12.8
		C1007.6,611.9,1001.6,614,997.1,616.9z"/>
	<path class="st1" d="M858.5,742.3c8.2,8.6,16.8,16.8,24.5,25.8c4.2,4.9,8.8,8.8,14.5,11.5c4.6,2.2,7.4-0.8,9.1-4.1
		c1.7-3.1,4.6-6.8,0-10.3c-13.3-10.3-25.2-22.1-37.1-33.9c-1-1-1.7-3.2-4.4-2.8c-3.3,2.2-7.3,3.8-9.7,6.7
		C853.1,738,856.5,740.2,858.5,742.3z"/>
	<path class="st1" d="M863.2,777.9c4.9,6.1,10.4,12.2,19.2,12.8c4.3,0.2,7.4-1.6,8.7-5.7c1.3-3.8-0.7-6.4-3.9-8.1
		c-3.4-1.9-6.1-4.5-8.6-7.3c-8.8-10-17.4-20.1-26.3-30c-4.6-5.2-7.1,1.5-10.4,2.5c-3.3,1-1.6,3.8-0.1,6
		C849,758,855.7,768.4,863.2,777.9z"/>
	<path class="st1" d="M891.3,720.8c6.8,5.9,13.6,11.7,20.2,17.8c5.9,5.5,12.4,10.3,20.9,11.6c5.8,0.9,12.1-3.1,12.4-8.9
		c-0.7-1.6-0.9-3.5-3.5-4.2c-4.2-1.2-8.1-2.9-11.8-5.5c-10-7.1-20.6-13.2-30.3-20.7c-5.6-4.3-8.9-0.6-11.6,2.2
		C884,716.9,889.1,719,891.3,720.8z"/>
	<path class="st1" d="M999.6,635.7c-5.6,2.5-10.8,6.1-16.9,7.7c-17.6,4.6-35.5,5-53.5,5c-2.3,0-4.8-0.5-4.6,3.3
		c0.1,2.9,0.1,5.4,4.1,5.7c8.2,0.5,16.3,1.9,24.9,1c9.1,1.2,18.4-0.4,27.6-2.5c9.5-2.1,18.2-5.8,23.5-14.8c1.1-1.9,1.4-3.9-0.1-5.7
		C1002.8,633.1,1001.2,635,999.6,635.7z"/>
	<path class="st1" d="M902,710c8.3,5.2,16.2,10.9,24.2,16.5c6.5,4.6,13.3,9.4,21.9,9.5c6.7,0.1,9.6-2.9,9.5-10.2
		c0.9-4.4-2.4-5.9-6.2-6.2c-5.8-0.4-10.8-2.8-16-4.9c-9.6-3.7-18.3-8.9-27-14.2c-4.1-2.5-7.2-1.3-9.7,2.3
		C896,706.9,899.6,708.5,902,710z"/>
	<path class="st1" d="M991.7,654.9c-0.8,0.1-1.5,0.8-2.3,1c-11,3.6-22.3,5-33.9,5.3c-7.2,0.2-14.1-2.5-20.2-1.4
		c-3.3,0-5.6,0.5-7.5-0.1c-4.7-1.4-6,0.9-6.1,4.9c-0.1,4.4,3,4.2,5.9,4.1c5.3-0.1,10.4,1,15.6,1.6c10.8,1.2,21.6,2.4,32.6,2.3
		c8.1-0.1,15.1-3.1,21-8.3c1.7-1.6,4.8-3.9,3.3-6.6C998.6,654.7,995,654.2,991.7,654.9z"/>
	<path class="st1" d="M911.2,699.3c5.3,3.4,10.6,6.5,16.1,9.5c9.2,5,19,8.2,29.4,9.6c4.3,0.1,8.3-1.2,12.2-2.6
		c3.6-1.3,2.7-4.4,2.6-7c-0.1-2.8-2.2-3.1-4.5-3.3c-10.5-0.6-20.4-3.5-30-7.6c-6.9-2.9-14-5.1-20.9-8.1c-5.4-2.3-8.3,1-9.9,4.6
		C904.6,698.3,909.3,698,911.2,699.3z"/>
	<path class="st1" d="M922,677.8c2.6,1.2,5.3,1.1,7.9,1.6c13.7,3.1,26.9,9.1,42.2,8.2c8.6,1.5,15.8-2.2,21.2-9.7
		c2.4-3.2,1.1-5.1-2.6-5.5c-1.9-0.2-3.8-0.1-5.7,0.2c-11.9,1.9-23.8,1.7-35.8,0.2c-8.7-1.1-17.3-2.1-26-3.1c-3-0.3-4.3,1.4-4.8,3.8
		C917.9,676.3,919.9,676.8,922,677.8z"/>
	<path class="st1" d="M917.1,686.6c3.8,1.6,7.5,3.7,11.2,5.5c11.7,5.6,24.2,8.5,36,11.2c5.7-0.7,10.7-1.1,15.2-3.6
		c2.5-1.4,3.9-3.3,3.3-6c-0.6-3-2.9-3.5-5.7-3.4c-8.6,0.3-17-0.4-25.5-2.3c-10.7-2.4-20.8-6.9-31.8-8.5c-3.9-0.6-4.9,0.8-6,3.4
		C912.6,685.9,915.1,685.8,917.1,686.6z"/>
	<path class="st1" d="M388.9,535.2c7.5,22.5,18.9,42.6,35.6,59.5c1.3,1.3,2.8,6,5.4,2.7c2.6-3.3,8.9-5.8,5.2-11.9
		c-4.9-8.2-10-16.2-14.5-24.7c-9.2-17.3-16.2-35-16-55.1c0.1-5.1-1.4-10.3-2.6-15.3c-0.4-1.8-1-4.6-3.5-4.7c-2-0.1-3.3,2-4.3,3.5
		c-5.1,8.1-8.5,16.7-7.1,26.1C386.6,522.5,386.8,529,388.9,535.2z"/>
	<path class="st1" d="M370,545.7c9.7,25.5,25.9,46,47.9,61.9c1.7,1.3,3,4.2,5.5,1.1c2-2.5,4.2-5,1.6-8.3c-1.2-1.6-2.5-3.2-3.9-4.7
		c-18.9-19.8-32.5-42.2-37-69.8c-1.2-7.2-2.4-14.8-8.4-20.4c-3-2.8-4.1-1.6-5.1,1.3c-2.3,6.5-5.1,12.9-3.9,19.8
		C365.9,533.4,367.7,539.6,370,545.7z"/>
	<path class="st1" d="M378.5,593.8c11.5,9.1,23.9,16.6,35.8,25c1.2,0.9,3.4,2.9,4.8,0.3c1.1-2,2.7-4.4-0.1-6.6
		c-1.3-1.1-2.4-2.4-3.7-3.4c-13.1-9.3-24-20.9-33.5-33.8c-8.7-11.8-13.6-25.6-20.7-38.3c-2.4-4.3-5.5-7.9-10.6-10.4
		c-1.7,1.3-3.6,2.7-4.4,5.2c-2.5,7.9-1.7,15.7,1.6,23.2C354.7,570.6,365.2,583.2,378.5,593.8z"/>
	<path class="st1" d="M347.8,592.4c8.1,8.5,17.4,15.4,27.8,20.9c11.9,6.3,24.3,11.6,37.8,14.6c1.3-0.4,3.4,1,4-1.5
		c0.4-1.8-0.2-2.9-2-4c-8.3-5.2-16.3-10.7-24.5-16c-16.7-10.9-31.7-23.4-41.3-41.5c-2.8-5.3-8.3-8.8-14.8-9.6
		c-1.3-0.2-2.1-0.6-2.7,1.1c-1.2,3.3-2.7,6.4-1.8,10.2C332.8,577.5,340.5,584.8,347.8,592.4z"/>
	<path class="st1" d="M563.6,828.3c4.6-11.8,9.1-23.6,13.5-35.4c2.2-6,4.7-11.9,5.7-17.6c1.2-3.1-1.3-3-2.1-3.3
		c-2.5-0.9-5.5-0.6-7.8-1.9c-4.4-2.4-6.3,0.4-7.6,3.4c-8.7,19.9-14.1,41.1-25.9,59.7c-2.5,3.9,1.3,6.9,3.4,9.6
		c2,2.5,4.8,2.6,7.7,0.9C556.8,840.1,561,834.9,563.6,828.3z"/>
	<path class="st1" d="M335.6,609c8.5,7.1,18.2,12.4,28.6,16.4c14.8,5.7,30.7,7.2,45.9,11c2.2,0.6,4.1-0.3,4.7-2.7
		c0.6-2.6-1.2-2.7-3.3-3.3c-27.9-7.6-53.4-19.2-71.9-42.7c-2.7-3.4-6.7-4-10.4-5.4c-4.1,0.5-4.6,4.7-4.2,6.7
		C326.7,596.4,329.4,603.8,335.6,609z"/>
	<path class="st1" d="M564,770.8c0.5-1.2,1-1.8-0.4-3.1c-7-5.9-13.1-4.2-16.5,4.3c-7.2,17.8-14.4,35.7-25.8,51.4
		c-1.5,2.1-2.7,4.2-0.8,6.7c1.7,2.3,3.2,5,7.1,5c1.9,0.4,3.8-0.8,5.4-2c4.8-3.3,9.1-7.4,11.3-12.8C551.1,804,557.4,787.4,564,770.8z
		"/>
	<path class="st1" d="M508.7,803.8c7.2-12.7,13.6-25.7,20.1-38.7c1.3-2.6,4.7-5.7,0.7-8.5c-2.7-1.8-6.1-2.4-9.3-3.5
		c-2.1,0.4-3.4,2-4.2,3.5c-3.8,6.9-8.9,13-12.2,20.3c-3.9,8.3-9.1,16.1-15.9,22.2c-4.2,3.7-5.4,6.5-2.9,11c3.1,5.6,6.7,6.9,12.3,4.3
		C502.2,812.1,506.2,808.2,508.7,803.8z"/>
	<path class="st1" d="M522.9,817.5c9.8-15.5,16-32.7,23.8-49.2c0.6-1.3,4-5.1-0.6-5.8c-4.2-0.6-8.5-7.8-12.7-0.5
		c-3.3,5.7-6,11.9-9.1,17.8c-6.2,11.5-10.7,24-20.5,33.3c-2.5,2.4-2.9,4.5-1.4,7.8c1.6,3.4,3.5,5.6,8.6,5.5
		C515,824.7,519.8,822.4,522.9,817.5z"/>
	<path class="st1" d="M489.9,793.2c6.6-10.3,13.6-20.4,19.7-31c1.8-3.2,3.9-6.3,5.7-9.9c-2.2-3.2-6.1-3.9-9.3-5.6
		c-3.3-1.7-5.3,0.5-7.2,3.1c-9.7,13.3-18,27.7-30.4,38.8c-3.7,3.3-5.2,6.5-2.1,10.8c3.1,4.3,7,6.4,12.3,3.3
		C482.9,800.2,487.1,797.6,489.9,793.2z"/>
	<path class="st1" d="M417.4,747.5C417.4,747.5,417.4,747.5,417.4,747.5L417.4,747.5C417.4,747.5,417.4,747.5,417.4,747.5
		C417.4,747.5,417.5,747.5,417.4,747.5C417.5,747.5,417.4,747.5,417.4,747.5z"/>
	<path class="st1" d="M460.5,736.2c11-8.8,11.1-8.7-0.2-16.7c-3.7-2.6-5.8-2.4-8.9,0.9c-5.5,5.7-11.3,11.3-17.5,16.2
		c-5.1,4-9.5,9.5-16.4,10.9c-0.9,1.1-1.6,2.7-2.8,3.2c-3.8,1.6-4.1,3.9-2.7,7.5c2.3,5.9,6.6,8.4,12.7,6.6c4.7-1.3,8.5-4,12.3-7
		C445.5,751.3,452.2,742.8,460.5,736.2z"/>
	<path class="st1" d="M481.7,740.8c1.4-1.7,4.8-4.8,0.3-6.9c-3.6-1.7-6.6-7.5-11.6-3c-7.4,6.6-14.5,13.5-21.6,20.3
		c-4.5,4.3-8.9,8.6-14.2,12c-2.4,1.5-5,3.5-4.3,6.9c0,4.7,4.5,11,7.7,10.1c4.3-1.2,8.9-2,12.5-5.2
		C462.1,764.8,471.5,752.4,481.7,740.8z"/>
	<path class="st1" d="M344.2,635.4c16.3,9.2,34.1,10.2,52.1,10.4c4.6,0,9.3,0,13.9,0c1.8,0,3.4,0,3.4-2.5c-0.1-2,0.2-3.8-2.7-4
		c-1.4-0.1-2.8-0.8-4.2-1.1c-11.2-2.3-22.5-4-33.5-7c-12-3.3-23.4-8.3-33.7-15.6c-3.7-2.7-8.6-3.2-11.5-0.1c-2.8,3,1,6.6,3,9.2
		C334.6,629.3,339.2,632.5,344.2,635.4z"/>
	<path class="st1" d="M494.9,751.4c6-7.5,5-9.4-4.5-13.3c-1.7-0.7-2.7-0.7-3.8,0.6c-3.1,3.8-6.3,7.6-9.5,11.4
		c-8.1,9.7-16.4,19.2-26.1,27.4c-2.8,2.3-4.4,4.1-3.1,7.5c1.3,3.3,3.3,5.8,7.2,5.6c6.6,0.1,10.9-4,15.2-7.9
		C480.2,773.7,486.6,761.8,494.9,751.4z"/>
	<path class="st1" d="M417.5,747.5C417.4,747.5,417.4,747.5,417.5,747.5L417.5,747.5C417.5,747.5,417.5,747.5,417.5,747.5z"/>
	<path class="st1" d="M421.6,742.9c9.5-7.3,18.5-15.1,27-23.4c2-2,5.1-3.8,1.7-7.2c-2.7-2.7-5.4-5.5-9.6-2.5
		c-4.6,3.2-9.1,6.5-13.7,9.8c-9,6.3-17.3,13.8-28.2,16.9c-3.3,1-5.1,3.2-4.1,6.7c1,3.4,2.3,6.5,6.9,7c5.7,0.6,10.5-2.3,15.9-2.7
		C418.8,745.9,420,744.1,421.6,742.9z"/>
	<path class="st1" d="M401.3,713.6c9-4.3,17.9-9,26.2-14.5c2-1.3,6.7-1.1,4.1-5.7c-2-3.5-3.8-7.2-8.9-4c-2.4,1.5-5.3,2.2-8,3.4
		c-14.1,6.3-28.5,11.4-44,12.6c-2.2,0.2-3.9,0.8-3.9,3.2c0,2.1-1.1,4.3,1.7,6.1c4.1,2.6,8.4,3.4,14.1,3.5
		C388.2,717.3,395,716.6,401.3,713.6z"/>
	<path class="st1" d="M387.3,658.5c6.8,1.2,14.6-1.1,22.6-1.3c2.1-0.1,5.3-0.4,4.7-3.6c-0.4-2.2-0.3-5.4-4.6-5.3
		c-9.9,0.3-19.7-0.2-29.6-1c-14.1-1.1-27.8-2.7-39.7-11.2c-1.7-1.2-4.1-3.2-6.1-0.6c-1.7,2.2-1.5,4.6,0.2,7c2.4,3.5,5.6,6.1,9.4,8
		C357.3,657.2,371.5,658.9,387.3,658.5z"/>
	<path class="st1" d="M437.5,709.1c3.6-2.4,3.6-4.4,1-7.5c-2.4-2.9-4.7-2.5-7.7-1c-14.2,7.2-27.3,16.9-43.5,19.3
		c-4.9,0.7-7.7,3.2-6.6,8.4c1,4.8,4.2,7.4,8.4,7.8c7-0.2,12.7-2.3,17.7-5.6C417.2,723.6,427.2,716.1,437.5,709.1z"/>
	<path class="st1" d="M371.6,672.4c4.9,1.5,10.3-1,16-1.3c8.9-0.5,17.7-2.1,26.6-3.3c1.8-0.2,4.5-0.6,3-3.2
		c-1.2-2.2-0.9-6.9-5.3-5.6c-8,2.2-16.2,1.2-24.3,1.9c-13.2,1.2-26.7,0.4-39.2-5.5c-2.7-1.3-6.4-1.5-8.6,1.7
		c-2.2,3.1,0.9,4.8,2.2,6.9c1.6,2.6,3.9,4,6.7,5C355.8,671.4,363,672.9,371.6,672.4z"/>
	<path class="st1" d="M365,687.9c20.5-0.1,36.6-7.1,53.3-10.8c4.3-1,2.9-3.8,0.6-5.7c-2.2-1.9-5.2-1.8-7.9-1.2
		c-11.5,2.6-23,4.1-34.8,3.6c-8.8-0.3-17.7,1.1-26.4-1.1c-1.7-0.4-3.9-0.7-5.3,1.1c-1.9,2.4,0.9,3.3,1.7,4.7
		C351.2,686.7,359,688.5,365,687.9z"/>
	<path class="st1" d="M372.7,703c18.2-1.5,34.3-9.5,50.6-16.9c1.9-0.9,1.7-2.3,0.8-4.2c-1.1-2.2-2.3-3.5-4.8-2.8
		c-4.6,1.3-9.2,2.6-13.8,3.7c-12.3,2.9-24.2,8-38.1,7.4c-1.4,0-3.7-0.1-6,0c-2.1,0.1-4.6-0.9-5.1,2.9c-0.4,3,0.4,4.8,2.9,6
		C363.4,701.4,367.7,703.4,372.7,703z"/>
	<path class="st1" d="M559.8,747c0.2,6,5.2,11.7,11.5,13.1c8.6,2,12-0.4,14.2-9.2c1-4,1.5-8.2,3.8-11.7c1-1.6,1.6-3.2,0-4.6
		c-4-3.5-4.7-8.4-6-13.5c-4,3.6-7.6,7.1-12.5,8.6C563.6,731.8,559.6,737.9,559.8,747z"/>
	<path class="st1" d="M537.3,718c-2.9-2.6-4.5-6-5.5-9.7c-0.5-1.8-1.9-1.9-2.9-1.3c-6.8,3.6-16.1,2.2-20.1,11.6
		c-2.1,4.9-5,9-2.5,14.4c2.8,5.9,8.3,7.1,13.7,8.2c5.7-0.7,10.8-1.7,12-8.7c0.7-4,2.4-8,5.1-11.3C538,720.2,538.6,719.2,537.3,718z"
		/>
	<path class="st1" d="M561.7,727.3c-3.2-3.6-3.8-8.2-5-12.6c-4.2,0.4-6.5,4.6-10.6,5c-6,0.5-8.6,4.9-10.6,9.6
		c-2.3,5.4-3.7,10.9,0.2,16.4c4.5,6.4,11,6.2,17.6,5.5c2.2-0.2,4.2-1.4,4.1-4.5c-0.1-5.1,1.5-10,4.3-14
		C563.3,730.3,563,728.8,561.7,727.3z"/>
	<path class="st1" d="M509.9,707.5c-1.5-4.1-3.3-8.2-5.8-11.6c-0.5-0.7-4.8,1.4-7.4,2c-1.6,0.3-3.4,0-5.1,0.1
		c-6.6,0.5-14.8,10.6-14.4,17.6c0.3,4.7,8.5,10.5,15.7,10.4c2.2-0.7,5.2-1.5,8.1-2.6C506.2,721.3,511.6,712,509.9,707.5z"/>
	<path class="st1" d="M482.1,690.7c-0.3-2.2-1.3-4.3-1.2-6.7c0.1-1.2,0.5-3.2-0.9-3.4c-6.1-0.5-12.5-1.6-18.3-0.5
		c-4.6,0.9-9.2,13.7-7.8,18.2c2,6.9,7.6,10.8,17.1,10.7c5.8,1,8.1-5.5,12.2-10C486.5,695.4,482.4,693.4,482.1,690.7z"/>
	<path class="st1" d="M460.4,675.2c-1.6-4.7-1.2-9,1.3-14.1c-4.3,0-7.9,0.3-11.5-0.1c-10.8-1.2-18.2,6.6-16.3,17.3
		c1.1,5.9,9.9,12.6,15.7,12C452.5,689.9,461.5,678.2,460.4,675.2z"/>
	<path class="st1" d="M506,671.3c-5.2,1.4-9.4,4.8-14.8,5.1c-6.4,0.3-9,3.4-8.8,9.6c0.1,5,4,8.8,9.2,9.4c6.8,0.8,11.8-3.1,16.9-6.5
		c0.7-0.5,2.1-1.4,1-2.4C504.9,682.2,507.2,676.5,506,671.3z"/>
	<path class="st1" d="M508.7,697.1c0.7,7.1,4,10.9,9.1,10.9c0.8,0,1.7,0.1,2.5,0c9-1,13.7-8.1,9.9-15.9c-1.3-2.7,1.1-7.5-3.4-7.8
		c-2.8-0.2-5.7,2.1-8.6,3.3c-1.1,0.5-2.3,1.3-3.5,1.3C509.1,689,508.2,692.7,508.7,697.1z"/>
	<path class="st1" d="M575.9,702c-3.1-2-6.5,4-10.3,4.3c-5.8,0.4-6.3,3.7-5.7,7.8c-0.6,5.9,1.1,11.3,6.3,13.2
		c5.4,2.1,9.4-2.4,12.9-6.2c0.8-0.9,1.2-2.2,2-3.1c2-2,1.9-3.6,0.2-6C579,709,578.3,703.6,575.9,702z"/>
	<path class="st1" d="M554.7,699.1L554.7,699.1L554.7,699.1C554.7,699.1,554.7,699.1,554.7,699.1
		C554.7,699.2,554.7,699.2,554.7,699.1L554.7,699.1C554.7,699.1,554.7,699.1,554.7,699.1z"/>
	<path class="st1" d="M550.3,691.8c-3.3,3.5-7.7,5.3-12,7.3c-4.9,2.3-4.5,6.5-3.6,10.2c1.1,4.2,3.8,8.5,8.7,8.7
		c6.6,0.3,10-5.4,14-9.5c3.4-3.5-3.2-3.6-2.4-6.4c0.3-0.9-0.1-2-0.2-3.1C551.9,697.6,553.1,693.7,550.3,691.8z"/>
	<path class="st1" d="M427.8,632.6c4.5,6.6,11.2,8.3,21,5c-1.6-3.6-3.5-7.3-1.1-11.3c2.1-3.4,0.8-5-2.6-6.1c-1.8-0.6-3.4-1.5-5-2.5
		c-4.7-2.9-8.1-0.7-10.7,3C426.8,624.3,424.7,628.1,427.8,632.6z"/>
	<path class="st1" d="M474.6,659.7c-4.1,0.4-8.7-1.4-11.3,3.5c-2.7,4.9-1.2,11.8,3.1,14.1c3.6,1.9,18-0.4,19.3-3
		c0.1-0.2,0.2-0.4,0.2-0.6c-0.9-4.4-1-9.2-3-13.1C481.7,658.3,477.3,660.2,474.6,659.7z"/>
	<path class="st1" d="M441.6,650.1c-0.6-2,1.5-6-0.9-7.6c-3.5-2.4-7.8-3.7-12-4.9c-2.6-0.7-6.3,6.8-6.2,12.2
		c0.1,5.7,6.1,12.5,10.9,12.4C439.3,662.3,441.6,659.1,441.6,650.1z"/>
	<path class="st1" d="M442,616.6c5.1,3,10.3,1.5,15.8,0.8c-3.2-6.6-6.5-13.1-8.4-20.1c-0.5-1.8-1.1-2.4-2.9-2.4
		c-3.8,0.1-10.7,6.3-11.1,10.7C434.8,610.8,437.6,614,442,616.6z"/>
	<path class="st1" d="M554.7,699.1C554.7,699.2,554.8,699.2,554.7,699.1C554.8,699.2,554.8,699.2,554.7,699.1
		C554.7,699.1,554.7,699.1,554.7,699.1L554.7,699.1z"/>
	<path class="st1" d="M554.8,699.2c9.5,7.6,17.1,5,24-8.4c-6.2-1.1-11.5-4.5-17.7-5.9c-3.7-0.8-4.7,0.6-6.4,2.9
		C551.8,691.6,555.5,695.4,554.8,699.2z"/>
	<path class="st1" d="M451.5,640.7c-6.1-0.2-7,5-8.3,8.7c-1.1,3.4,1.3,7,4.8,8.3c4.6,1.7,9.5,0.9,14.3,0.4c1.6-0.2,2.7-2,1.9-3.4
		c-2.6-4.8,0.1-9.2,0.8-14C460.4,640.7,456,640.8,451.5,640.7z"/>
	<path class="st1" d="M532.9,692.9c1.8,2.6,5.4,3.4,8.6,2c4.4-2,8.3-4.8,11.3-8.7c0.6-0.8,2.4-2.5,0.5-3.5c-4.9-2.7-9.8-5.5-14-6.3
		c-5.1-0.6-6.7,1.8-8,4.6C529.4,685.4,530.7,689.5,532.9,692.9z"/>
	<path class="st1" d="M509.1,680c1.4,4.6,7.1,6.9,11.4,4.3c4.4-2.7,9.2-5,12.3-10.4c-4.6-2-9-3.7-13.3-5.8c-9-4.3-10.1-3.8-10.9,6.5
		C508.5,676.5,508.6,678.4,509.1,680z"/>
	<path class="st1" d="M467.7,642.1c-1.5,2-2.4,4.4-1.9,6.7c0.1,6.4,3.4,10.2,8.5,9.2c4.2-0.8,8.3-2.3,12.5-3.3
		c3.2-0.8,3.1-1.9,1.1-4.1c-3.6-3.8-8-6.7-12-10C472.2,637.6,469.8,639.3,467.7,642.1z"/>
	<path class="st1" d="M485.2,664.3c0.1,4.4,5.4,10.2,9.1,9c4.6-1.5,9.5-2.8,12.9-6.9c1.1-1.3,2.4-2,0.7-3.2
		c-4.4-3.3-8.4-7.5-14.5-7.9C489.6,655.1,485.1,660.1,485.2,664.3z"/>
	<path class="st1" d="M452,623.5c-3.2,2.3-3.6,8.7-1.1,12c3,3.9,7.5,2.5,11.1,3.6c3.3,0.1,6.7-0.3,8-3.4c1.1-2.6-2.5-3.3-3.6-5.1
		c-1-1.8-2.1-3.6-3.2-5.3C460.5,621.1,456.2,620.4,452,623.5z"/>
	<path class="st1" d="M662,553.9c41,0,72.1-32.2,73.1-73.5c1-41.9-32.4-76.6-74.2-76.1c-40.9,0.5-73.2,33.8-72.7,75.2
		C588.7,521.2,619.8,553.9,662,553.9z M612.1,457.6c0.1-1.7,0.2-3.6,0.3-4.3l0.2-1.3l2.8,0c5,0,7.5-0.7,21.9-5.8
		c11.5-4.1,23.3-5.8,31.5-4.4c7,1.2,14.9,3.3,23.9,6.5c8.8,3.1,13.6,3.6,19,2c0.5-0.1,3.4,5.2,3.1,5.6c-0.3,0.3-1.4,0.8-3,1.3
		c-1.6,0.5-8.2,0.6-10.4,0.2c-1.7-0.3-8.2-2.2-12.6-3.7c-11.4-3.9-25-5.8-32.9-4.7c-7,1-9.7,1.7-18.5,4.7
		c-10.4,3.6-19.4,6.1-24.5,6.8l-0.8,0.1L612.1,457.6z M607.8,493.4c2.5-7.8,12.2-10.7,17.9-5.3c2.8,2.7,2.1,7.4-1.3,9.2
		c-2.8,1.5-6.3-1.5-5.4-4.5c0.3-1.1,0.3-1.1-1-0.7c-7.7,2.6-6,14.2,2.4,17.4c9.8,3.7,25.1-1.4,40.5-13.4
		c6.1-4.7,13.4-12.6,12.6-13.5c-0.3-0.3-3.7-0.2-7,0.1c-9.6,1-21.1-1-34.5-5.9c-1.7-0.6-4.2-1.5-5.5-2c-2.8-1-8.1-2.4-11.8-3.1
		c-1.4-0.3-2.8-0.5-3-0.6L611,471l1-3.5v-3.5l0.7-0.3c5.2-1.2,13.8-3.5,21-5.5c15.9-4.4,17.6-4.9,20.9-5.4
		c11.2-1.9,17.3-0.7,40.7,7.7c4.4,1.6,9.3,2,13.5,1.1c1-0.2,2.1-0.3,2.5-0.3l0.7,0.1l1.4,3.3c0.8,1.8,1.4,3.3,1.4,3.4
		c0,0-0.9,0.2-2.1,0.4c-9,1.2-14.1,3.4-17,7.2c-2.2,2.9-2.7,4.1-3.2,7.1c-0.7,4.5,0.3,6.2,5.2,8.4c1.3,0.6,1.3,0.6,0.2,0.8
		c-3.9,0.9-5.7,3.2-7.7,9.4c-3.1,10-6.2,15.8-8.7,16.4c-0.4,0.1-0.4,0.1-0.5-0.6c-0.1-0.4-0.1-2.5,0-4.6c0.1-5,0.5-7.3,4-20.8
		c1.5-6,1.7-10.2,0.4-10.8c-1.1-0.5-2.3,0.1-4.2,2.4c-5.9,7.2-15.2,15.8-22.6,20.9c-15.8,10.9-32.5,14.8-42.4,10
		C608.8,510.7,605.2,501.6,607.8,493.4z"/>
	<path class="st1" d="M694.8,467.8l-1.2-0.6c-3.1-1.6-7.5-3.3-13.4-5.2c-1.5-0.5-6.6-1.6-9.3-2.1l-0.6-0.1l0.1,0.7
		c1,5.9-2.4,9.8-8.4,9.6c-5.4-0.2-8.4-3.6-7.7-8.5c0.1-0.9,0.2-1.7,0.2-1.7c-0.1-0.1-8.9,2-14.6,3.6c-5,1.3-11.2,2.9-15.2,3.9
		l-1.3,0.3l2.1,0.7c1.1,0.4,4.9,1.6,8.3,2.8c8.9,3.1,13.9,4.2,20.9,4.9c2.4,0.2,14.5,0.1,17.2-0.2c7.8-0.8,16.9-3.9,22.2-7.6
		L694.8,467.8z"/>
	<path class="st1" d="M662.2,563.2c46.9,0.3,83.4-37.1,82.9-85.1c-0.5-47.3-35.3-81.9-80.7-83.8c-51.2-2.2-85.8,39.8-86.3,83.6
		C577.5,525.4,613.8,563.6,662.2,563.2z M668.6,398.9c35.7,2.4,74,36.8,71.8,80.1c3.1,41.2-36.5,84.1-84.8,80.5
		c-37.1-2.8-74-36.6-72.8-83.2C583.6,437,617.2,395.5,668.6,398.9z"/>
</g>
<g>
	<rect x="863" y="1092.8" transform="matrix(0.9288 -0.3707 0.3707 0.9288 -345.4429 398.3069)" width="1" height="10"/>
	<polygon points="467.1,1124.7 483.2,1099.4 480.8,1097.7 466.4,1123.4 	"/>
	<polygon points="488.9,1125.6 496.8,1102.4 499.7,1101.8 490.6,1127.2 	"/>
</g>
<polygon class="st1" points="2375.5,142 2356,142 2426,231 2445.1,231 "/>
<g>
	<polygon class="st1" points="2464.2,142 2533.8,231 2553.4,231 2483.9,142 	"/>
	<polygon class="st1" points="2390.2,142 2459.8,231 2481.1,231 2411.5,142 	"/>
	<polygon class="st1" points="2426.2,142 2495.8,231 2519.2,231 2449.6,142 	"/>
	<polygon class="st1" points="2498.5,142 2568.1,231 2589.4,231 2519.9,142 	"/>
	<polygon class="st1" points="2534.5,142 2604.1,231 2627.5,231 2557.9,142 	"/>
	<polygon class="st1" points="0,142 0,231 2382.5,231 2312.5,142 	"/>
	<polygon class="st1" points="2354.5,142 2424.1,231 2445.5,231 2375.9,142 	"/>
</g>
<g>
	<polygon class="st1" points="2464.5,1357.5 2534,1268.5 2553.7,1268.5 2484.1,1357.5 	"/>
	<polygon class="st1" points="2390.4,1357.5 2460,1268.5 2481.3,1268.5 2411.8,1357.5 	"/>
	<polygon class="st1" points="2426.4,1357.5 2496,1268.5 2519.4,1268.5 2449.8,1357.5 	"/>
	<polygon class="st1" points="2498.7,1357.5 2568.3,1268.5 2589.7,1268.5 2520.1,1357.5 	"/>
	<polygon class="st1" points="2534.7,1357.5 2604.3,1268.5 2627.8,1268.5 2558.2,1357.5 	"/>
	<polygon class="st1" points="0,1357.5 0,1268.5 2382.7,1268.5 2312.7,1357.5 	"/>
	<polygon class="st1" points="2354.8,1357.5 2424.3,1268.5 2445.7,1268.5 2376.1,1357.5 	"/>
</g>
</svg>
