<?xml version="1.0" encoding="utf-8"?>
<!-- Generator: Adobe Illustrator 24.0.1, SVG Export Plug-In . SVG Version: 6.00 Build 0)  -->
<svg version="1.1" xmlns="http://www.w3.org/2000/svg" xmlns:xlink="http://www.w3.org/1999/xlink" x="0px" y="0px"
	 viewBox="0 0 1278 852" style="enable-background:new 0 0 1278 852;" xml:space="preserve">
<style type="text/css">
	.st0{fill-rule:evenodd;clip-rule:evenodd;fill:#C5AB62;}
	.st1{fill:#591C0B;}
	.st2{fill-rule:evenodd;clip-rule:evenodd;fill:#591C0B;}
	.st3{fill:#FFFFFF;}
</style>
<g id="svg2" xmlns:svg="http://www.w3.org/2000/svg">
	<rect id="rect3156" x="-0.1" y="0.2" class="st0" width="1278.3" height="851.6"/>
	<g>
		<path id="path2384" class="st1" d="M453.9,611.2c-2.8,0-3.1-67.2-2.1-72.3c0.7-3.7,40-2.6,67.8-3.2c6.7-5.1,8.8-11.7,3.3-10
			c-2.3,0.7-4.6-0.1-7.2-2.7l-3.9-3.8l5.2-6.6c2.8-3.6,6.5-7.6,8.1-8.8c1.6-1.2,2.9-4.2,2.9-6.8c0-2.6,0.9-5,2-5.5s3-3.8,4.1-7.4
			c1.1-3.6,4.3-10.6,7.2-15.4c6.3-10.7,7.7-20.7,7-50.1c-0.5-19.3-0.9-22-3.9-25c-2.6-2.6-3-4.1-1.8-6.4c1.2-2.3,0.6-5.1-2.4-11.3
			c-2.2-4.5-4.8-8.7-5.7-9.3c-1.1-0.7-1.2-2.1-0.1-4c1.3-2.4-0.3-4.9-8.7-13.8c-5.7-6-10.8-10.9-11.3-10.9c-0.6,0-3.5-2.2-6.4-4.9
			c-3-2.7-6.4-4.9-7.5-4.9s-4.4-2.4-7.1-5.3c-2.7-2.9-5.9-6.4-7.2-7.8c-4.5-4.9-25.2-47.3-26.9-55.1c-3-13.5-4.7-27.2-4.5-36.3
			c0.1-6.3-0.5-8.6-2.1-8.6c-1.2,0-5.8-2.6-10.1-5.7c-6.3-4.6-9.3-5.7-15.4-5.7c-4.2,0-7.6-0.7-7.6-1.5s-1.1-2.6-2.4-3.9
			c-2.1-2.1-2-3.4,0.4-10.8c1.5-4.6,3.6-8.4,4.7-8.4c1,0,2.3-1.1,2.8-2.5c0.5-1.4,2.8-2.5,5.1-2.5c2.3,0,4.2-0.7,4.2-1.6
			c0-0.9,2.1-1.6,4.6-1.6c3,0,6.4-1.7,9.4-4.9c2.6-2.7,6-4.9,7.6-4.9c1.5,0,3.6-1.6,4.6-3.4c1.3-2.4,2.7-3.1,5.2-2.3
			c2.1,0.7,3.9,0.2,4.8-1.1c1-1.7,1.8-1.8,3.3-0.3c1.8,1.8,6.2,1.2,8.1-1c1.2-1.4,9.7-5,11.7-5c1,0,1.3,1.6,0.8,3.9
			c-0.5,2.1-0.4,4.4,0.2,5.1s1.3,2.8,1.5,4.8c0.2,2,1.1,7.6,2,12.4c1.9,9.9,0.3,19.6-4.6,29.4c-2.4,4.7-2.8,7.6-1.8,13.4
			c2.5,14.6,4.8,24.5,6.4,27.4c0.9,1.6,2.1,5.1,2.6,7.7c0.6,2.6,3.9,7.6,7.3,11.1c3.5,3.5,6.7,7.3,7.1,8.5c1,2.6,14.8,4.9,15.6,2.6
			c0.3-0.9,1.7-1.5,3-1.5c1.4,0,4.4-1.5,6.8-3.4c9.3-7.2,16.2-11.5,24.5-15.5c4.8-2.3,12.5-7,17.2-10.4c5.9-4.4,10.8-6.6,16.3-7.3
			c4.3-0.5,12.2-3.2,17.6-6c6.1-3.1,12.3-5,16.5-5c5.8,0,6.9-0.6,8.3-4.5c0.9-2.5,3.7-5.5,6.4-6.7c2.7-1.2,6.5-4,8.6-6.2
			c2.1-2.2,5.8-5.2,8.3-6.5c4.2-2.2,5-2.1,10.7,1.3c13.7,8.2,18.4,11.5,18.4,12.9c0,0.8,2,2.6,4.5,4c2.5,1.4,6.4,3.8,8.8,5.4
			c2.4,1.6,7.7,4.9,11.9,7.5c4.2,2.6,7.6,5.3,7.6,6.1c0,0.8,1.1,1.5,2.3,1.5c1.3,0,3.3,1,4.5,2.2c1.2,1.2,5,2.6,8.5,3.2
			c3.6,0.6,7.3,2.5,8.7,4.4c1.3,1.8,3.8,3.3,5.6,3.3s3.7,1.1,4.2,2.5c0.5,1.4,2.8,2.5,5,2.5c4,0,9.6,3.5,17.9,11.1
			c2.2,2,5.2,3.7,6.7,3.7c1.4,0,3.6,1.3,4.7,2.9c1.2,1.6,2.7,2.9,3.5,2.9c3.1,0,8.9,5.5,9.6,9c0.4,2.1,2.1,5.3,3.8,7.2
			c2.9,3.2,13.4,24.3,13.5,26.9c0,0.6,1.1,3.3,2.5,5.9c1.4,2.6,2,6.1,1.5,7.8c-0.5,1.7-0.3,3,0.6,3c2.7,0,3.1,11.9,0.6,16.9
			c-2,4-2.7,4.4-4.6,2.5c-1.2-1.2-3.6-6.1-5.3-10.8c-3.1-8.7-11.6-18.9-12-14.3c-0.2,2.6-0.8,5.4-1.3,6.1c-0.2,0.2-0.6,10-0.9,21.7
			c-0.6,22.9,1.5,34.8,7.4,42.3c7.1,9.1,9.3,22.8,6.7,42.5c-1,7.4-2.2,23.9-2.6,36.6c-1,28.3-3.5,35.4-15.7,44.5
			c-4.5,3.3-8.1,6.6-8.1,7.2c0,0.6-0.4,4.6-1,6c22.7,1.5,65.1-1.5,68.5,1c1.6,1.2,1.6,73-0.4,73L453.9,611.2z M755,538.1
			c6.4-0.8,7.8,0.3,10.9-4.2c2.1-3,5.5-5.9,7.5-6.5s3.7-2,3.7-3.4c0-1.3,1.1-2.4,2.5-2.4c1.4,0,3.2-1.8,4.1-4.1s2.2-4.1,3.1-4.1
			s2.8-2.7,4.3-6c2.5-5.2,2.7-9.3,1.7-34c-1.3-31.3-1.9-36.8-4.5-39.9c-1-1.2-1.9-3.8-2-5.8c-0.4-6.9-5.1-5.1-7.2,2.7
			c-1.1,4.1-4.3,9.7-7.2,12.7c-6,6.1-9.5,19.2-10.3,38.2c-0.3,6.6-1.3,11.7-2.3,12c-1,0.3-1.8,1.9-1.8,3.4
			c0,6.5-13.1,26.4-17.3,26.4c-1.3,0-2.4,0.6-2.4,1.2c0,0.7-4.1,1.3-9,1.5c-9.6,0.3-11.1-1.3-5.8-5.9c1.8-1.5,3.5-5.5,3.8-8.8
			c0.4-4.1,2.2-7.5,5.6-10.5c7.7-7,13.8-17.8,12.7-22.4c-0.5-2.1-0.3-4.4,0.6-4.9c0.9-0.5,1.2-3.9,0.7-7.5c-0.6-4.6,0-7.8,2-10.9
			c2.2-3.4,2.6-6.4,1.9-14c-0.6-6.3-0.3-9.6,0.8-9.6c1.1,0,1.4-2.8,0.8-7.8c-0.5-4.3-1-8.9-1.1-10.2c-0.1-1.4-2-6.4-4.1-11.1
			s-3.9-9.6-3.9-10.7s-1.2-3.7-2.6-5.7c-1.9-2.7-2.6-7.8-2.6-19.6c0-14.1-0.5-16.5-3.8-20.6l-3.7-4.7l-17.3,5.9
			c-9.5,3.2-18.4,5.9-19.7,5.9c-1.3,0-6,1.7-10.4,3.7c-7.4,3.4-10.1,3.6-36.9,3.4c-21.7-0.2-30.4-0.9-34.8-2.8c-3.3-1.4-6-2.1-6-1.6
			c0,0.5-1.8-0.3-4-1.7c-5.8-3.8-6.9-3.4-9.2,3.5c-1.1,3.4-2.9,7.3-4,8.6c-4.7,5.6-11.7,23-10.9,26.8c0.2,0.8-0.4,2.3-1.3,3.4
			c-1,1.2-1.6,12.3-1.4,27.3c0.2,26.6,0,29.1-4.4,40.9c-1.5,4.1-4,12.3-5.6,18.2c-2.8,10.5-2.8,11.1,0.1,17.1c2,4.2,2.5,6.8,1.4,7.9
			c-0.9,0.9-1.7,3.3-1.7,5.2s-1.2,4.1-2.6,4.6c-1.8,0.7-2.3,2.2-1.7,4.5c0.5,1.9,0.3,4.7-0.5,6.2c-0.9,1.6-0.4,5.4,0.8,7.5
			C615.3,536.4,694.2,536.8,755,538.1z"/>
		<path class="st2" d="M857.1,704.2H454c-2.8,0-5-2.2-5-5V543.1c0-2.8,2.2-5,5-5h403.1c2.8,0,5,2.2,5,5v156.1
			C862.2,702,859.9,704.2,857.1,704.2z"/>
		<g id="g4695" transform="matrix(18.0964,0,0,17.213631,246.63518,-8836.1551)">
			<g id="g4623">
				<path id="path4621" class="st3" d="M31.8,546.3c0.2-0.2,0.5-0.4,0.8-0.5c-0.1,0.3-0.3,0.6-0.6,0.8c-0.1,0.1-0.1,0.3-0.1,0.4
					c-0.1,0-0.1,0-0.2-0.1c0.1,0.8,0.2,1.7,0.2,2.5c0,0.1,0,0.2,0.1,0.3c0.4,0.3,0.8,0.7,1,1.1c0.1,0.2,0.2,0.4,0.2,0.6
					c0.1-0.3,0.1-0.7,0-1c-0.1-1.3-0.3-2.6-0.4-3.9c0-0.2,0-0.3,0-0.5c0-0.1,0.2-0.3,0.3-0.3c0.1,0.1,0.1,0.2,0.2,0.3
					c0.1,0.3,0.2,0.6,0.2,0.9c-0.1,0-0.1-0.1-0.2-0.1c0.1,0.9,0.2,1.7,0.3,2.6c0,0.6,0.1,1.2,0,1.8c-0.1,0.5-0.4,1.1-0.8,1.4
					c-0.4,0.3-0.8,0.4-1.3,0.5c-0.2,0-0.4,0.1-0.5,0c0.2-0.1,0.4-0.2,0.6-0.3c0.3-0.1,0.6-0.3,0.8-0.5c0.2-0.2,0.5-0.3,0.7-0.6
					c-0.2-0.6-0.6-1.2-1.1-1.6c0,0.6,0,1.3,0,1.9c0,0.1-0.1,0.3-0.2,0.4c-0.1-0.3-0.1-0.5-0.1-0.8c-0.1-0.6-0.1-1.2-0.1-1.7
					c0-0.1-0.1-0.2-0.2-0.3c-0.3-0.3-0.6-0.6-1-0.9c0,0.4,0.1,0.7,0.1,1.1c0,0.5,0,0.9,0.1,1.4c0,0.3,0,0.7-0.1,1
					c-0.1,0.3-0.4,0.6-0.7,0.6c-0.2,0-0.3,0-0.5,0c-0.2,0-0.3-0.2-0.4-0.3c-0.1-0.2-0.1-0.4-0.2-0.6c-0.1,0-0.3,0.1-0.4,0.2
					c-0.2,0.2-0.3,0.6-0.4,0.9c-0.1,0.2-0.1,0.4-0.3,0.5c-0.2,0.1-0.4,0.1-0.5,0c-0.2-0.1-0.4-0.4-0.5-0.7c-0.1-0.2,0-0.5-0.1-0.7
					c-0.1-0.2,0-0.4,0-0.6c0.1-0.3,0.3-0.6,0.5-0.9c-0.3-0.3-0.6-0.6-1-0.9c0,0.8,0.1,1.6,0,2.4c0,0.2-0.1,0.3-0.2,0.4
					c0-0.2-0.1-0.3-0.1-0.5c-0.1-0.9-0.1-1.8-0.2-2.7c0-0.1,0-0.2-0.1-0.3c-0.3-0.3-0.6-0.7-0.9-1c-0.2-0.2-0.3-0.5-0.4-0.7
					c0-0.1-0.1-0.3,0-0.4c0.1,0,0.2,0.1,0.3,0.1c0.2,0.1,0.4,0.3,0.5,0.4c0.1,0.1,0.1,0.2,0.1,0.3c-0.1,0-0.2,0-0.3,0
					c0.2,0.3,0.4,0.6,0.7,0.8c0-0.8-0.1-1.5-0.1-2.3c0-0.1,0-0.2,0.1-0.3c0.1-0.1,0.2-0.1,0.2-0.1c0.2,0.2,0.3,0.5,0.3,0.8
					c0,0.1,0,0.2,0,0.3c-0.1,0-0.1,0-0.2-0.1c0,0.6,0.1,1.2,0.1,1.8c0,0.1,0,0.2,0,0.3c0,0.1,0.1,0.1,0.1,0.1
					c0.4,0.4,0.8,0.7,1.2,1.1c0.2-0.2,0.5-0.4,0.7-0.7c0.1-0.1,0.1-0.1,0.2-0.2c0-0.1,0-0.1,0-0.2c-0.1-0.7-0.1-1.5-0.2-2.2
					c0-0.3-0.1-0.5-0.1-0.8c0-0.2,0.1-0.3,0.3-0.3c0.1,0,0.1,0.1,0.1,0.1c0.1,0.2,0.2,0.4,0.2,0.7c0,0.1,0,0.2,0,0.3
					c-0.1,0-0.1-0.1-0.2-0.1c0.1,0.7,0.2,1.4,0.2,2.1c0.2-0.1,0.3-0.3,0.5-0.4c0.2-0.2,0.4-0.3,0.5-0.5c-0.2-0.2-0.4-0.5-0.6-0.7
					c-0.1-0.1-0.3-0.3-0.4-0.5c0-0.1,0-0.3,0-0.4c0.3,0,0.5,0.2,0.7,0.4c0.1,0.1,0.3,0.2,0.4,0.4c0-0.3,0-0.6-0.1-0.9
					c0-0.1,0-0.2,0.1-0.3c0.1-0.1,0.2-0.1,0.2-0.1c0.2,0.2,0.3,0.5,0.3,0.8c0,0.1,0,0.2,0,0.4c-0.1,0-0.1,0-0.2-0.1
					c0,0.2,0,0.4,0.1,0.7c0.3-0.2,0.5-0.4,0.8-0.7c0.1-0.1,0.3-0.2,0.3-0.3c0-0.2,0-0.3,0-0.5c0-0.1,0.2-0.3,0.3-0.3
					C31.7,546,31.7,546.1,31.8,546.3L31.8,546.3z M30.4,547.9c0,0.1-0.1,0.1-0.1,0.2c0,0.1,0.1,0.1,0.2,0.2c0.3,0.3,0.6,0.6,1,0.9
					c0-0.3,0-0.7-0.1-1c0-0.3,0-0.7-0.1-1C31,547.4,30.7,547.7,30.4,547.9L30.4,547.9z M29.6,547.3c0.1,0.1,0.1,0.2,0.2,0.3
					c0-0.1,0-0.2,0-0.3C29.7,547.3,29.7,547.3,29.6,547.3L29.6,547.3z M28.8,549.3c-0.1,0.1-0.1,0.1-0.1,0.2c0,0.4,0,0.9-0.1,1.3
					c0,0.1-0.1,0.2-0.2,0.2c-0.1-0.4-0.1-0.8-0.2-1.3c-0.2,0.2-0.5,0.4-0.7,0.6c0.1,0.2,0.3,0.3,0.3,0.5c0.1,0.3,0,0.6-0.2,0.8
					c-0.3,0.2-0.6,0.3-1,0.3c0.1,0.2,0.1,0.5,0.2,0.7c0.1,0.1,0.2,0.2,0.4,0.2c0.2,0,0.3-0.2,0.3-0.3c0.1-0.3,0.2-0.6,0.4-0.9
					c0.1-0.2,0.4-0.4,0.6-0.4c0.1,0,0.2,0,0.2,0.1c0.1,0.2,0.2,0.4,0.3,0.6c0.2,0.3,0.7,0.3,1,0.1c0.1-0.1,0.1-0.2,0.1-0.4
					c-0.1-1.1-0.2-2.3-0.3-3.4C29.5,548.7,29.2,549,28.8,549.3z M26.8,551.3c-0.1,0.1-0.1,0.2-0.1,0.3c0.3,0,0.5,0,0.7-0.2
					c0.1,0,0.1-0.1,0.1-0.2c0-0.2-0.2-0.3-0.3-0.4C27.1,550.9,26.9,551.1,26.8,551.3L26.8,551.3z"/>
			</g>
			<path id="path4625" class="st3" d="M16.2,545.8c0.1,0,0.1,0,0.2,0.1c0.1,0.2,0.3,0.3,0.4,0.6c-0.1,0-0.1,0-0.2,0
				c0,0.3,0.3,0.6,0.4,0.9c0.1,0.2,0.1,0.4,0,0.6c-0.1,0.3-0.3,0.5-0.5,0.6c-0.3,0.1-0.7,0-0.9-0.3c-0.2-0.2-0.2-0.4-0.3-0.6
				c-0.1,0.3-0.2,0.5-0.4,0.8c-0.1,0.1-0.2,0.2-0.4,0.3c0,0.8,0.1,1.5,0.1,2.3c0,0.2,0,0.5-0.2,0.6c-0.1-0.3-0.1-0.6-0.1-0.9
				c-0.1-0.6-0.1-1.3-0.2-1.9c-0.2,0-0.4-0.1-0.5-0.2c-0.2-0.2-0.3-0.5-0.3-0.9c0-0.2,0.1-0.5,0.1-0.7c-0.1,0.1-0.2,0.2-0.2,0.3
				c-0.1,0.4-0.2,0.8-0.4,1.1c-0.1,0.1-0.2,0.3-0.3,0.3c-0.2,0-0.4,0-0.5-0.1c-0.2-0.2-0.2-0.4-0.2-0.6c0-0.2,0-0.5,0.1-0.7
				c0.1-0.1,0.2-0.2,0.3-0.3c-0.1,0.1-0.1,0.2-0.2,0.4c0,0.2,0,0.4,0,0.6c0,0.1,0,0.2,0.1,0.3c0.1,0.1,0.3,0.1,0.5,0
				c0.1-0.1,0.1-0.2,0.1-0.3c0.1-0.4,0.2-0.7,0.3-1.1c0.1-0.3,0.3-0.6,0.7-0.6c0,0.4-0.2,0.8-0.2,1.2c0,0.2,0,0.4,0.1,0.5
				c0.1,0.1,0.2,0.2,0.4,0.2c0-0.5-0.1-1.1-0.1-1.6c0-0.2,0-0.4,0-0.6c0-0.1,0.2-0.2,0.3-0.2c0.2,0.3,0.4,0.7,0.4,1.1
				c-0.1,0-0.1,0-0.2-0.1c0,0.5,0.1,0.9,0.1,1.4c0.2-0.1,0.4-0.2,0.5-0.4c0.2-0.3,0.3-0.8,0.1-1.2c0-0.2-0.1-0.3-0.2-0.5
				c0-0.2,0.1-0.3,0.2-0.4c0.1,0,0.1,0.1,0.1,0.1c0.1,0.2,0.1,0.4,0.2,0.6c0.1,0.3,0,0.6,0.1,0.8c0.1,0.2,0.2,0.4,0.4,0.6
				c0.2,0.1,0.4,0.1,0.5,0.1c0.1,0,0.2-0.1,0.2-0.2c0-0.2,0-0.4-0.1-0.5c-0.2-0.4-0.4-0.7-0.5-1.1C16,546.1,16.1,545.9,16.2,545.8
				L16.2,545.8z"/>
			<path id="path4627" class="st3" d="M24,546.2c0.1-0.2,0.3-0.3,0.5-0.4c-0.1,0.1-0.1,0.3-0.2,0.4c-0.1,0.1-0.1,0.2-0.1,0.3
				c0.1,0,0.3,0,0.4-0.1c0,0.1-0.1,0.2-0.2,0.3c-0.1,0.1-0.3,0.1-0.4,0C23.9,546.6,23.9,546.4,24,546.2L24,546.2z"/>
			<g id="g4631">
				<path id="path4629" class="st3" d="M17,546c0.1-0.1,0.2-0.1,0.2-0.2c0.2,0.2,0.3,0.5,0.3,0.8c0,0.1,0,0.2,0,0.3
					c-0.1,0-0.1,0-0.2-0.1c0.1,0.5,0.2,1.1,0.2,1.6c0.3-0.2,0.6-0.3,0.9-0.5c0.1,0,0.2-0.1,0.3-0.1c0,0.1-0.1,0.2-0.2,0.2
					c-0.3,0.2-0.7,0.3-1,0.5c0,0.3,0.1,0.5,0.1,0.8c0.1-0.2,0.3-0.4,0.5-0.5c0,0.1,0,0.3,0.1,0.4c0.2,0.1,0.4,0.1,0.5-0.1
					c0-0.2,0-0.4,0.1-0.6c0.1,0,0.1,0,0.2,0.1c0.1,0.2,0.1,0.4,0,0.6c-0.1,0.2-0.2,0.4-0.4,0.5c-0.1,0.1-0.3,0.1-0.4,0
					c-0.1-0.1-0.2-0.2-0.3-0.3c-0.1,0.2-0.2,0.4-0.2,0.6c0,0.5-0.2,0.9-0.5,1.3c-0.5,0.7-1.2,1.1-2,1.3c-0.4,0.1-0.9,0.2-1.3,0.2
					c-0.2,0-0.5-0.1-0.7-0.2c-0.1-0.1-0.2-0.1-0.3-0.2c-0.1,0-0.2,0-0.3,0c-0.3,0-0.6,0-0.8,0c0.3-0.1,0.7-0.2,1-0.3
					c-0.1-0.6,0-1.3,0.3-1.8c0.1-0.1,0.2-0.3,0.3-0.4c-0.1,0.2-0.2,0.4-0.3,0.6c-0.1,0.5-0.1,1,0,1.4c0.2-0.1,0.5-0.2,0.7-0.3
					c0.5-0.2,1-0.5,1.5-0.8c0.2-0.1,0.4-0.3,0.5-0.5c0.1-0.1,0-0.2,0-0.3c-0.2,0.1-0.5,0.2-0.7,0.2c-0.2,0-0.3,0-0.4-0.2
					c-0.1-0.1-0.1-0.3-0.1-0.5c0-0.2,0.1-0.4,0.3-0.6c0.2-0.2,0.5-0.2,0.7-0.1c0.2,0.1,0.3,0.3,0.4,0.5c0.3-0.1,0.5-0.4,0.8-0.6
					c0,0.2,0,0.4,0.1,0.5c0.1,0.1,0.2,0.1,0.3,0.1c0-0.3-0.1-0.5-0.1-0.8c-0.1-0.9-0.2-1.8-0.3-2.7C16.9,546.2,16.9,546.1,17,546
					L17,546z M15,549.8c0,0.1,0,0.1,0.1,0.1c0.2,0.1,0.4,0,0.5,0c-0.1-0.1-0.2-0.2-0.3-0.2C15.2,549.7,15.1,549.7,15,549.8L15,549.8
					z M16.3,550.2c0,0.2,0,0.4,0,0.5c-0.1,0.3-0.3,0.5-0.5,0.7c-0.4,0.4-0.9,0.6-1.4,0.8c-0.2,0.1-0.4,0.2-0.7,0.3
					c0.3,0,0.6,0,0.9-0.1c0.4,0,0.9-0.2,1.3-0.3c0.4-0.2,0.8-0.4,1.2-0.7c0.2-0.2,0.4-0.5,0.4-0.7c0-0.1,0-0.3,0-0.4
					c-0.2,0-0.3,0-0.5-0.1c-0.1-0.1-0.2-0.2-0.3-0.3C16.5,550,16.4,550.1,16.3,550.2L16.3,550.2z"/>
			</g>
			<path id="path4633" class="st3" d="M20.8,546c0.1-0.1,0.2-0.1,0.2,0c0.2,0.1,0.3,0.3,0.2,0.5c0,0.1,0,0.2-0.1,0.3
				c0-0.1,0-0.3-0.1-0.4c-0.1-0.1-0.2-0.1-0.3-0.2C20.8,546.1,20.8,546,20.8,546z"/>
			<path id="path4635" class="st3" d="M23.2,546c0-0.1,0.1-0.2,0.2-0.1c0.2,0.1,0.4,0.3,0.5,0.6c-0.1,0-0.2,0-0.2,0
				c0,0.2,0.1,0.3,0.1,0.5c0.1,0.2,0.2,0.4,0.2,0.7c0,0.3,0,0.6-0.2,0.7c-0.3,0.4-1,0.3-1.3-0.1c-0.1-0.1-0.2-0.3-0.2-0.5
				c-0.1,0.4-0.3,0.7-0.6,0.9c-0.3,0.2-0.8,0.2-1.1,0c-0.2-0.1-0.3-0.4-0.3-0.6c0-0.3,0.1-0.7,0.2-1c-0.1,0.1-0.2,0.2-0.2,0.3
				c-0.1,0.4-0.2,0.8-0.4,1.1c-0.1,0.2-0.2,0.3-0.4,0.3c-0.2,0-0.4-0.1-0.5-0.2c-0.1-0.2-0.1-0.3-0.1-0.5c0-0.3,0.1-0.6,0.2-0.8
				c0,0.4-0.1,0.7,0.1,1.1c0.1,0.2,0.3,0.3,0.5,0.2c0.2-0.1,0.2-0.3,0.3-0.5c0.1-0.4,0.2-0.7,0.4-1.1c0.1-0.1,0.2-0.3,0.3-0.4
				c0.1-0.1,0.2-0.1,0.2-0.1c0,0.3-0.2,0.6-0.2,0.9c-0.1,0.3-0.1,0.6,0.1,0.8c0.2,0.2,0.5,0.3,0.8,0.2c0.4-0.1,0.7-0.5,0.7-1
				c0-0.3,0-0.5-0.1-0.8c-0.1-0.1-0.2-0.2-0.1-0.4c0-0.1,0.1-0.3,0.2-0.3c0.1,0.1,0.2,0.3,0.2,0.5c0,0.4,0.1,0.8,0.2,1.2
				c0.1,0.2,0.2,0.4,0.4,0.5c0.2,0.1,0.4,0.1,0.6,0c0.1-0.1,0.1-0.2,0.1-0.3c-0.1-0.4-0.3-0.7-0.5-1.1
				C23.2,546.4,23.1,546.2,23.2,546L23.2,546z"/>
			<path id="path4637" class="st3" d="M26.9,545.9c0.1-0.1,0.3,0,0.3,0.1c0,0.1,0,0.1-0.1,0.2c-0.1,0-0.2-0.1-0.2-0.1
				c-0.1,0.2-0.1,0.4-0.2,0.6c0-0.1-0.1-0.2-0.1-0.3c-0.1-0.1-0.2-0.2-0.3-0.3c0-0.1,0.1-0.2,0.2-0.2c0.1,0,0.2,0.2,0.3,0.3
				C26.8,546.2,26.8,546,26.9,545.9L26.9,545.9z"/>
			<path id="path4639" class="st3" d="M11.8,546.4c0.1-0.2,0.3-0.4,0.5-0.5c-0.1,0.1-0.1,0.3-0.2,0.4c-0.1,0.1-0.1,0.2-0.1,0.3
				c0.1,0,0.3,0,0.4-0.1c0,0.1-0.1,0.2-0.2,0.3c-0.1,0.1-0.3,0.1-0.4,0C11.7,546.8,11.7,546.6,11.8,546.4z"/>
			<g id="g4643">
				<path id="path4641" class="st3" d="M19,546.1c0-0.2,0.3-0.2,0.4,0c0.1,0.1,0.1,0.2,0.1,0.3c0.1,0.1,0.1,0.2,0.1,0.3
					c-0.1,0.2-0.2,0.3-0.2,0.5c0.1,0,0.1-0.1,0.2-0.1c0,0.1,0,0.2-0.1,0.3c-0.1,0.1-0.3-0.1-0.3-0.2c0-0.3,0.3-0.5,0.2-0.7
					c-0.2,0.3-0.6,0.6-1,0.7c0.2-0.1,0.4-0.2,0.5-0.4c0.1-0.1,0.2-0.2,0.2-0.4C19.1,546.4,19,546.3,19,546.1L19,546.1z M19.2,546.1
					c0,0.1,0.1,0.1,0.1,0.1C19.3,546.2,19.2,546.1,19.2,546.1z"/>
			</g>
			<path id="path4645" class="st3" d="M17.7,546.3c0.1,0,0.2-0.1,0.3,0c0.2,0.2,0.3,0.5,0.2,0.8c0-0.1-0.1-0.2-0.1-0.3
				C18,546.6,17.8,546.4,17.7,546.3L17.7,546.3z"/>
			<path id="path4647" class="st3" d="M15.9,546.4c0.1,0.1,0.1,0.2,0.1,0.3c-0.1,0-0.3,0.1-0.4,0.1c-0.1,0-0.2,0-0.2-0.1
				c0-0.1,0-0.2,0-0.2c0,0.1,0.1,0.2,0.1,0.3c0,0,0.1,0,0.1,0c0-0.1,0-0.2,0-0.2c0,0,0.1,0,0.1,0c0,0.1,0,0.1,0,0.2c0,0,0.1,0,0.1,0
				C15.9,546.5,15.9,546.5,15.9,546.4L15.9,546.4z"/>
			<path id="path4649" class="st3" d="M27.4,546.6c0.1,0,0.2,0,0.3,0c-0.1,0.1-0.1,0.1-0.2,0.2c-0.4,0.2-0.8,0.3-1.2,0.5
				c0,0.1,0.1,0.1,0.1,0.2c-0.1,0-0.2,0-0.3-0.1c-0.1-0.1-0.1-0.2,0-0.2c0.1-0.1,0.1-0.1,0.2-0.1C26.7,546.8,27,546.7,27.4,546.6
				L27.4,546.6z"/>
			<path id="path4651" class="st3" d="M21.5,546.9c0,0,0.1-0.1,0.1-0.1c0,0.2,0,0.3,0.1,0.4s0,0.3-0.1,0.4c-0.1,0-0.2,0-0.3-0.1
				c-0.1,0.1-0.2,0.2-0.3,0.1c-0.2,0-0.3-0.3-0.3-0.4c0-0.1,0.1-0.2,0.2-0.3c0,0.1-0.1,0.2,0,0.4c0,0.1,0.1,0.1,0.2,0.1
				c0-0.1,0-0.3,0.1-0.4c0-0.1,0.1-0.1,0.1-0.1c0,0.1,0,0.2,0,0.3c0,0.1,0.1,0.1,0.2,0.2C21.6,547.2,21.5,547,21.5,546.9L21.5,546.9
				z"/>
			<path id="path4653" class="st3" d="M15.6,547.1c0.1,0,0.2,0,0.3,0.1c0.2,0.2,0.3,0.5,0.2,0.8c-0.1-0.2-0.1-0.4-0.3-0.5
				C15.7,547.3,15.7,547.2,15.6,547.1z"/>
			<path id="path4655" class="st3" d="M27.3,547.8c0-0.1,0.1-0.1,0.1-0.1c0,0.1,0,0.3,0.1,0.4c0.1,0.1,0.1,0.3-0.1,0.4
				c-0.1,0.1-0.3,0-0.4-0.1c-0.1,0.1-0.2,0.2-0.3,0.1c-0.2,0-0.2-0.3-0.2-0.4c0-0.1,0.1-0.2,0.2-0.3c0,0.1-0.1,0.3,0,0.4
				c0,0.1,0.1,0.1,0.2,0.1c0-0.1,0-0.3,0.1-0.4c0,0,0.1-0.1,0.1-0.1c0,0.1,0,0.3,0,0.4c0,0.1,0.1,0.1,0.2,0.1
				C27.4,548.1,27.3,547.9,27.3,547.8L27.3,547.8z"/>
			<path id="path4657" class="st3" d="M32,548c0-0.1,0-0.2,0.1-0.2c0.1,0,0.2,0.1,0.3,0.2c0.1,0.2,0.2,0.5,0.1,0.8
				c-0.1-0.2,0-0.5-0.2-0.7C32.2,548.1,32.1,548.1,32,548L32,548z"/>
			<path id="path4659" class="st3" d="M24.2,548.5c0.1-0.1,0.2-0.1,0.3-0.1c0.1,0.1,0.1,0.3,0,0.4c-0.2,0.2-0.4,0.3-0.7,0.3
				c0.2-0.1,0.3-0.2,0.5-0.3c0.1-0.1,0.1-0.1,0.1-0.2c-0.1,0-0.2,0-0.2,0C24.1,548.6,24.2,548.6,24.2,548.5L24.2,548.5z"/>
			<path id="path4661" class="st3" d="M28,548.7c0.1,0,0.1,0,0.2,0c0,0.1-0.2,0.2-0.3,0.2c-0.4,0.2-0.8,0.4-1.2,0.6
				c0,0,0-0.1-0.1-0.1c0.2-0.2,0.5-0.3,0.7-0.4C27.5,548.9,27.8,548.7,28,548.7L28,548.7z"/>
			<g id="g4665">
				<path id="path4663" class="st3" d="M20.4,549c0-0.1,0.1-0.1,0.1-0.2c0.3,0.4,0.6,0.8,0.7,1.2c0.1,0.4,0.2,0.9,0.3,1.4
					c0,0.2,0.1,0.5,0.2,0.7c0.1,0.1,0.2,0.2,0.4,0.3c0-0.1,0.1-0.3,0.2-0.4c0.4-0.3,0.9-0.4,1.3-0.6c-0.4,0-0.7,0-1.1,0
					c-0.3,0-0.6,0-0.9,0c0-0.1,0-0.2,0.1-0.3c0.1-0.2,0.4-0.4,0.6-0.5c0.3-0.2,0.7-0.3,1.1-0.5c-0.1-0.1-0.2-0.2-0.2-0.4
					c0.1-0.2,0.2-0.4,0.5-0.4c0.2,0,0.5,0.1,0.7,0.2c0.1,0.1,0.3,0.2,0.3,0.3c0,0.1-0.1,0.2-0.1,0.3c-0.1,0.2-0.4,0.2-0.6,0.2
					c0,0.1,0,0.3-0.2,0.4c0-0.1-0.1-0.2-0.1-0.3c-0.5,0.1-0.9,0.3-1.3,0.6c1,0,2.1,0,3.1,0c0.1,0,0.1,0,0.2,0c0,0.3-0.3,0.4-0.6,0.5
					c-0.5,0.1-1,0.2-1.5,0.3c-0.4,0.1-0.7,0.2-1.1,0.3c-0.1,0.1-0.2,0.2-0.3,0.3c0.2,0.1,0.5,0.2,0.7,0.2c0.1,0,0.2,0,0.2,0.1
					c0,0.1,0,0.3-0.1,0.4c-0.2,0-0.3,0-0.5,0c-0.5-0.1-0.9-0.3-1.1-0.7c-0.2-0.3-0.3-0.7-0.3-1c-0.1,0.2-0.3,0.4-0.4,0.5
					c-0.4,0.4-1,0.7-1.5,1c-0.2,0.1-0.4,0.1-0.6,0c-0.1-0.1-0.2-0.3-0.2-0.4c-0.5,0.3-1,0.5-1.6,0.7c-0.3,0.1-0.7,0.1-1.1,0.1
					c0.2-0.1,0.4-0.2,0.6-0.2c0.6-0.3,1.2-0.6,1.8-0.9c0.1,0,0.2-0.1,0.2-0.2c0.1-0.2,0.1-0.3,0.1-0.5c0.1-0.2,0.2-0.3,0.4-0.5
					c-0.1,0.2-0.2,0.5-0.3,0.8c0.4-0.2,0.7-0.5,1-0.8c0.1-0.1,0.2-0.2,0.1-0.3c-0.1-0.2-0.2-0.4-0.2-0.5c-0.1-0.3-0.2-0.6-0.2-0.9
					c0-0.1,0.1-0.2,0.1-0.2c0.2,0.2,0.4,0.4,0.5,0.7c-0.1,0-0.1,0-0.2,0c0.1,0.3,0.3,0.5,0.3,0.8c0,0.2,0,0.5-0.2,0.6
					c-0.4,0.4-0.9,0.8-1.3,1.1c0.1,0,0.2,0.1,0.3,0.1c0.2,0,0.4-0.1,0.5-0.1c0.6-0.3,1.1-0.8,1.7-1.2c-0.1-0.5-0.4-1-0.6-1.5
					C20.4,549.4,20.3,549.2,20.4,549L20.4,549z M23.3,549.7c0.1,0.1,0.1,0.2,0.2,0.2c0.2,0,0.3-0.1,0.4-0.2
					c-0.1-0.1-0.3-0.2-0.5-0.2C23.4,549.5,23.3,549.6,23.3,549.7L23.3,549.7z"/>
			</g>
			<g id="g4669">
				<path id="path4667" class="st3" d="M12.6,549c0-0.1,0.1-0.1,0.1-0.1c0.2,0,0.3,0.1,0.4,0.3c0.1,0.1,0.1,0.2,0.1,0.3
					c0,0.1-0.1,0.1-0.2,0.1c-0.2,0-0.2,0.2-0.4,0.3c-0.3,0.2-0.6,0.3-0.9,0.3c0.1-0.1,0.2-0.2,0.3-0.2c0.2-0.1,0.4-0.3,0.6-0.4
					C12.6,549.3,12.6,549.1,12.6,549L12.6,549z M12.7,549c0,0.1,0,0.2,0.1,0.3c0-0.1,0.1-0.2,0.1-0.2C12.8,549,12.8,549,12.7,549z
					 M13,549.4c0.1,0,0.1,0,0.2,0c0-0.1,0-0.2-0.1-0.2C13,549.2,13,549.3,13,549.4L13,549.4z"/>
			</g>
			<path id="path4671" class="st3" d="M22.2,549c0,0,0.1-0.1,0.1-0.1c0,0.2,0.1,0.3,0.2,0.5c0,0.2-0.2,0.3-0.4,0.2
				c0,0-0.1-0.1-0.1-0.1c-0.1,0.1-0.2,0.2-0.3,0.2c-0.2,0-0.3-0.3-0.2-0.4c0-0.1,0.1-0.2,0.2-0.3c0,0.1-0.1,0.2,0,0.4
				c0,0.1,0.1,0.1,0.2,0.2c0-0.1,0.1-0.3,0.1-0.4c0-0.1,0.1-0.1,0.2-0.1c0,0.1,0,0.2,0,0.4c0,0.1,0.1,0.1,0.2,0.2
				C22.3,549.3,22.2,549.2,22.2,549L22.2,549z"/>
			<path id="path4673" class="st3" d="M13.2,549.8c0.1,0,0.2-0.1,0.3-0.1c0.1,0,0.2,0.2,0.1,0.2c-0.1,0.1-0.3,0.1-0.4,0.2
				c-0.3,0.2-0.6,0.3-0.9,0.5c-0.1,0-0.2,0-0.2,0c0-0.1,0.1-0.2,0.2-0.2C12.5,550.1,12.8,549.9,13.2,549.8z"/>
			<path id="path4675" class="st3" d="M25,549.9c0-0.1,0.1-0.1,0.2-0.2c0,0.2,0,0.3,0.1,0.5c-0.1,0-0.1,0-0.1,0
				c-0.1,0.1-0.1,0.2-0.3,0.3c-0.2,0.1-0.4,0.1-0.6,0.1c0.2-0.1,0.5-0.1,0.6-0.3C25.1,550.2,25,550.1,25,549.9L25,549.9z"/>
			<g id="g4679">
				<path id="path4677" class="st3" d="M29.3,550.1c0-0.1,0.1-0.1,0.2-0.1c0.2,0,0.3,0.2,0.4,0.3c0.1,0.1,0.1,0.2,0,0.3
					c-0.1,0.1-0.3,0-0.4,0.1c-0.3,0.3-0.7,0.5-1.1,0.5c0.1-0.1,0.2-0.2,0.3-0.2c0.2-0.1,0.4-0.3,0.6-0.4
					C29.3,550.4,29.2,550.3,29.3,550.1L29.3,550.1z M29.4,550.2c0,0.1,0,0.2,0.1,0.3c0-0.1,0.1-0.2,0.1-0.2
					C29.5,550.2,29.4,550.2,29.4,550.2z M29.7,550.3c0,0.1-0.1,0.2-0.1,0.2c0.1,0,0.1,0,0.2,0C29.8,550.4,29.8,550.4,29.7,550.3
					C29.8,550.3,29.7,550.3,29.7,550.3z"/>
			</g>
			<path id="path4681" class="st3" d="M18.6,550.3c0.1-0.1,0.3-0.1,0.4,0.1c0,0.1,0,0.1-0.1,0.2c-0.1,0-0.1-0.1-0.2-0.1
				c-0.1,0-0.1,0.1-0.1,0.1c-0.1,0.2-0.1,0.3-0.2,0.5c0-0.1-0.1-0.2-0.1-0.3c-0.1-0.1-0.2-0.2-0.3-0.2c-0.1-0.1,0-0.2,0.1-0.2
				c0.1,0,0.2,0.1,0.3,0.2C18.5,550.4,18.6,550.3,18.6,550.3L18.6,550.3z"/>
			<path id="path4683" class="st3" d="M11.8,551.3c0.1-0.2,0.3-0.3,0.5-0.4c-0.1,0.1-0.1,0.3-0.2,0.4c-0.1,0.1-0.1,0.2-0.1,0.3
				c0.1,0,0.3,0,0.4-0.1c0,0.1-0.1,0.2-0.2,0.3c-0.1,0.1-0.3,0.1-0.4,0C11.8,551.6,11.8,551.4,11.8,551.3L11.8,551.3z"/>
			<path id="path4685" class="st3" d="M20.8,552.1c0.1,0,0.2-0.1,0.3,0c0.1,0.1,0.1,0.2,0,0.3c-0.1,0.1-0.3,0-0.4,0.1
				c0,0.1,0.1,0.3,0.1,0.4c0,0.1-0.1,0.2-0.1,0.2c0-0.1-0.1-0.3-0.1-0.4c0-0.1-0.1-0.2-0.1-0.3c0-0.1,0.1-0.2,0.2-0.2
				C20.8,552.2,20.8,552.2,20.8,552.1z"/>
			<path id="path4687" class="st3" d="M25.2,552.3c0-0.1,0.2-0.2,0.2-0.2c0,0.1-0.1,0.2-0.1,0.3c0,0.1,0.1,0.1,0.2,0.2
				c0,0.1-0.2,0.2-0.3,0.1C25.1,552.6,25.1,552.4,25.2,552.3L25.2,552.3z"/>
			<path id="path4689" class="st3" d="M24.1,552.1c0.2-0.1,0.3,0,0.5,0.1c-0.1,0.2-0.3,0.3-0.5,0.4c0,0,0,0.1,0,0.1
				c0.1,0,0.3,0,0.4,0c0.1-0.1,0.3-0.2,0.4-0.2c-0.1,0.1-0.2,0.2-0.4,0.3c-0.1,0.1-0.3,0.1-0.5,0.1c-0.1,0-0.2-0.1-0.2-0.2
				c0-0.1,0.2-0.2,0.3-0.3c-0.1,0-0.2,0-0.2,0C24,552.3,24,552.2,24.1,552.1z"/>
			<path id="path4691" class="st3" d="M28.2,552.5c-0.1-0.1,0-0.2,0.1-0.2c0.2,0,0.3,0.1,0.3,0.2c0.1,0.2,0.1,0.4,0,0.6
				c0-0.1,0-0.3-0.1-0.4C28.5,552.7,28.3,552.6,28.2,552.5L28.2,552.5z"/>
			<path id="path4693" class="st3" d="M30.8,552.6c0.2-0.1,0.4-0.2,0.6-0.2c-0.1,0.1-0.1,0.2-0.2,0.2c-0.3,0.1-0.7,0.3-1,0.4
				c-0.1,0.1-0.2,0.1-0.3,0.1c0,0,0-0.1,0-0.1C30.1,552.9,30.4,552.8,30.8,552.6L30.8,552.6z"/>
		</g>
	</g>
</g>
<g id="Lager_2">
</g>
</svg>
