<?xml version="1.0" encoding="utf-8"?>
<!-- Generator: Adobe Illustrator 24.0.1, SVG Export Plug-In . SVG Version: 6.00 Build 0)  -->
<svg version="1.1"
	 id="svg2" inkscape:output_extension="org.inkscape.output.svg.inkscape" inkscape:version="0.46" sodipodi:docname="Flag_of_Hamas.svg" xmlns:cc="http://creativecommons.org/ns#" xmlns:dc="http://purl.org/dc/elements/1.1/" xmlns:inkscape="http://www.inkscape.org/namespaces/inkscape" xmlns:rdf="http://www.w3.org/1999/02/22-rdf-syntax-ns#" xmlns:sodipodi="http://sodipodi.sourceforge.net/DTD/sodipodi-0.dtd" xmlns:svg="http://www.w3.org/2000/svg"
	 xmlns="http://www.w3.org/2000/svg" xmlns:xlink="http://www.w3.org/1999/xlink" x="0px" y="0px" viewBox="0 0 1600 800"
	 style="enable-background:new 0 0 1600 800;" xml:space="preserve">
<style type="text/css">
	.st0{fill:#FFFFFF;stroke:#000000;stroke-width:2;}
	.st1{fill:#B9261C;}
	.st2{fill:#1F3F5F;}
	.st3{fill:#F2C399;}
	.st4{fill-rule:evenodd;clip-rule:evenodd;fill:#1F3F5F;}
</style>
<defs>
	
		<inkscape:perspective  id="perspective82" inkscape:persp3d-origin="799.99994 : 333.33333 : 1" inkscape:vp_x="0 : 500 : 1" inkscape:vp_y="0 : 1000 : 0" inkscape:vp_z="1599.9999 : 500 : 1" sodipodi:type="inkscape:persp3d">
		</inkscape:perspective>
</defs>
<sodipodi:namedview  bordercolor="#666666" borderopacity="1.0" gridtolerance="10000" guidetolerance="10000" id="base" inkscape:current-layer="svg2" inkscape:cx="799.99994" inkscape:cy="500.03206" inkscape:pageopacity="0.0" inkscape:pageshadow="2" inkscape:showpageshadow="false" inkscape:snap-global="false" inkscape:snap-intersection-grid-guide="false" inkscape:window-height="750" inkscape:window-width="1280" inkscape:window-x="-8" inkscape:window-y="-8" inkscape:zoom="0.32250003" objecttolerance="10000" pagecolor="#ffffff" showgrid="false">
	</sodipodi:namedview>
<image style="overflow:visible;" width="432" height="216" xlink:href="6B3CF540.jpg"  transform="matrix(3.7037 0 0 3.7037 0 -1.967446e-05)">
</image>
<polygon points="713,400 0,0 0,800 "/>
<g>
	<path class="st0" d="M276.2,533.3c-74.5,0-134.9-60.4-134.9-134.9s60.4-134.9,134.9-134.9c13.1,0,25.7,1.9,37.7,5.3
		c-22-12.7-47.5-19.9-74.6-19.9c-82.6,0-149.5,66.9-149.5,149.5s66.9,149.5,149.5,149.5c27.2,0,52.7-7.3,74.6-19.9
		C301.9,531.5,289.2,533.3,276.2,533.3z"/>
	<polygon class="st0" points="325.7,453.8 311.4,410.5 265.8,410.3 302.6,383.3 288.7,339.8 325.7,366.5 362.8,339.8 348.9,383.3 
		385.7,410.3 340,410.5 	"/>
</g>
<g>
	<rect y="0" class="st1" width="960" height="800"/>
	<rect x="113.8" y="113.8" class="st2" width="732.4" height="572.4"/>
	<rect x="186.7" y="186.7" class="st3" width="586.6" height="426.6"/>
	<g>
		<path class="st4" d="M443.4,383.2c3.6-19.5,5.4-37.8,3.4-56.5c-0.4-4.1,1.1-8.5,4.6-8.7c3.7-0.2,5,4.2,4.9,8.3
			c-0.2,10.2-0.1,20.4-0.1,34.7c10.8-12.1,12.8-22.4,12.5-33.7c-0.1-4.3-1.6-10.9,5.9-9.9c6.2,0.8,2.9,6.7,3.3,10.3
			c0.5,4.6-0.5,9.4-0.2,14c0.5,7.5-2,18.1,5.9,21.1c9.1,3.4,20.1,2.9,28.9-4.2c-1.9-5.2-5.5-3.6-8.3-3.8c-3.6-0.4-8.4,0.7-9.3-3.7
			c-1.3-6.3,4.7-5,8.3-6.3c6.5-2.4,10.1-6.5,9.5-14.1c-0.6-8.2-0.1-16.5-0.1-25.9c9.2,5.5,6.9,14.2,8.8,21.2c2.9,10.9-6,22,0.6,33.1
			c1.3,2.2-1.1,4.6-3.1,6.6c-7.7,7.3-33.9,11.7-40.8,4.2c-7.2-7.8-10.9-3.3-16,0.2C455.8,374,449.6,378.7,443.4,383.2z"/>
		<path class="st4" d="M586.3,220.2c-10.7-0.5-16.6-0.8-23-1.2c7-12.7,14.4-13.4,37.3-3.9c-2.4,8.8-10.4,12.3-17,16.4
			c-3.9,2.4-6.9,4.3-7.8,8.6c-1.4,6.9-4.5,7.2-11.1,5.5c-10.7-2.8-20.3-1.3-27.9,9.5c-4.4,6.2-12.7,11.6-21.9,7.6
			c-7.8-3.3-10.3-9.7-7-19.6c3.5,6.5,7.1,11.3,14.8,9.5c7.4-1.7,13.8-3.2,15.9-12.1c1.4-5.8,4.4-7.9,12.1-6.1
			C562.5,237,572.5,229.2,586.3,220.2z"/>
		<path class="st4" d="M704.9,490.8c-1.4-18.1-2.8-36.1-4.3-54.1c-0.3-3-2-6.6,2.5-7.5c5-1,3.9,3.3,4.4,6.1
			c1.8,10.5,3.7,21,5.9,33.5c14.4-15.1,11.8-34.6,19-53.2C740.7,444.3,726.4,480.4,704.9,490.8z"/>
		<path class="st4" d="M582.1,302.1c13.1,17.8,6,38.1,14.3,54.7c9.3-3.6-2.5-20.2,13.7-19.2c0,5.7-0.5,11.8,0.1,17.8
			c0.8,8-3.9,11.6-10.2,13.5c-8.2,2.5-11.3-3.8-13.7-9.6C579,341.6,582.3,323,582.1,302.1z"/>
		<path class="st4" d="M429.9,308.4c2.2,19.5,5.8,38.4,4.5,57.9c-0.3,5.1-1.5,9.9-7.3,10c-5.8,0-13.4,3.5-17-3.2
			c-3.1-5.6-7.2-13-3.5-19c3.7-6,6.3,0.9,8.7,3.4c2.2,2.3,2.3,8,7.3,5.9c4.1-1.8,2.1-6.3,2.2-9.6c0.2-11.4-0.1-22.8,0.2-34.2
			C425,315.6,423.2,310.8,429.9,308.4z"/>
		<path class="st4" d="M587.1,493c4.3-20.1-5.1-37.6-1.1-57.4c13.9,11.1,5.2,26.3,10.2,39.2c15.4-9.9,7.3-27.4,13.3-41
			C619.6,460.4,612.5,479.9,587.1,493z"/>
		<path class="st4" d="M728.9,358.3c6.9-5.6,0-14.2,6.6-19.3c4.9,1.6,2.9,5.8,3.4,8.9c1.7,9.1,6,20.3-8.3,21.9
			c-13.1,1.4-16.6-10.4-16.5-19.9c0.2-13.5-5.8-26.5-2.5-42.8C727.3,322.1,713.2,345.3,728.9,358.3z"/>
		<path class="st4" d="M738.9,230.1c0,5.3-0.2,10.3,0,15.3c0.4,7.2-0.1,13.7-9.2,14.9c-9.5,1.3-11.1-6.2-12.9-12.5
			c-4.4-15.5-4.1-31.1-1.1-50.6c11.9,17.7,2,36.8,13,51.6C736.1,243.9,727.9,232.8,738.9,230.1z"/>
		<path class="st4" d="M306.1,453.3c3.9,4.5,5.3,6.7,7.2,8.3c2.6,2.2,4.6,6.5,8.9,4.5c3.4-1.6,1.9-5.5,2.2-8.4
			c1.1-11.1-2.3-21.6-4.4-32.3c-0.8-3.7-3.5-9.2,2-10.6c7.5-1.9,5.9,5.7,6.9,9.4c3.1,12.3,1.6,24.9,1.9,37.4c0.2,7.8-0.7,15-11,15.3
			c-9.8,0.2-14.2-5.1-14.2-14.5C305.7,460.3,305.8,458.2,306.1,453.3z"/>
		<path class="st4" d="M337.4,562.6c-0.7,10.5,0.8,19.2-10.7,21.7c-7.7,1.6-16.3-5.3-14.7-12.9c0.3-1.2,1.5-2.9,2.5-3.1
			c2.4-0.5,3.9,0.9,3.9,3.4c-0.1,6.6,4.3,6.2,8.5,5.3c5.1-1.1,4-5.8,3.5-9c-1.6-10.2-3.9-20.4-5.7-30.6c-0.4-2.5-0.5-5.6,2.8-6.3
			c3.2-0.6,4.8,2.3,5.2,4.6C334.8,545.4,336.2,555.2,337.4,562.6z"/>
		<path class="st4" d="M272.3,363.1c-12.6-14-6.5-31.5-10-47.2c-0.2-0.8,2.8-3,4.4-3.3c4.5-0.6,4.3,3.3,5,6.2
			C275.3,333.4,274.1,348.1,272.3,363.1z"/>
		<path class="st4" d="M594.7,237.7c-1.5,18-9.7,25-33.7,29.8C571.8,255.2,587.5,251.4,594.7,237.7z"/>
		<path class="st4" d="M462.5,242.3c-4.6,17.5-13.8,23-38.2,23.7C437,255.6,453.1,254.5,462.5,242.3z"/>
		<path class="st4" d="M682.8,432.4c9.3,2.9,5,9.8,5.7,14.4c1.2,8.1-1.4,16.6,2,24.7c1.1,2.7,2.5,6.9-1.6,7.7
			c-4.6,0.9-5.9-3.7-6-7.2C682.6,459,682.8,446.1,682.8,432.4z"/>
		<path class="st4" d="M389.7,578.8c-1.7,16.8-12.3,23.8-34.3,22.6C369.7,595.8,380.5,590,389.7,578.8z"/>
		<path class="st4" d="M394.6,354.8c-4.4-6.2-12.9-5.6-16.8-2.3c-9.4,8.1,3.7,10.3,7.1,15.8c-12.4,3.7-23.8,7.1-35.1,10.5
			c14.3,6.1,28,5,40.1-2.8C397.4,371.2,400.5,363.1,394.6,354.8z M384,361.5c-4.3-0.2-2.6-1.3-2-3.4c0.6-2.1,4-1.8,4-1.8
			c1.4-0.1,1.5,0.8,1.4,2.6C387.2,360.8,388.3,361.8,384,361.5z"/>
		<path class="st4" d="M675.1,432.2c0-3.5-1-7.3-7.5-8.2c-1,15.2-1.6,29.7-3,44.2c-0.3,3,0.4,8.5-4.6,8.5c-5.4,0-3-5.4-4.2-8.4
			c-1.7-4.3,0.1-11.5-8.2-10.5c-7.8,0.9-9.9,7.4-11.4,13.3c-2.2,8.6,5.2,4.9,8.9,6.1c1.8,0.6,4.1,1.5,5,3c2.8,4.5,5.3,10.3,11.5,8
			c6.6-2.4,10.3-8.1,11.6-15.5C675.4,459.2,675.2,445.7,675.1,432.2z M644.6,471.9c-2.1-0.4-2.1-3.7,0-5.2c2.1-1.6,6-2.6,6,2.4
			C650.6,474,644.6,471.9,644.6,471.9z"/>
		<path class="st4" d="M536.6,552.5c-5.9-1.4-12.2,1.3-18-3.1c-4.1-3.2-6.9,1.5-7.9,4.4c-2.2,6.6,3.5,4.2,6.5,4.7
			c4.9,0.8,10.3-1.9,16.7,4.2c-4.2,1.5-7.3,2.1-9.9,3.5c-17.1,9.4-23.2,6.3-23.7-12.3c-0.1-4.1,0.2-8.6-1.2-12.3
			c-1.2-3.3-1.4-9.2-7.5-7.9c-6.4,1.4-3.9,6.7-3.1,10.2c3.2,13.1,5.2,26.3,5.4,39.7c0,2.9-2.3,8.2-2.7,7.6
			c-4.1-7.2-19.1-1.3-17.5-15.2c0.8-6.7-4.2-10.4-10.6-10.7c-8.4-0.4-6.3,6.3-6.7,11.1c-0.4,4.3,1.7,9.1-1.9,13.4
			c-16.7-16.7-39.8,3.7-57.2-13.1c0.2,12.5,7.3,16.1,15.3,14.9c20.1-3,39,6.6,58.8,4.7c3.8-0.4,6.9,1.2,10.1,3.3
			c9.8,6.3,17,3.1,20.3-7.5c3.2-10.5,9.4-14.8,20.4-15.1c6.3-0.2,12.7-3.9,18.6-6.7c4.7-2.2,5.6-8,5.6-12
			C546.4,553.7,540.5,553.4,536.6,552.5z M467.3,577.4c-0.5,4.2-4.4,4.7-5.2,0c-0.8-4.7,2.6-5.3,2.6-5.3
			C466.4,570.9,467.8,573.2,467.3,577.4z"/>
		<path class="st2" d="M562.2,350.4c-1.9-1.7-3.9-3.4-5.3-5.4c-3.5-4.8-7.8-7.9-12.9-3.4c-4.9,4.3-4.4,10-0.3,15
			c1.6,1.9,3.9,3.2,6,4.8c-9.1,8.3-22.1,10.2-30.3,20.5c26.8,0.5,40.6-9,43.4-29C562.6,352,562.4,351.1,562.2,350.4z M553.5,353.2
			c-2.7,2.8-6.9-0.5-6.7-3.8c0.2-3.3,3.3-1.8,3.3-1.8C552.7,349,556.2,350.4,553.5,353.2z"/>
		<path class="st4" d="M710.5,201.8c-16.1,16.5-4,34.2-11.8,50.2c-11.6-10.8-5.3-23.5-6.9-34.5c-0.8-5.5,0.6-13.7-7.2-12.7
			c-7.3,0.9-5.9,8.6-4.5,14.2c2.3,9.3,3.5,18.3-0.7,27.5c-1.2,2.7-2.2,4.6-5.2,4.5c-3.3-0.1-3.8-2.4-4.5-5.1
			c-2.4-9.1-3.2-18.2-3.8-27.5c-0.2-3.8-2.3-10.8-5.8-9.7c-8.5,2.7-16.5,7.4-23.9,12.5c-1.9,1.3-1.4,6.9-1,10.3
			c0.5,4.4,5.2,3.8,7.5,3.4c13.5-1.9,17.7,5.7,20.8,17c6.7,24.4,25.7-3.7,36.4,7.5c1.1,1.2,9-1.8,10.3-7.4c0.2-1,0.3-2.1,0.3-3.1
			C710.5,234.6,710.5,220.3,710.5,201.8z M656.5,227.2c-1.2,3.3-12.5,3.1-13.5,0c-1-3.1,2.1-5.1,2.1-5.1c2.9-2.2,9.4-3.9,11.4-2.5
			C658.5,221,657.7,223.9,656.5,227.2z"/>
		<path class="st2" d="M349.3,489.7c-1,0.4-2.1,0.8-3.2,1.2c-2.3,2.3-7.8,2.8-4.9,7.3c2.3,3.7,6.4,0.3,9.7-0.9
			c4.8-1.8,10-2.8,14.5-5.2c7.6-3.9,16.2-7.3,19.2-22C371.9,480.6,362.3,489.4,349.3,489.7z"/>
		<path class="st4" d="M640.4,531.9c0,0,4.3,31.6-3.1,43.6c0,0-9.3,0.4-11.3,2.3c-2,2-14.4-21.4-23.6-12.4c-9.2,9,5.5,17.1-3.9,15
			c-9.4-2.1-17.3-28-22-31.8c0,0,2.2,33.2-7.3,34.8s-13.6-2.9-16.2-6.8c0,0-1.6,3.9,1.9,6.8c3.5,2.9,13.1,9.4,21,4.2
			c7.9-5.2,6.7-9.3,6.3-11.7c0,0,2.4,0.7,3.9,4.2c1.5,3.5,13.5,8.5,18.6,6.8c5.1-1.7,2.7,6.6,8.9,7.8c6.2,1.2,20.9,2.6,15.9-12.1
			c0,0,3.9-1.7,5,0.1c1.1,1.8,1.3,6,5.3,5.7S652.1,549.9,640.4,531.9z M605,570.5c1.8-3.1,12.3,0.9,11.2,4.8c0,0-0.3,2.5-4.9,3.1
			C606.8,579.1,603.3,573.6,605,570.5z M614.1,588.8c-1.9-0.7-2.8-3.8,0-4.2c2.8-0.4,6.6-2.5,6.6-2.5c3-0.4,2.7,0.5,3.4,3.3
			C624.7,588.3,616,589.5,614.1,588.8z"/>
		<path class="st4" d="M656.2,531.9c0,0-4.9,6.7-3.4,14.4c1.6,7.7,0.1,19.1-0.3,23.3c-0.4,4.2-3,17.9,2.8,18.6s6.6-8.1,4.9-16.9
			C658.4,562.6,661.9,536.4,656.2,531.9z"/>
		<path class="st4" d="M553.9,518.6c0,0-12.3,14.3-9.7,22.1c2.6,7.8,21.6,3.7,33-5.9s8.6-9.3,4.4-8.6c-4.1,0.7-16,10.2-24.4,10.5
			S552.2,527.8,553.9,518.6z"/>
		<path class="st4" d="M670,564.4c0,0,5.9,2.8,6.6,7.3c0.7,4.5,5.4,5,12.4-1.3c7-6.3,1.8-23.3,9.9-25.6c8.1-2.3,4.5,18.4,9.8,21.6
			s30.5-1.8,23.4-7.4s-19.9,1.9-16.3-4.8c3.6-6.7,20.8-9,20.4-16.7c-0.4-7.8,2.3-17.5,12.9-12.5s14.6,17.6,6.3,19.2
			c-8.3,1.7-20,4.1-15.6,8.3s13.4,6.8,4.9,13.5c-8.4,6.8-12.2,9.9-12.6,16.1c-0.4,6.2-14.6-2.4-22.9-6.8c-8.3-4.4-7.7-9.5-7.7-13.6
			c0,0-2.3,4.6-1.6,11.3c0.7,6.7-10.8,10.8-17.3,11.2C676.2,584.6,669.6,572.1,670,564.4z"/>
		<path class="st4" d="M404.4,544.6c-5.5,11.3-16.2,6.2-23.3,10.1c-8.8,4.9-16.6,11-27.4,10.1c-8.6-0.7-11,4.8-7.1,10.6
			c7,10.1-1.1,12.8-6.8,15.7c-6.2,3.1-13.3,4.4-22.4,7.2c16.4,2.5,30.4,1.3,38.3-11c9.3-14.5,22.2-19.8,37.6-23.3
			C401.6,562.2,408.9,557.7,404.4,544.6z M351.1,576c-4.7-2.4,0-6.7,0-6.7c1.8-2.6,2.9-0.7,4.3,2.7
			C356.9,575.4,355.8,578.4,351.1,576z"/>
		<path class="st4" d="M285.1,534c-4.5,2.3,2.6,35.9-2.7,41.4c-5.3,5.5-9.2-0.1-10.8-7.3c-1.6-7.2-4.4-36.4-10.6-34.6
			c-6.3,1.8,7.1,39.6,1.7,43.7c-5.3,4.1-10.4,4-12.9-9.1c-2.5-13.1-0.2-35.9-12-31.3c-11.8,4.6-21.8,8.1-19.7,19.6
			c0,0-0.7,5.6,8.2,3c9-2.6,12.2,3.6,15.3,10.2c3.1,6.6,2,20.2,12.9,18.5c10.9-1.7,15.5-6.7,20.5-3.2c4.9,3.6,15.3-1,16.2-7.8
			S289.6,531.8,285.1,534z M239.4,548.4c-0.6,6.1-12,7.4-13.6,4.7c-1.6-2.7,0.9-4.7,0.9-4.7C233.3,543.8,240,542.3,239.4,548.4z"/>
		<path class="st4" d="M274.3,433.4c-4.9,1.3-4.9,35.7-11.2,39.9c-6.4,4.3-9-2-9.1-9.4c-0.1-7.4,3.2-36.5-3.2-36
			c-6.5,0.4-1.3,40.2-7.3,43.1c-6.1,3-11,1.7-10.7-11.6s7.2-35.2-5.3-33.1c-12.5,2.1-23,3.4-23.3,15.1c0,0-1.9,5.3,7.5,4.6
			c9.3-0.7,11.2,6.1,12.9,13.2c1.7,7.1-2.3,20.2,8.7,20.8c11,0.6,16.6-3.4,20.7,1.1c4.1,4.5,15.2,2.2,17.5-4.3
			C273.6,470.4,279.2,432.1,274.3,433.4z M226.7,438c-1.8,5.8-13.3,4.8-14.3,1.8c-1-2.9,1.9-4.5,1.9-4.5
			C221.7,432.3,228.5,432.2,226.7,438z"/>
		<path class="st4" d="M288,433.8c0,0-5.6,3.1-4.2,12.9c1.3,9.8-1.6,31.6,4.2,33.6c5.8,2,3.7-24,3.3-30.2
			C290.9,443.8,289.8,437.6,288,433.8z"/>
		<path class="st4" d="M302.2,535.1c0,0-5.6,3.1-4.2,12.9c1.3,9.8-1.6,31.6,4.2,33.6c5.8,2,3.7-24,3.3-30.2
			C305.1,545.1,304,538.9,302.2,535.1z"/>
		<path class="st4" d="M344.9,197.5c0,0-5.6,3.8-4.2,15.8c1.3,12-1.6,38.7,4.2,41.2c5.8,2.5,3.7-29.5,3.3-37.1
			C347.8,209.7,346.7,202.1,344.9,197.5z"/>
		<path class="st4" d="M364.1,311.1c0,0-7.4,3.1-5.6,12.9c1.8,9.8-2.1,31.6,5.6,33.6c7.7,2,4.9-24,4.4-30.2
			C368,321.1,366.5,315,364.1,311.1z"/>
		<path class="st4" d="M570.6,433.8c0,0-5.6,3.1-4.2,12.9c1.3,9.8-1.6,31.6,4.2,33.6c5.8,2,3.7-24,3.3-30.2
			C573.5,443.8,572.4,437.6,570.6,433.8z"/>
		<path class="st4" d="M624,429c0,0-5.6,3.6-4.2,15.2c1.3,11.5-1.6,37.2,4.2,39.6c5.8,2.4,3.7-28.3,3.3-35.6
			C626.9,440.8,625.8,433.5,624,429z"/>
		<path class="st4" d="M533.3,304c0,0-5.6,3.6-4.2,14.9c1.3,11.3-1.6,36.5,4.2,38.8s3.7-27.8,3.3-35
			C536.2,315.6,535.1,308.4,533.3,304z"/>
		<path class="st2" d="M401.6,433.3c0,0-2.7,8.3-10.1,8.3c-7.4,0-7,10.1-18.7,11.3c-11.7,1.2-13.2,6.4-20.3,5s-14.4,1.5-10.4,6.7
			c4,5.2,11.9,8.2,3.5,12.8s-28.5,4.8-34.1,9.1c0,0,15.2,3.7,27.9-0.6c12.7-4.3,11.1-1.6,17.8-10.2c6.8-8.6,22.5-19.8,30.6-21.8
			C396,452,408.9,446,401.6,433.3z M349.5,466.7c-4.7-0.7-1.6-4.5-1.6-4.5c0.9-3,5.5-1,5.8,0.7C353.9,464.7,354.2,467.4,349.5,466.7
			z"/>
		<path class="st4" d="M390.5,470.1c0,0,1.6,16.1,9.2,18.5c7.6,2.4,19.6-4.1,20.7-8.4c1.2-4.3,6,10.2,8.3,12.8
			c2.3,2.5,25.3,3.5,32.9-10.5c7.7-14,5.6-14.2,2.5-17.9s19.5-18.5,9-24.7s-18-1.7-16,7.7c2,9.5,4.8,8.6-3.4,10.1
			s-10.2,9.3-3.9,12.7c6.4,3.4,5.8,5.3-1,7c-6.8,1.6-7.6,2.4-9.8,4.6c-2.2,2.2-10.9-0.6-10.4-10.4c0.5-9.8-1.9-17.2-7.5-14.7
			c-5.6,2.4-1.3,20.7-10.8,22.7S396.4,470.1,390.5,470.1z"/>
		<path class="st4" d="M554.2,437.1c-6.4,5.7-4,39.3-13.2,40c-9.2,0.7-7.1-14.7-7.7-21.3c-0.6-6.7,0.2-20.8-4.3-22.6
			c-4.5-1.8-3.4,18-3.4,25.4c0,7.4-0.6,20.2-6.3,14.8c-5.7-5.3-7-36.1-10-36.4c-3-0.2-9.2,8.2-14.8,8.2c-5.6,0-10.7,5.4-11.6,10.5
			c-0.9,5.1,4.2,8.9,11.9,8.3c7.7-0.6,11.4,6.2,17.6,16.9c6.2,10.7,32.8,8.7,38.9,6.6s4.5-26.6,5.1-35.5
			C557,443.2,554.2,437.1,554.2,437.1z M496,457.8c-7.8-2.7,0-6.9,0-6.9c2.8-2.3,7.1,1.1,7.8,2.4C504.4,454.5,503.8,460.4,496,457.8
			z"/>
		<path class="st2" d="M705.8,334.7c-1.8-4.4-9.3-3.8-13.4,0.1c-8.4,7.8,3.1,10.1,6.5,15.7c-10.3,1.1-18.7,1.8-27-1.6
			c-3.4-1.4-7.9-2.4-8.5,3c-2.2,19.7-17.8,16.5-30.3,18.5c-0.3,0.3-0.5,0.6-0.7,0.9c0.8,8.1,7.5,6.2,12,5.1
			c17.4-4,33.2-13.3,51.1-16.1c2.4-0.4,5-1.5,6.9-2.9C710.5,351,708.7,341.9,705.8,334.7z M671.7,355.6c-0.2,2.9-4.9,4.4-6.4,0
			c-1.6-4.4,4.4-4.7,4.4-4.7C672.3,350.3,672,352.7,671.7,355.6z M700,343.5c-2.8,0.8-5.1-1.3-2.6-5c0,0,2.2-2.6,3.5-1.6
			C702.4,337.8,702.8,342.7,700,343.5z"/>
		<path class="st2" d="M651.4,337.9c-5.1,0.1-9.8-4.9-12.2,1.5c-2.3,6.5-1.4,10.5-6.9,13.6c-5.5,3.1-5.4,10-19.1,16.9
			c0,0,16.2-1.1,21.2-6.6s21.2-5.6,21.7-13.9C656.7,341.2,656.5,337.8,651.4,337.9z M651.1,350.5c-3.6,3.1-7.4,1-8.1-3.1
			s2.7-5,2.7-5C650.8,339.7,654.6,347.4,651.1,350.5z"/>
		<path class="st4" d="M247.3,332.9c-4-1.3-11.2-2.2-10.4,4.9c1.6,14-9.3,21.1-13.7,32.4c10.5-7.5,23.7-10.9,29.7-23.9
			C255.9,339.7,253.6,334.9,247.3,332.9z M240.9,341c-2.2-4.2,3.3-4.9,3.3-4.9c2.1-0.7,5,1.4,5,4.2S243.1,345.2,240.9,341z"/>
		<path class="st4" d="M253.1,237.9c0,0,5.6,18.7,13.1,18.9c7.5,0.2,10.2-1.2,23.6-8c13.4-6.8,13.8-0.7,31.1-10.5s18-21.2-1.3-21.9
			c-19.3-0.7-21.9,7.3-21.9,9.1c0,0,10.1-1.5,13.8-0.1c3.7,1.3,16.4-1.3,9.8,3.1s-12,5.4-17.5,8.5c-5.5,3.2-15.9-5.3-19,1.1
			c-3.1,6.4,1,9.6-10.2,10.5C263.4,249.5,260.2,240.1,253.1,237.9z"/>
		<path class="st4" d="M609,198.1c0,0,5.8,11.5,4.7,33.9c-1.1,22.4,1.8,24,5.2,18.9s9.5-15.3,13.5-11.8s-5.1,22.8-12.9,24.6
			s-14.3-11.3-14.1-20.6S603,195.3,609,198.1z"/>
		<path class="st4" d="M477.5,198.1c0,0,5.8,11.5,4.7,33.9c-1.1,22.4,1.8,24,5.2,18.9s9.5-15.3,13.5-11.8s-5.1,22.8-12.9,24.6
			c-7.8,1.8-14.3-11.3-14.1-20.6S471.4,195.3,477.5,198.1z"/>
		<path class="st4" d="M359.4,228.8c0,0-6.2,2.9-4.1,10.9s5.9,11.2,6.5,2.9S360.8,227.9,359.4,228.8z"/>
		<path class="st4" d="M570.3,343.9c0,0-2.8,1.3,0.4,6.9s-0.6,15-4.5,16.7c-3.9,1.7-5.1,6.2,0,7.9s11.2-4.8,11.7-13.5
			C578.3,353.2,573.8,345.3,570.3,343.9z"/>
		<path class="st2" d="M445.9,208.7c-17.2,5.5-8.8,7.6-2.5,7.6c6.3,0,13.4-5,12.6,0.6s-22.3,14.5-30.7,14s-13.4-1.7-20.1,1.9
			c-6.7,3.6-14.3,11.5-13.6,17.3c0.7,5.8-13.6,15.1-16.2,28.7c0,0,20.7-17.5,22.3-20.8c1.6-3.3,19.5,0.4,26.6-10.6
			c7.1-11,35.7-19.2,41.1-28C470.8,210.7,463.1,203.1,445.9,208.7z M398.9,247.5c-1.6-4.3,2.9-6.1,2.9-6.1c7.3-0.7,9.8,3.6,9.8,7.1
			S400.4,251.8,398.9,247.5z"/>
		<path class="st2" d="M228.4,380.9c0,0,19.3,2.4,33.9-1.3c14.6-3.8,38.8-5.5,38.6-25.1c-0.2-19.6-3.9-28.7,4.8-35.6
			s15.6-3.6,15.2-8.9s-7.3-1.1-12.9,0c-5.6,1.1-17.3,7-16.9,24.4c0.4,17.4,4.7,28.3-7.5,30.9C271.3,368,241.8,373.5,228.4,380.9z"/>
		<path class="st2" d="M303.8,380.9c0,0,16.9-11.5,18.7-23.2s-0.4-11-2.4-17.5c-1.9-6.5-4.9-24.9-0.7-25.5
			c4.1-0.6,3.9,17.3,7.1,22.2c3.3,4.9,7.6,18.7,0,28.6c-7.6,9.9,1.8,1.8,4.5-0.3c2.6-2.1,13.8-14.2,11.7-33.2
			c-2.1-19-3.5-17.8,0.3-18.4c3.7-0.6,6.8,11.7,6.9,22.1S345.5,380.1,303.8,380.9z"/>
	</g>
</g>
</svg>
