<?xml version="1.0" encoding="utf-8"?>
<!-- Generator: Adobe Illustrator 24.0.1, SVG Export Plug-In . SVG Version: 6.00 Build 0)  -->
<svg version="1.1"
	 id="svg2" inkscape:output_extension="org.inkscape.output.svg.inkscape" inkscape:version="0.46" sodipodi:docname="Flag_of_Hamas.svg" xmlns:cc="http://creativecommons.org/ns#" xmlns:dc="http://purl.org/dc/elements/1.1/" xmlns:inkscape="http://www.inkscape.org/namespaces/inkscape" xmlns:rdf="http://www.w3.org/1999/02/22-rdf-syntax-ns#" xmlns:sodipodi="http://sodipodi.sourceforge.net/DTD/sodipodi-0.dtd" xmlns:svg="http://www.w3.org/2000/svg"
	 xmlns="http://www.w3.org/2000/svg" xmlns:xlink="http://www.w3.org/1999/xlink" x="0px" y="0px" viewBox="0 0 1600 800"
	 style="enable-background:new 0 0 1600 800;" xml:space="preserve">
<style type="text/css">
	.st0{fill:#FFFFFF;stroke:#000000;stroke-width:2;}
</style>
<defs>
	
		<inkscape:perspective  id="perspective82" inkscape:persp3d-origin="799.99994 : 333.33333 : 1" inkscape:vp_x="0 : 500 : 1" inkscape:vp_y="0 : 1000 : 0" inkscape:vp_z="1599.9999 : 500 : 1" sodipodi:type="inkscape:persp3d">
		</inkscape:perspective>
</defs>
<sodipodi:namedview  bordercolor="#666666" borderopacity="1.0" gridtolerance="10000" guidetolerance="10000" id="base" inkscape:current-layer="svg2" inkscape:cx="799.99994" inkscape:cy="500.03206" inkscape:pageopacity="0.0" inkscape:pageshadow="2" inkscape:showpageshadow="false" inkscape:snap-global="false" inkscape:snap-intersection-grid-guide="false" inkscape:window-height="750" inkscape:window-width="1280" inkscape:window-x="-8" inkscape:window-y="-8" inkscape:zoom="0.32250003" objecttolerance="10000" pagecolor="#ffffff" showgrid="false">
	</sodipodi:namedview>
<image style="overflow:visible;" width="432" height="216" xlink:href="37C5296B.jpg"  transform="matrix(3.7037 0 0 3.7037 0 -1.967446e-05)">
</image>
<polygon points="713,400 0,0 0,800 "/>
<g>
	<path class="st0" d="M276.2,533.3c-74.5,0-134.9-60.4-134.9-134.9s60.4-134.9,134.9-134.9c13.1,0,25.7,1.9,37.7,5.3
		c-22-12.7-47.5-19.9-74.6-19.9c-82.6,0-149.5,66.9-149.5,149.5s66.9,149.5,149.5,149.5c27.2,0,52.7-7.3,74.6-19.9
		C301.9,531.5,289.2,533.3,276.2,533.3z"/>
	<polygon class="st0" points="325.7,453.8 311.4,410.5 265.8,410.3 302.6,383.3 288.7,339.8 325.7,366.5 362.8,339.8 348.9,383.3 
		385.7,410.3 340,410.5 	"/>
</g>
</svg>
